<svg width="229" height="48" viewBox="0 0 229 48" fill="none" xmlns="http://www.w3.org/2000/svg">
<path fill-rule="evenodd" clip-rule="evenodd" d="M26.881 17.3921H21.115C17.824 19.8921 13.688 23.4101 13.688 28.2791C13.688 33.1501 19.168 36.7731 23.998 36.7731C28.828 36.7731 34.309 33.1501 34.309 28.2791C34.309 23.4101 30.172 19.8931 26.881 17.3921ZM21.476 16.5681H26.49C27.366 16.4161 29.699 13.2891 28.951 11.6961C28.438 10.6051 27.572 11.6751 26.588 12.1171C25.605 12.5591 25.203 11.3721 24.05 11.3721C22.898 11.3721 22.846 12.7521 21.725 12.3891C20.836 12.1011 19.529 10.6201 19.023 11.6961C18.335 13.1601 20.601 16.2241 21.476 16.5681Z" fill="#EF4822"/>
<path fill-rule="evenodd" clip-rule="evenodd" d="M138.318 26.0571C138.089 26.3381 137.839 26.5981 137.57 26.8381C136.879 27.4781 136.079 27.978 135.209 28.337C134.279 28.736 133.289 28.918 132.279 28.918C130.65 28.918 129.129 28.5081 127.771 27.6171C126.409 26.7281 125.389 25.5171 124.66 24.0681C123.871 22.4981 123.539 20.798 123.539 19.048C123.539 17.298 123.859 15.5691 124.68 14.0081C125.42 12.5891 126.44 11.4191 127.789 10.5591C129.14 9.68908 130.64 9.29907 132.248 9.29907C133.279 9.29907 134.29 9.47907 135.24 9.85907C136.138 10.2191 136.961 10.729 137.68 11.389C137.908 11.599 138.12 11.8291 138.318 12.0591V11.2291C138.318 10.8291 138.461 10.4591 138.74 10.1691C139.019 9.87007 139.39 9.71906 139.799 9.71906C140.209 9.71906 140.579 9.86907 140.86 10.1691C141.139 10.4601 141.27 10.8291 141.27 11.2291V27.087C141.27 27.486 141.11 27.8371 140.831 28.1271C140.55 28.4071 140.2 28.5671 139.791 28.5671C139.38 28.5671 139.011 28.4181 138.731 28.1171C138.461 27.8371 138.31 27.486 138.31 27.087V26.0571H138.318ZM132.459 26.1171C133.58 26.1171 134.61 25.8471 135.539 25.2181C136.478 24.5881 137.181 23.718 137.67 22.707C138.22 21.558 138.461 20.3281 138.461 19.0681C138.461 17.8281 138.231 16.6281 137.681 15.5181C137.17 14.5071 136.469 13.6671 135.539 13.0381C134.61 12.4081 133.58 12.1191 132.459 12.1191C131.35 12.1191 130.319 12.3981 129.39 13.0081C128.45 13.6181 127.741 14.4481 127.241 15.4481C126.68 16.5781 126.461 17.8181 126.461 19.0681C126.461 20.3381 126.69 21.568 127.25 22.707C127.741 23.728 128.44 24.5871 129.38 25.2181C130.31 25.8381 131.35 26.1171 132.459 26.1171Z" fill="#EF4822"/>
<path fill-rule="evenodd" clip-rule="evenodd" d="M156.967 3.05914C158.61 3.05914 160.238 3.35011 161.718 4.08911C163.069 4.76911 164.197 5.71812 165.097 6.94812C165.998 8.18812 166.637 9.5681 167.047 11.0481C167.477 12.5981 167.678 14.1971 167.678 15.8071C167.678 17.9771 167.338 20.1271 166.537 22.1461C165.788 24.0261 164.637 25.6061 163.017 26.8051C161.256 28.1061 159.126 28.5551 156.966 28.5551H147.978C147.578 28.5551 147.229 28.3951 146.939 28.1161C146.658 27.8361 146.499 27.4851 146.499 27.0751V4.53711C146.499 4.13811 146.658 3.78813 146.939 3.49713C147.218 3.21713 147.569 3.05713 147.978 3.05713H156.967V3.05914ZM149.549 5.97913V25.6591H156.61C158.219 25.6591 159.878 25.3481 161.187 24.3681C162.399 23.4581 163.229 22.2581 163.747 20.8391C164.34 19.2301 164.587 17.5291 164.587 15.8191C164.587 14.5391 164.449 13.2691 164.128 12.0291C163.84 10.9091 163.378 9.8391 162.708 8.8891C162.069 7.9791 161.239 7.27909 160.247 6.75909C159.128 6.17909 157.869 5.97913 156.62 5.97913H149.549Z" fill="#EF4822"/>
<path fill-rule="evenodd" clip-rule="evenodd" d="M205.055 26.0571C204.826 26.3381 204.575 26.5981 204.305 26.8381C203.616 27.4781 202.815 27.978 201.946 28.337C201.015 28.736 200.026 28.918 199.015 28.918C197.386 28.918 195.866 28.5081 194.506 27.6171C193.146 26.7281 192.125 25.5171 191.397 24.0681C190.618 22.4981 190.278 20.798 190.278 19.048C190.278 17.298 190.595 15.5691 191.416 14.0081C192.155 12.5891 193.178 11.4191 194.526 10.5591C195.875 9.68908 197.375 9.29907 198.975 9.29907C200.006 9.29907 201.015 9.47907 201.964 9.85907C202.865 10.2191 203.693 10.729 204.404 11.389C204.634 11.599 204.844 11.8291 205.044 12.0591V11.2291C205.044 10.8291 205.184 10.4591 205.455 10.1691C205.735 9.87007 206.105 9.71906 206.514 9.71906C206.924 9.71906 207.294 9.86907 207.575 10.1691C207.854 10.4601 207.985 10.8291 207.985 11.2291V27.087C207.985 27.486 207.826 27.8371 207.545 28.1271C207.267 28.4071 206.915 28.5671 206.506 28.5671C206.095 28.5671 205.726 28.4181 205.446 28.1171C205.176 27.8371 205.034 27.486 205.034 27.087V26.0571H205.055ZM199.194 26.1171C200.314 26.1171 201.345 25.8471 202.276 25.2181C203.214 24.5881 203.914 23.718 204.404 22.707C204.955 21.558 205.193 20.3281 205.193 19.0681C205.193 17.8281 204.963 16.6281 204.414 15.5181C203.904 14.5071 203.205 13.6671 202.276 13.0381C201.345 12.4081 200.314 12.1191 199.194 12.1191C198.085 12.1191 197.054 12.3981 196.124 13.0081C195.184 13.6181 194.475 14.4481 193.975 15.4481C193.415 16.5781 193.185 17.8181 193.185 19.0681C193.185 20.3381 193.415 21.568 193.975 22.707C194.475 23.728 195.166 24.5871 196.106 25.2181C197.045 25.8381 198.074 26.1171 199.194 26.1171Z" fill="#EF4822"/>
<path fill-rule="evenodd" clip-rule="evenodd" d="M215.652 12.0281C215.933 11.7281 216.234 11.4381 216.564 11.1781C217.284 10.5981 218.082 10.1381 218.955 9.80811C219.812 9.47811 220.703 9.30811 221.623 9.30811C222.982 9.30811 224.423 9.53712 225.572 10.3181C226.583 10.9981 227.302 11.9181 227.742 13.0471C228.192 14.2271 228.394 15.4771 228.394 16.7361V27.0961C228.394 27.4951 228.234 27.8461 227.954 28.1361C227.674 28.4251 227.324 28.5741 226.912 28.5741C226.493 28.5741 226.113 28.4351 225.834 28.1151C225.572 27.8261 225.443 27.4841 225.443 27.0951V16.8351C225.443 16.0061 225.312 15.1861 225.012 14.4151C224.734 13.7151 224.292 13.1651 223.663 12.7361C222.942 12.2461 222.022 12.1061 221.163 12.1061C220.213 12.1061 219.323 12.3261 218.482 12.7661C217.663 13.1861 216.971 13.7661 216.422 14.5051C215.911 15.2061 215.662 15.9761 215.662 16.8351V27.0951C215.662 27.4941 215.502 27.8451 215.223 28.1351C214.943 28.4151 214.591 28.5731 214.192 28.5731C213.774 28.5731 213.393 28.4341 213.104 28.1141C212.842 27.8251 212.713 27.4831 212.713 27.0941V11.3051C212.713 10.9141 212.852 10.5651 213.121 10.2741C213.4 9.97511 213.773 9.8241 214.182 9.8241C214.591 9.8241 214.961 9.97411 215.241 10.2741C215.512 10.5541 215.663 10.9041 215.663 11.3051V12.0241H215.652V12.0281Z" fill="#EF4822"/>
<path fill-rule="evenodd" clip-rule="evenodd" d="M174.268 12.2289C174.517 11.9589 174.778 11.6989 175.068 11.4579C175.756 10.8789 176.528 10.4179 177.368 10.0889C178.196 9.75793 179.067 9.57892 179.958 9.57892C181.297 9.57892 182.668 9.82895 183.788 10.6089C184.788 11.3099 185.507 12.239 185.966 13.369C186.448 14.569 186.646 15.838 186.646 17.119V27.098C186.646 27.497 186.488 27.8479 186.207 28.1379C185.928 28.4179 185.578 28.5759 185.169 28.5759C184.747 28.5759 184.368 28.4369 184.078 28.1169C183.829 27.8279 183.687 27.4859 183.687 27.0969V17.1179C183.687 16.2779 183.568 15.438 183.279 14.658C183.017 13.978 182.597 13.4179 181.998 12.9979C181.309 12.5179 180.418 12.3879 179.598 12.3879C178.68 12.3879 177.807 12.608 176.989 13.028C176.188 13.448 175.519 14.0069 175.01 14.7479C174.51 15.4579 174.27 16.248 174.27 17.119V27.098C174.27 27.497 174.11 27.8479 173.831 28.1379C173.55 28.4179 173.199 28.5759 172.79 28.5759C172.37 28.5759 171.989 28.4369 171.699 28.1169C171.45 27.8279 171.308 27.4859 171.308 27.0969V3.12891C171.308 2.73891 171.45 2.38896 171.719 2.09796C171.999 1.79896 172.369 1.64893 172.781 1.64893C173.188 1.64893 173.559 1.79896 173.84 2.09796C174.111 2.38896 174.249 2.72791 174.249 3.12891V12.228L174.268 12.2289Z" fill="#EF4822"/>
<path fill-rule="evenodd" clip-rule="evenodd" d="M114.411 12.7391C114.641 12.3881 114.891 12.0591 115.161 11.7391C115.792 11.0091 116.532 10.4281 117.381 9.97906C118.291 9.50806 119.282 9.29907 120.312 9.29907C120.802 9.29907 121.273 9.39906 121.712 9.59906C122.241 9.82906 122.562 10.2591 122.562 10.8391C122.562 11.2491 122.452 11.649 122.152 11.949C121.892 12.21 121.562 12.3491 121.191 12.3491C120.892 12.3491 120.592 12.259 120.322 12.139C120.093 12.029 119.781 11.9991 119.531 11.9991C118.902 11.9991 118.312 12.199 117.773 12.519C117.123 12.898 116.562 13.409 116.082 13.998C115.562 14.628 115.162 15.3281 114.863 16.0891C114.572 16.8281 114.412 17.5981 114.412 18.3881V27.0981C114.412 27.4971 114.253 27.8481 113.973 28.1381C113.692 28.4181 113.343 28.576 112.943 28.576C112.523 28.576 112.143 28.4371 111.854 28.1171C111.594 27.8281 111.464 27.486 111.464 27.097V11.308C111.464 10.917 111.604 10.568 111.874 10.277C112.154 9.97804 112.523 9.82709 112.934 9.82709C113.344 9.82709 113.713 9.97704 113.994 10.277C114.264 10.557 114.404 10.907 114.404 11.308V12.738H114.411V12.7391Z" fill="#EF4822"/>
<path fill-rule="evenodd" clip-rule="evenodd" d="M93.3731 19.5479C93.4221 20.6379 93.6731 21.6979 94.1631 22.6879C94.6931 23.7379 95.4531 24.5789 96.4631 25.1989C97.5531 25.8679 98.8031 26.1179 100.073 26.1179C100.783 26.1179 101.493 26.0279 102.153 25.7879C102.733 25.5789 103.282 25.2999 103.763 24.9189C104.193 24.5789 104.593 24.2079 104.922 23.7699L104.953 23.7289L104.993 23.6979C105.293 23.4579 105.643 23.2889 106.033 23.2889C106.394 23.2889 106.704 23.4379 106.953 23.6979C107.193 23.9579 107.333 24.2699 107.333 24.6179C107.333 25.0279 107.163 25.3679 106.863 25.6469C106.073 26.5879 105.083 27.3369 104.014 27.9269C102.804 28.5979 101.494 28.9178 100.114 28.9178C98.3651 28.9178 96.6551 28.5669 95.1151 27.6969C93.6651 26.8879 92.5251 25.7479 91.7151 24.2979C90.8451 22.7369 90.4951 21.0069 90.4951 19.2279C90.4951 17.3879 90.8151 15.5379 91.7251 13.9169C92.5051 12.5179 93.5651 11.3369 94.9351 10.5079C96.2251 9.71787 97.6352 9.29785 99.1552 9.29785C100.245 9.29785 101.295 9.48786 102.315 9.86786C103.345 10.2469 104.265 10.8269 105.065 11.5769C105.895 12.3569 106.534 13.2969 106.995 14.3359C107.515 15.5169 107.745 16.7959 107.785 18.0859V18.1059V18.1359C107.755 18.5259 107.585 18.8559 107.306 19.1259C107.016 19.3959 106.676 19.5359 106.276 19.5359H93.3781V19.5479H93.3731ZM93.6221 16.8089H104.712C104.612 15.9179 104.322 15.0988 103.762 14.3788C103.202 13.6688 102.512 13.1089 101.692 12.7389C100.882 12.3679 100.043 12.1779 99.1521 12.1779C98.4621 12.1779 97.7821 12.3279 97.1321 12.5779C96.4231 12.8479 95.8021 13.2679 95.2721 13.8069C94.6621 14.4169 94.2221 15.1668 93.9021 15.9568C93.7841 16.2278 93.6931 16.5189 93.6221 16.8089Z" fill="#EF4822"/>
<path fill-rule="evenodd" clip-rule="evenodd" d="M74.5841 17.0481L83.5431 3.68912C83.8631 3.24912 84.3131 2.99911 84.8531 3.05911C85.2331 3.05911 85.573 3.2091 85.843 3.4791C86.133 3.7591 86.2631 4.12809 86.2631 4.52909V27.0871C86.2631 27.4861 86.1031 27.8371 85.8231 28.1271C85.5331 28.4161 85.1631 28.5671 84.7531 28.5671C84.3331 28.5671 83.9541 28.4261 83.6431 28.1271C83.3631 27.8481 83.2041 27.4971 83.2041 27.0871V9.09909L75.6941 20.4681C75.5841 20.6681 75.4241 20.8381 75.2241 20.9481C75.0041 21.0781 74.765 21.1181 74.524 21.0981C74.284 21.1181 74.0651 21.0681 73.8441 20.9581C73.6341 20.8481 73.4541 20.6881 73.3241 20.4881L65.8041 9.02909V27.0981C65.8041 27.4871 65.6641 27.8371 65.3941 28.1271C65.1141 28.4271 64.7441 28.5761 64.3331 28.5761C63.9221 28.5761 63.5531 28.4271 63.2841 28.1171C63.0241 27.8261 62.8931 27.4861 62.8931 27.0971V4.53812C62.8931 4.14812 63.0331 3.79909 63.3031 3.50809C63.6131 3.20909 63.9731 3.05808 64.3931 3.05808C64.6221 3.05808 64.8421 3.10809 65.0531 3.19809C65.3131 3.29809 65.5231 3.4681 65.6831 3.7081L74.5841 17.0481Z" fill="#EF4822"/>
<path fill-rule="evenodd" clip-rule="evenodd" d="M64.1551 34.3071V43.7171H62.925V34.3071H64.1551Z" fill="#002C59"/>
<path fill-rule="evenodd" clip-rule="evenodd" d="M69.8551 36.187C70.7541 36.187 71.4851 36.457 72.0451 37.007C72.6051 37.546 72.8851 38.336 72.8851 39.366V43.726H71.6651V39.537C71.6651 38.796 71.4851 38.236 71.1161 37.847C70.7451 37.456 70.2451 37.257 69.6061 37.257C68.9561 37.257 68.4461 37.456 68.0561 37.866C67.6761 38.265 67.4861 38.855 67.4861 39.637V43.727H66.2561V36.327H67.4861V37.378C67.7261 36.997 68.0561 36.707 68.4761 36.497C68.8851 36.287 69.3451 36.187 69.8551 36.187Z" fill="#002C59"/>
<path fill-rule="evenodd" clip-rule="evenodd" d="M77.6441 42.5759L79.9341 36.3169H81.2441L78.3451 43.7169H76.9141L74.0151 36.3169H75.3341L77.6441 42.5759Z" fill="#002C59"/>
<path fill-rule="evenodd" clip-rule="evenodd" d="M89.2129 39.7361C89.2129 39.9661 89.2029 40.2161 89.1729 40.4761H83.2639C83.3039 41.2051 83.5629 41.776 84.0139 42.186C84.4639 42.596 85.0239 42.7961 85.6629 42.7961C86.1929 42.7961 86.6329 42.666 86.9929 42.425C87.3429 42.175 87.6029 41.846 87.7429 41.436H89.0619C88.8619 42.146 88.4619 42.7261 87.8729 43.1661C87.2729 43.6141 86.5429 43.8351 85.6629 43.8351C84.9629 43.8351 84.3329 43.6751 83.7729 43.3641C83.2229 43.0551 82.7829 42.6041 82.4729 42.0251C82.1629 41.4461 82.0039 40.7751 82.0039 40.0051C82.0039 39.2341 82.1539 38.5651 82.4629 37.9941C82.7729 37.4151 83.2029 36.974 83.7529 36.665C84.3029 36.353 84.9429 36.1951 85.6629 36.1951C86.3639 36.1951 86.9829 36.3441 87.5229 36.6541C88.0639 36.9651 88.4829 37.384 88.7729 37.915C89.0629 38.456 89.2129 39.0571 89.2129 39.7361ZM87.9429 39.4771C87.9429 39.0071 87.8429 38.6081 87.6329 38.2661C87.4229 37.9261 87.1429 37.676 86.7929 37.496C86.4419 37.326 86.0429 37.2361 85.6119 37.2361C84.9919 37.2361 84.4629 37.436 84.0229 37.826C83.5829 38.217 83.3329 38.7761 83.2729 39.4761L87.9429 39.4771Z" fill="#002C59"/>
<path fill-rule="evenodd" clip-rule="evenodd" d="M93.454 43.836C92.884 43.836 92.3741 43.736 91.9241 43.545C91.4731 43.356 91.1131 43.086 90.8541 42.736C90.5951 42.386 90.4541 41.986 90.4241 41.537H91.6941C91.7341 41.906 91.9041 42.206 92.2141 42.436C92.5241 42.666 92.9341 42.787 93.4341 42.787C93.9041 42.787 94.2741 42.676 94.5441 42.476C94.8151 42.276 94.954 42.006 94.954 41.695C94.954 41.377 94.815 41.127 94.524 40.976C94.233 40.816 93.7951 40.666 93.1841 40.506C92.6341 40.365 92.1841 40.216 91.8451 40.066C91.4941 39.917 91.2051 39.695 90.9551 39.406C90.7051 39.116 90.584 38.726 90.584 38.256C90.584 37.877 90.694 37.527 90.925 37.217C91.154 36.897 91.465 36.656 91.884 36.467C92.294 36.287 92.7741 36.187 93.3041 36.187C94.1231 36.187 94.7841 36.397 95.2841 36.807C95.7841 37.217 96.0541 37.787 96.0941 38.507H94.8641C94.8341 38.116 94.6841 37.807 94.3951 37.576C94.1141 37.336 93.7341 37.226 93.2541 37.226C92.8141 37.226 92.464 37.316 92.204 37.506C91.945 37.696 91.8141 37.944 91.8141 38.255C91.8141 38.495 91.8941 38.696 92.0541 38.855C92.2141 39.015 92.404 39.136 92.644 39.236C92.884 39.327 93.214 39.436 93.634 39.556C94.164 39.705 94.5941 39.846 94.9341 39.986C95.2641 40.127 95.5541 40.336 95.7941 40.616C96.0341 40.896 96.1541 41.257 96.1641 41.706C96.1641 42.105 96.054 42.477 95.824 42.797C95.604 43.116 95.2841 43.377 94.8741 43.557C94.4641 43.737 93.983 43.836 93.454 43.836Z" fill="#002C59"/>
<path fill-rule="evenodd" clip-rule="evenodd" d="M99.3829 37.326V41.686C99.3829 42.045 99.4629 42.2961 99.6119 42.4471C99.7619 42.5961 100.032 42.6671 100.412 42.6671H101.312V43.7051H100.202C99.521 43.7051 99.0009 43.5451 98.6609 43.2261C98.3209 42.9161 98.1509 42.396 98.1509 41.675V37.316H97.1909V36.306H98.1509V34.4561H99.3809V36.3151H101.311V37.3251L99.3829 37.326Z" fill="#002C59"/>
<path fill-rule="evenodd" clip-rule="evenodd" d="M118.22 34.3071L115.5 43.7171H114.121L111.932 36.1371L109.662 43.7171L108.302 43.7271L105.672 34.3071H106.982L109.032 42.2871L111.302 34.3071H112.682L114.84 42.2571L116.899 34.3071H118.22Z" fill="#002C59"/>
<path fill-rule="evenodd" clip-rule="evenodd" d="M120.211 35.117C119.981 35.117 119.779 35.037 119.621 34.877C119.461 34.717 119.38 34.516 119.38 34.277C119.38 34.048 119.461 33.847 119.621 33.687C119.779 33.527 119.98 33.447 120.211 33.447C120.44 33.447 120.63 33.527 120.79 33.687C120.939 33.847 121.021 34.047 121.021 34.277C121.021 34.515 120.939 34.707 120.79 34.877C120.621 35.037 120.431 35.117 120.211 35.117ZM120.801 36.317V43.717H119.571V36.317H120.801Z" fill="#002C59"/>
<path fill-rule="evenodd" clip-rule="evenodd" d="M125.51 43.836C124.94 43.836 124.44 43.736 123.99 43.545C123.539 43.356 123.179 43.086 122.92 42.736C122.661 42.386 122.522 41.986 122.49 41.537H123.76C123.801 41.906 123.973 42.206 124.281 42.436C124.589 42.666 125 42.787 125.499 42.787C125.969 42.787 126.339 42.676 126.609 42.476C126.879 42.276 127.009 42.006 127.009 41.695C127.009 41.377 126.868 41.127 126.579 40.976C126.288 40.816 125.838 40.666 125.239 40.506C124.69 40.365 124.239 40.216 123.899 40.066C123.549 39.917 123.249 39.695 123.008 39.406C122.758 39.116 122.639 38.726 122.639 38.256C122.639 37.877 122.749 37.527 122.979 37.217C123.198 36.897 123.52 36.656 123.938 36.467C124.348 36.287 124.829 36.187 125.358 36.187C126.178 36.187 126.837 36.397 127.348 36.807C127.848 37.217 128.119 37.787 128.158 38.507H126.929C126.9 38.116 126.748 37.807 126.459 37.576C126.179 37.336 125.799 37.226 125.318 37.226C124.878 37.226 124.528 37.316 124.27 37.506C124.008 37.696 123.877 37.944 123.877 38.255C123.877 38.495 123.959 38.696 124.117 38.855C124.279 39.015 124.467 39.136 124.709 39.236C124.947 39.327 125.278 39.436 125.697 39.556C126.227 39.705 126.657 39.846 126.997 39.986C127.328 40.127 127.618 40.336 127.857 40.616C128.097 40.896 128.216 41.257 128.227 41.706C128.227 42.105 128.118 42.477 127.887 42.797C127.657 43.116 127.347 43.377 126.937 43.557C126.521 43.746 126.05 43.836 125.51 43.836Z" fill="#002C59"/>
<path fill-rule="evenodd" clip-rule="evenodd" d="M136.699 39.7361C136.699 39.9661 136.689 40.2161 136.658 40.4761H130.74C130.78 41.2051 131.039 41.776 131.49 42.186C131.949 42.596 132.498 42.7961 133.138 42.7961C133.669 42.7961 134.11 42.666 134.468 42.425C134.829 42.175 135.078 41.846 135.219 41.436H136.538C136.339 42.146 135.949 42.7261 135.349 43.1661C134.758 43.6141 134.019 43.8351 133.128 43.8351C132.429 43.8351 131.799 43.6751 131.248 43.3641C130.698 43.0551 130.259 42.6041 129.948 42.0251C129.628 41.4461 129.478 40.7751 129.478 40.0051C129.478 39.2341 129.627 38.5651 129.938 37.9941C130.248 37.4151 130.678 36.974 131.228 36.665C131.778 36.353 132.418 36.1951 133.137 36.1951C133.84 36.1951 134.467 36.3441 134.998 36.6541C135.537 36.9651 135.959 37.384 136.246 37.915C136.549 38.456 136.699 39.0571 136.699 39.7361ZM135.43 39.4771C135.43 39.0071 135.33 38.6081 135.121 38.2661C134.908 37.9261 134.629 37.676 134.279 37.496C133.929 37.326 133.529 37.2361 133.099 37.2361C132.478 37.2361 131.949 37.436 131.509 37.826C131.069 38.217 130.819 38.7761 130.759 39.4761L135.43 39.4771Z" fill="#002C59"/>
<path fill-rule="evenodd" clip-rule="evenodd" d="M139.588 42.0161L138.07 45.6461H137.248L138.23 42.0161H139.588Z" fill="#002C59"/>
<path fill-rule="evenodd" clip-rule="evenodd" d="M151.719 37.037C151.459 36.487 151.078 36.057 150.588 35.758C150.088 35.457 149.519 35.307 148.859 35.307C148.199 35.307 147.61 35.457 147.079 35.758C146.55 36.057 146.14 36.487 145.841 37.046C145.539 37.608 145.391 38.266 145.391 39.007C145.391 39.746 145.539 40.386 145.841 40.947C146.14 41.507 146.562 41.936 147.079 42.236C147.61 42.537 148.199 42.686 148.859 42.686C149.78 42.686 150.53 42.406 151.128 41.857C151.72 41.306 152.069 40.566 152.17 39.627H148.419V38.627H153.479V39.566C153.409 40.336 153.17 41.046 152.75 41.695C152.342 42.336 151.791 42.846 151.121 43.226C150.451 43.595 149.689 43.787 148.86 43.787C147.99 43.787 147.189 43.586 146.469 43.167C145.749 42.757 145.181 42.187 144.759 41.456C144.34 40.727 144.129 39.906 144.129 38.986C144.129 38.066 144.34 37.236 144.759 36.507C145.181 35.778 145.749 35.207 146.469 34.797C147.189 34.387 147.99 34.177 148.86 34.177C149.859 34.177 150.742 34.426 151.511 34.918C152.28 35.418 152.841 36.106 153.189 37.007H151.72V37.037H151.719Z" fill="#002C59"/>
<path fill-rule="evenodd" clip-rule="evenodd" d="M156.329 37.5161C156.537 37.0971 156.849 36.766 157.247 36.537C157.648 36.297 158.138 36.186 158.719 36.186V37.4561H158.4C157.018 37.4561 156.33 38.2061 156.33 39.6951V43.7261H155.099V36.326H156.33V37.5161H156.329Z" fill="#002C59"/>
<path fill-rule="evenodd" clip-rule="evenodd" d="M163.357 43.8361C162.668 43.8361 162.037 43.6761 161.476 43.3651C160.916 43.0561 160.476 42.6051 160.156 42.0261C159.84 41.4471 159.679 40.776 159.679 40.006C159.679 39.245 159.847 38.5851 160.167 37.9951C160.497 37.4161 160.947 36.9751 161.507 36.6661C162.076 36.3541 162.706 36.196 163.405 36.196C164.107 36.196 164.747 36.3541 165.315 36.6661C165.876 36.9761 166.327 37.4161 166.655 37.9951C166.986 38.5651 167.146 39.235 167.146 40.006C167.146 40.765 166.975 41.4461 166.635 42.0261C166.295 42.6061 165.846 43.0561 165.267 43.3651C164.697 43.6761 164.059 43.8361 163.357 43.8361ZM163.357 42.7571C163.796 42.7571 164.217 42.6561 164.596 42.4471C164.987 42.2361 165.296 41.9261 165.536 41.5151C165.778 41.0961 165.897 40.596 165.897 40.006C165.897 39.416 165.778 38.9051 165.545 38.4951C165.315 38.0751 165.006 37.7751 164.625 37.5651C164.244 37.3651 163.837 37.264 163.396 37.264C162.946 37.264 162.535 37.3651 162.154 37.5651C161.786 37.7641 161.485 38.0751 161.255 38.4951C161.035 38.9051 160.915 39.416 160.915 40.006C160.915 40.605 161.024 41.1151 161.244 41.5361C161.465 41.9461 161.766 42.2561 162.125 42.4551C162.508 42.6561 162.917 42.7571 163.357 42.7571Z" fill="#002C59"/>
<path fill-rule="evenodd" clip-rule="evenodd" d="M178.625 36.3169L176.316 43.7169H175.047L173.268 37.8469L171.486 43.7169H170.217L167.898 36.3169H169.146L170.848 42.5259L172.687 36.3169H173.947L175.738 42.5459L177.416 36.3169H178.625Z" fill="#002C59"/>
<path fill-rule="evenodd" clip-rule="evenodd" d="M186.435 43.8069C185.814 43.8069 185.255 43.6979 184.767 43.4769C184.277 43.2559 183.897 42.9479 183.616 42.5569C183.338 42.1669 183.195 41.7169 183.185 41.1979H184.496C184.546 41.6369 184.726 42.0079 185.046 42.3069C185.365 42.6059 185.836 42.757 186.447 42.757C187.035 42.757 187.496 42.606 187.826 42.317C188.154 42.027 188.337 41.647 188.337 41.187C188.337 40.828 188.236 40.5379 188.035 40.3069C187.837 40.0859 187.595 39.907 187.295 39.796C186.996 39.676 186.596 39.5569 186.096 39.4169C185.475 39.2569 184.976 39.086 184.608 38.926C184.227 38.766 183.917 38.5069 183.647 38.1669C183.376 37.8159 183.247 37.3569 183.247 36.7659C183.247 36.2459 183.376 35.7959 183.637 35.4069C183.899 35.0089 184.269 34.7079 184.739 34.4869C185.207 34.2779 185.758 34.1689 186.367 34.1689C187.246 34.1689 187.967 34.3879 188.537 34.8289C189.097 35.2669 189.417 35.8579 189.487 36.5869H188.136C188.085 36.2279 187.906 35.9069 187.568 35.6379C187.238 35.3589 186.797 35.228 186.246 35.228C185.738 35.228 185.316 35.3589 184.988 35.6279C184.657 35.8979 184.498 36.2689 184.498 36.7469C184.498 37.0869 184.598 37.3669 184.789 37.5869C184.977 37.8079 185.219 37.9679 185.508 38.0779C185.789 38.1869 186.188 38.3169 186.697 38.4569C187.316 38.6279 187.816 38.798 188.197 38.968C188.577 39.138 188.897 39.388 189.168 39.739C189.438 40.088 189.568 40.5579 189.568 41.1479C189.568 41.6069 189.448 42.0389 189.197 42.4489C188.959 42.8479 188.596 43.1779 188.119 43.4279C187.645 43.6859 187.075 43.8069 186.435 43.8069Z" fill="#002C59"/>
<path fill-rule="evenodd" clip-rule="evenodd" d="M198.124 39.7361C198.124 39.9661 198.105 40.2161 198.085 40.4761H192.177C192.216 41.2051 192.465 41.776 192.926 42.186C193.375 42.596 193.926 42.7961 194.574 42.7961C195.105 42.7961 195.556 42.666 195.904 42.425C196.254 42.175 196.514 41.846 196.654 41.436H197.974C197.775 42.146 197.385 42.7261 196.785 43.1661C196.194 43.6141 195.457 43.8351 194.574 43.8351C193.875 43.8351 193.244 43.6751 192.695 43.3641C192.144 43.0551 191.705 42.6041 191.396 42.0251C191.085 41.4461 190.925 40.7751 190.925 40.0051C190.925 39.2341 191.074 38.5651 191.386 37.9941C191.695 37.4151 192.116 36.974 192.676 36.665C193.226 36.353 193.864 36.1951 194.583 36.1951C195.284 36.1951 195.903 36.3441 196.444 36.6541C196.983 36.9651 197.403 37.384 197.693 37.915C197.975 38.456 198.124 39.0571 198.124 39.7361ZM196.854 39.4771C196.854 39.0071 196.753 38.6081 196.544 38.2661C196.334 37.9261 196.056 37.676 195.704 37.496C195.345 37.326 194.956 37.2361 194.524 37.2361C193.903 37.2361 193.374 37.436 192.945 37.826C192.505 38.217 192.254 38.7761 192.194 39.4761L196.854 39.4771Z" fill="#002C59"/>
<path fill-rule="evenodd" clip-rule="evenodd" d="M199.285 40.007C199.285 39.236 199.436 38.576 199.744 37.996C200.057 37.426 200.474 36.986 201.023 36.667C201.574 36.347 202.194 36.197 202.896 36.197C203.804 36.197 204.554 36.416 205.144 36.855C205.735 37.295 206.123 37.906 206.313 38.697H204.984C204.853 38.246 204.615 37.886 204.244 37.627C203.873 37.366 203.424 37.236 202.886 37.236C202.186 37.236 201.615 37.476 201.184 37.956C200.754 38.436 200.535 39.116 200.535 39.996C200.535 40.887 200.755 41.577 201.184 42.057C201.616 42.546 202.186 42.787 202.886 42.787C203.424 42.787 203.873 42.656 204.237 42.406C204.594 42.156 204.845 41.796 204.974 41.326H206.294C206.094 42.086 205.704 42.686 205.106 43.136C204.506 43.596 203.766 43.817 202.875 43.817C202.177 43.817 201.558 43.657 201.007 43.346C200.465 43.037 200.035 42.586 199.727 42.016C199.436 41.456 199.285 40.776 199.285 40.007Z" fill="#002C59"/>
<path fill-rule="evenodd" clip-rule="evenodd" d="M214.504 36.3169V43.7169H213.275V42.6158C213.043 42.9958 212.714 43.2869 212.293 43.5059C211.873 43.7169 211.414 43.8259 210.914 43.8259C210.334 43.8259 209.825 43.7049 209.364 43.4669C208.903 43.2269 208.544 42.8659 208.275 42.3969C208.013 41.9169 207.873 41.3359 207.873 40.6569V36.3269H209.084V40.4969C209.084 41.2269 209.266 41.7879 209.634 42.1769C210.005 42.5679 210.505 42.7668 211.145 42.7668C211.803 42.7668 212.325 42.5679 212.694 42.1579C213.075 41.7479 213.266 41.1579 213.266 40.3869V36.3269H214.504V36.3169Z" fill="#002C59"/>
<path fill-rule="evenodd" clip-rule="evenodd" d="M217.803 37.5161C218.024 37.0971 218.324 36.766 218.735 36.537C219.133 36.297 219.624 36.186 220.194 36.186V37.4561H219.874C218.495 37.4561 217.804 38.2061 217.804 39.6951V43.7261H216.575V36.326H217.804V37.5161H217.803Z" fill="#002C59"/>
<path fill-rule="evenodd" clip-rule="evenodd" d="M228.363 39.7361C228.363 39.9661 228.343 40.2161 228.324 40.4761H222.412C222.462 41.2051 222.703 41.776 223.164 42.186C223.614 42.596 224.164 42.7961 224.812 42.7961C225.343 42.7961 225.792 42.666 226.142 42.425C226.493 42.175 226.751 41.846 226.894 41.436H228.212C228.012 42.146 227.621 42.7261 227.021 43.1661C226.433 43.6141 225.692 43.8351 224.812 43.8351C224.114 43.8351 223.482 43.6751 222.933 43.3641C222.384 43.0551 221.943 42.6041 221.632 42.0251C221.323 41.4461 221.163 40.7751 221.163 40.0051C221.163 39.2341 221.311 38.5651 221.622 37.9941C221.933 37.4151 222.352 36.974 222.911 36.665C223.461 36.353 224.102 36.1951 224.823 36.1951C225.52 36.1951 226.141 36.3441 226.68 36.6541C227.222 36.9651 227.641 37.384 227.932 37.915C228.224 38.456 228.363 39.0571 228.363 39.7361ZM227.092 39.4771C227.092 39.0071 226.993 38.6081 226.783 38.2661C226.572 37.9261 226.293 37.676 225.933 37.496C225.581 37.326 225.181 37.2361 224.751 37.2361C224.132 37.2361 223.603 37.436 223.163 37.826C222.723 38.217 222.472 38.7761 222.411 39.4761L227.092 39.4771Z" fill="#002C59"/>
<path fill-rule="evenodd" clip-rule="evenodd" d="M23.998 0C37.258 0 47.997 10.739 47.997 23.998C47.997 37.257 37.258 47.997 23.998 47.997C10.749 47.997 0 37.258 0 23.998C0 10.738 10.749 0 23.998 0ZM23.998 8.39899C32.617 8.39899 39.597 15.379 39.597 23.998C39.597 32.618 32.617 39.597 23.998 39.597C15.379 39.597 8.39899 32.618 8.39899 23.998C8.39899 15.379 15.389 8.39899 23.998 8.39899ZM1.85001 23.998C1.85001 23.168 2.53902 22.488 3.36002 22.488H5.12C5.949 22.488 6.63 23.168 6.63 23.998C6.63 24.828 5.949 25.508 5.12 25.508H3.36002C2.53002 25.508 1.85001 24.827 1.85001 23.998ZM43.037 25.508H42.876C42.046 25.508 41.366 24.827 41.366 23.998C41.366 23.169 42.046 22.488 42.876 22.488H43.037H44.647H44.807C45.637 22.488 46.317 23.168 46.317 23.998C46.317 24.828 45.637 25.508 44.807 25.508H44.647H43.037ZM43.187 12.919C43.607 13.639 43.347 14.569 42.637 14.989L41.117 15.869C40.397 16.279 39.467 16.039 39.047 15.309C38.627 14.589 38.877 13.66 39.597 13.24L41.117 12.36C41.837 11.948 42.767 12.198 43.187 12.919ZM35.078 4.80902C35.798 5.22902 36.048 6.15997 35.628 6.87897L34.748 8.409C34.338 9.129 33.398 9.37898 32.678 8.95898C31.959 8.53898 31.708 7.60898 32.129 6.88898L33.008 5.36902C33.427 4.63902 34.357 4.40002 35.078 4.80902ZM23.998 1.83899C24.828 1.83899 25.519 2.51998 25.519 3.34998V5.10901C25.519 5.93901 24.838 6.61902 23.998 6.61902C23.168 6.61902 22.489 5.93901 22.489 5.10901V3.35901C22.489 2.52901 23.168 1.83899 23.998 1.83899ZM12.919 4.80902C13.639 4.39002 14.569 4.64901 14.989 5.35901L15.868 6.87897C16.278 7.59897 16.038 8.52897 15.308 8.94897C14.588 9.36797 13.659 9.11899 13.239 8.39899L12.359 6.87897C11.949 6.15897 12.199 5.22902 12.919 4.80902ZM4.81 12.919C5.229 12.199 6.16 11.949 6.879 12.359L8.39899 13.239C9.11899 13.649 9.37001 14.588 8.94901 15.308C8.52901 16.028 7.599 16.278 6.879 15.858L5.36002 14.978C4.64902 14.568 4.4 13.638 4.81 12.919Z" fill="#002C59"/>
</svg>
