<?xml version="1.0" encoding="utf-8"?>
<!-- Generator: Adobe Illustrator 16.0.0, SVG Export Plug-In . SVG Version: 6.00 Build 0)  -->
<!DOCTYPE svg PUBLIC "-//W3C//DTD SVG 1.1//EN" "http://www.w3.org/Graphics/SVG/1.1/DTD/svg11.dtd">
<svg version="1.1" id="Layer_1" xmlns="http://www.w3.org/2000/svg" xmlns:xlink="http://www.w3.org/1999/xlink" x="0px" y="0px"
	 width="900px" height="580px" viewBox="0 0 900 580" enable-background="new 0 0 900 580" xml:space="preserve">
<g>
	<path fill-rule="evenodd" clip-rule="evenodd" fill="#EF4822" d="M412.293,223.057c0.322,2.85,1.698,3.281,3.894,1.649
		c0.673-0.499,1.291-1.028,2.197-0.938c10.228,1.368,20.508,0.679,30.762,0.688c72.45,0.064,144.9,0.034,217.351,0.035
		c8.633,0.001,8.949,0.145,8.731,8.85c-0.428,17.114,2.147,33.6,9.631,49.134c1.579,3.276,0.569,5.967-1.417,8.634
		c-7.354,9.881-15.205,19.371-22.792,29.068c-1.031,1.317-2.108,2.599-2.943,4.06c-0.727,1.273-0.641,2.545,0.084,3.744
		c0.793,1.313,2.087,1.451,3.471,1.256c1.554-0.219,3.003-0.781,4.458-1.326c11.2-4.19,22.311-8.616,33.218-13.51
		c4.177-1.873,7.352-1.475,10.646,1.723c7.528,7.304,16.225,13.003,25.708,17.438c13.497,6.313,27.777,9.438,42.633,10.067
		c16.031,0.678,31.732-0.953,46.996-6.211c19.943-6.869,35.893-19.139,48.982-35.463c2.102-2.622,3.197-6.236,6.824-7.496
		c2.67,1.975,1.684,5.202,2.672,7.757c0.207,1.55,0.125,3.106,0.127,4.659c0.004,84.558,0.004,169.114,0.002,253.672
		c0,9.965-0.396,10.369-10.219,10.37c-34.803,0.003-69.605,0.002-104.41-0.002c-1.793,0-3.594,0.095-5.373-0.17
		c-1.594-0.237-3.209-0.653-3.275-2.655c-0.068-2.063,1.393-2.916,3.172-3.267c2.246-0.443,4.529-0.293,6.797-0.242
		c8.422,0.189,8.443,0.201,8.625-8.178c0.086-3.947,0.707-7.86,0.691-11.813c-0.025-6.262-1.07-7.384-7.256-7.39
		c-30.857-0.03-61.715-0.01-92.571-0.014c-1.555,0-3.11,0.019-4.664-0.013c-5.417-0.109-5.939-0.577-6.808-6.041
		c-0.582-3.659-2.414-5.287-6.395-5.376c-6.695-0.15-13.395,0.019-20.092-0.078c-5.178-0.074-5.889-0.767-6.529-5.932
		c-0.957-7.71-1.062-15.485-1.785-23.217c-0.344-3.669,1.077-5.028,5.193-5.124c8.13-0.188,16.264-0.047,24.396-0.068
		c6.697-0.019,13.396,0.072,20.093-0.038c6.777-0.111,9.408-2.329,10.194-8.978c2.865-24.207,5.76-48.411,8.719-72.607
		c2.423-19.81,4.75-39.632,7.416-59.406c0.639-4.729-0.484-8.122-3.847-11.104c-0.135-0.217,0.191-0.627-0.471-0.622
		c-62.071,0.408-124.142,0.086-186.214,0.187c-6.219,0.01-12.438,0.047-18.657-0.03c-0.688-0.008-1.442-0.277-1.995,0.417
		c-5.079,2.321-6.418,6.557-7.066,11.807c-5.331,43.157-10.563,86.327-15.939,129.479c-0.808,6.482,0.73,8.325,7.124,9.554
		c4.031,0.775,8.093,0.579,12.141,0.821c1.374,0.083,3.517-0.458,3.479,2.158c-1.028,0.181-2.077,0.123-3.118,0.156
		c-0.467,0.15,0.159,0.617-0.034,0.18c-0.068-0.157,0.017-0.237,0.256-0.25c29.059-1.503,58.139-0.257,87.205-0.711
		c2.138-0.034,3.816,0.709,5.486,1.796c1.103,0.796,1.245,2.007,1.31,3.199c0.386,7.155,0.937,14.298,1.435,21.444
		c0.393,5.63-0.803,6.8-6.436,6.814c-17.454,0.049-34.907,0.015-52.362,0.021c-1.554,0-3.108-0.035-4.66,0.065
		c-4.142,0.27-6.034,1.581-6.509,5.712c-0.647,5.618-2.82,5.697-7.192,5.699c-32.636,0.01-65.272,0.018-97.909-0.008
		c-5.871-0.004-6.537-0.479-7.244-6.392c-2.044-17.081-3.701-34.205-5.422-51.321c-1.911-19.009-3.152-38.109-8.665-56.598
		c-3.295-11.05-9.04-20.487-17.037-28.659c-2.788-2.848-3.322-4.283-1.151-7.556c11.264-16.97,13.202-36.322,14.727-55.839
		c1.051-13.454,2.259-26.897,3.641-40.324c0.215-2.082,1.056-3.91,2.111-5.662c7.016-11.651,9.068-24.016,5.328-37.201
		c-0.626-2.209-0.502-4.212,1.025-6.067c4.063-4.936,7.67-10.106,8.289-16.763C411.14,224.004,411.55,223.361,412.293,223.057z"/>
	<path fill-rule="evenodd" clip-rule="evenodd" fill="#1A1910" d="M893.898,208.721c-8.734-34.019-29.605-57.81-62.518-70.556
		c-23.324-9.028-47.477-10.083-71.797-5.583c-27.216,5.045-49.371,18.782-66.086,40.987c-7.809,10.378-12.768,22.141-16.507,34.478
		c-1.342,1.959-1.242,4.328-1.759,6.51c-1.041,4.356-0.926,4.378-5.497,4.378c-78.206,0-156.413,0-234.62,0.028
		c-1.385,0-2.862-0.459-4.176,0.431c-2.729,0.115-5.462,0.165-8.183,0.366c-2.454,0.18-4.479,0.969-4.37,4.005
		c1.751,2.476,4.393,2.023,6.86,2.031c59.311,0.021,118.62,0.043,177.938,0.05c22.478,0,44.962,0.021,67.44-0.101
		c2.67-0.021,3.574,0.589,3.373,3.33c-0.258,3.574-0.129,7.177-0.057,10.758c0.279,14.706,2.921,28.916,9.466,42.172
		c1.557,3.158,1.435,5.383-0.718,8.089c-8.49,10.635-16.771,21.444-25.248,32.094c-1.859,2.339-2.634,4.507-0.789,7.062
		c1.814,2.519,4.147,1.657,6.459,0.861c12.933-4.442,25.484-9.839,38.029-15.244c2.455-1.062,4.099-1.069,6.237,0.977
		c19.88,18.962,43.901,27.961,71.108,29.103c21.832,0.911,42.746-2.634,62.203-13.026c16.592-8.856,29.561-21.638,39.975-37.147
		c0.609-0.129,1.041-0.488,1.307-1.048c0.158,0.517,0.027,1.063,0.014,1.572c-0.057,2.182,0.811,4.335,0.201,6.523
		c-0.029,1.191-0.086,2.39-0.086,3.581c-0.008,86.718-0.021,173.43,0.043,260.141c0,2.885-0.617,3.954-3.74,3.947
		c-38.273-0.086-76.549-0.029-114.814-0.051c-0.984,0-2.662,0.739-2.549-1.399c0.094-1.815,1.264-1.923,2.764-1.873
		c3.826,0.129,7.658,0.158,11.482,0.101c4.25-0.064,5.074-0.939,5.146-5.066c0.1-6.101,0.223-12.194,0.316-18.294
		c0.086-5.728-1.35-7.177-7.127-7.177c-33.366,0-66.73-0.029-100.097,0.057c-2.777,0.008-4.04-0.395-3.89-3.617
		c0.244-5.304-2.526-7.845-7.852-7.858c-7.414-0.021-14.828-0.086-22.24,0.021c-2.111,0.029-2.821-0.488-2.95-2.756
		c-0.496-8.706-1.221-17.396-2.01-26.081c-0.208-2.311,0.358-3.05,2.777-3.035c15.071,0.086,30.136-0.022,45.207,0.014
		c9.021,0.021,11.354-2.311,12.309-11.439c1.364-13.048,3.058-26.06,4.636-39.085c2.017-16.693,4.048-33.395,6.086-50.088
		c1.767-14.447,3.467-28.901,5.34-43.334c0.711-5.433-0.523-7.995-5.533-10.005c-1.069-0.825-2.311-0.43-3.467-0.43
		c-66.723-0.022-133.454-0.022-200.177,0c-1.156,0-2.397-0.374-3.474,0.408c-5.993,1.586-7.407,3.452-8.023,9.631
		c-0.661,6.646-1.565,13.271-2.391,19.896c-2.06,16.571-4.134,33.136-6.208,49.706c-1.593,12.775-3.229,25.55-4.787,38.332
		c-1.098,9-2.239,17.993-3.064,27.014c-0.416,4.615,1.249,6.345,5.713,7.622c6.165,1.766,12.56,1.026,18.796,1.938
		c1.191,0.861,2.555,0.424,3.826,0.424c26.906,0.028,53.812,0.015,80.718,0.043c1.485,0,3.158-0.524,4.356,0.94
		c1.307,8.741,1.141,17.598,2.117,26.36c0.33,3.007-0.409,4.041-3.754,4.005c-19.24-0.193-38.489-0.114-57.738-0.101
		c-6.337,0-8.647,2.175-8.799,8.504c-0.042,2.054-0.409,2.965-2.741,2.957c-34.542-0.058-69.085-0.05-103.634,0.008
		c-2.203,0.007-2.764-0.797-2.906-2.893c-0.338-4.751-1.034-9.48-1.521-14.225c-1.63-15.774-3.18-31.563-4.859-47.331
		c-1.535-14.447-2.749-28.938-6.337-43.104c-3.523-13.924-9.345-26.461-20.375-36.078c-1.766-1.536-1.077-2.713-0.094-4.285
		c6.338-10.062,10.874-20.813,12.688-32.676c1.429-9.33,2.133-18.718,2.979-28.098c1.084-11.999,2.225-24,3.23-36.006
		c0.144-1.722,0.48-3.194,1.428-4.665c8.146-12.668,10.162-26.253,5.705-40.672c-0.502-1.629,0.18-2.297,1.027-3.322
		c4.664-5.648,9.042-11.448,8.654-19.371c-0.416-1.729-0.609-3.553-1.277-5.182c-2.066-4.98-6.272-5.727-10.112-1.952
		c-0.674,0.661-1.041,1.816-2.339,1.923c-0.158-1.643,1.098-2.246,1.693-3.201c1.988-3.187,3.517-6.452,3.201-10.356
		c-0.259-3.208-1.594-4.543-4.622-3.531c-10.457,3.481-20.548,1.629-30.329-2.196c-24.754-9.703-50.217-13.665-76.664-10.091
		c-11.985,1.615-22.277,6.61-29.756,16.471c-1.801,2.375-3.458,4.313-6.824,4.88c-6.043,1.005-10.629,5.046-15.216,8.843
		c-1.392,0.53-2.842,0.266-4.255,0.266c-74.704,0.014-149.408,0.007-224.105,0.035c-1.393,0-2.863-0.466-4.178,0.438
		c-1.492,0.617-2.877,1.378-3.847,2.735c-1.421,1.485-1.04,3.351-1.04,5.116c-0.015,114.22-0.008,228.44-0.008,342.66
		c0,0.955,0,1.909,0.008,2.871c0.007,0.797,0.401,1.349,1.069,1.729c1.241,1.335,3.028,0.854,4.514,1.371
		c1.063,0.854,2.304,0.431,3.46,0.431c11.59,0.058,23.174,0.021,34.764,0.015c73.887-0.044,147.772-0.008,221.659-0.051
		c47.417-0.021,94.835-0.028,142.26,0.058c24.854,0.036,49.707-0.015,74.56,0.007c24.251,0.014,48.495-0.021,72.738-0.007
		c45.035,0.021,90.07-0.007,135.105,0c53.08,0.007,106.168-0.007,159.248,0.028c2.863,0,5.713-0.531,8.576-0.165
		c1.291-0.309,2.611-0.193,3.918-0.215c7.508-0.101,15.014,0.201,22.514-0.158c1.229-0.474,1.586-1.579,1.924-2.691
		c0.043-96.3,0.008-192.605,0-288.905c0-2.275,0.094-4.528,0.539-6.761C898.176,255.019,899.861,231.953,893.898,208.721z
		 M870.086,297.9c-16.752,22.256-39.166,35.39-66.854,39.229c-23.928,3.315-47.037,0.854-68.912-10.034
		c-9.51-4.729-17.684-11.268-25.141-18.695c-2.269-2.261-3.99-2.318-6.818-0.969c-11.131,5.304-22.507,10.091-34.162,14.174
		c-0.66,0.237-1.307,0.61-2.297,0.094c5.333-6.761,10.658-13.456,15.926-20.196c3.158-4.04,6.201-8.167,9.366-12.2
		c1.593-2.031,1.579-3.868,0.33-6.172c-27.401-50.684-6.216-126.536,65.634-143.165c25.514-5.907,51.033-4.672,75.334,5.863
		c31.111,13.493,49.908,37.327,56.16,70.649C894.221,246.199,888.336,273.636,870.086,297.9z"/>
	<path fill-rule="evenodd" clip-rule="evenodd" fill="#18170F" d="M342.434,107.958c-4.342-0.136-8.749,0.875-13.026-0.603
		c-0.366-1.529-0.251-3.086-0.251-4.629c-0.007-28.988,0-57.968-0.021-86.955c0-1.285,0.352-2.627-0.359-3.854
		c-1.535-2.72-3.688-3.789-6.976-3.731c-12.545,0.201-25.097,0.165-37.643,0.021c-3.373-0.036-5.505,1.177-7.363,3.962
		c-21.144,31.679-42.372,63.3-63.623,94.907c-1.185,1.766-1.845,3.531-1.845,5.648c0.029,9.438-0.05,18.882,0,28.32
		c0.021,4.722,1.277,5.942,5.929,5.949c15.774,0.029,31.55-0.043,47.316,0.065c6.158,0.043,12.331-0.51,18.474,0.395
		c0.208,1.414,0.158,2.828,0.187,4.249c0.13,6.251-0.286,12.509,0.223,18.761c0.043,1.794,0.122,3.581,0.129,5.375
		c0.029,4.93,1.249,6.208,6.036,6.208c10.88,0,21.761,0.007,32.64-0.015c5.333-0.014,6.46-1.334,6.359-6.588
		c-0.173-8.476-0.108-16.966-0.287-25.442c-0.05-2.426,0.904-3.072,3.165-2.993c4.063,0.144,8.131,0.094,12.193,0.043
		c4.155-0.05,5.62-1.479,5.685-5.598c0.122-8.72,0.193-17.447,0.236-26.174C349.646,109.006,348.627,108.166,342.434,107.958z
		 M281.832,108.001c-5.139-0.079-10.27-0.086-15.409,0c-1.858,0.036-2.274-0.976-1.485-2.189c5.893-9.1,11.907-18.129,17.878-27.186
		c0.259,0.122,0.517,0.237,0.774,0.359c0,9.028-0.014,18.064,0.022,27.1C283.619,107.391,283.324,108.022,281.832,108.001z"/>
	<path fill-rule="evenodd" clip-rule="evenodd" fill="#191810" d="M663.864,108.008c-3.223,0.05-6.452,0.007-9.682,0
		c-5.347-0.007-5.347-0.007-5.339-5.181c0.007-29.404,0.021-58.808,0.021-88.219c0-5.053-1.298-6.337-6.344-6.344
		c-11.72-0.007-23.454,0.459-35.138-0.179c-7.12-0.388-11.081,2.117-14.95,8.038c-19.722,30.193-39.938,60.063-60.042,90.012
		c-1.456,2.167-2.268,4.299-2.225,6.947c0.13,9.086,0.043,18.172,0.13,27.25c0.05,5.655,1.134,6.725,6.695,6.732
		c13.501,0.022,27.015-0.115,40.514,0.029c8.584,0.086,17.182-0.538,25.751,0.337c0.137,7.708-0.029,15.409,0.093,23.117
		c0.044,2.813-0.517,5.663,0.366,8.44c1.185,1.909,2.613,3.122,5.132,3.101c11.713-0.108,23.433-0.029,35.145-0.065
		c3.13-0.007,5.067-1.902,4.716-4.866c-1.084-9.043-0.108-18.115-0.561-27.15c-0.129-2.62,1.048-3,3.137-2.979
		c4.185,0.058,8.368,0,12.553,0.014c2.842,0.015,4.658-1.285,4.715-4.191c0.201-10.034,0.359-20.074,0.359-30.115
		C668.91,109.666,667.123,107.951,663.864,108.008z M603.65,105.518c0.015,1.83-0.48,2.526-2.419,2.49
		c-6.172-0.115-12.352-0.043-19.19-0.043c6.187-9.911,12.409-18.889,18.725-27.811c0.531-0.746,1.091-1.737,2.26-1.22
		c1.013,0.445,0.567,1.479,0.575,2.239C603.629,89.291,603.572,97.408,603.65,105.518z"/>
	<path fill-rule="evenodd" clip-rule="evenodd" fill="#191810" d="M501.035,50.421C489.431,15.958,461.197-1.31,425.377,4.79
		c-21.768,3.71-36.344,17.333-46.098,36.473c-7.068,13.873-9.933,28.88-11.174,44.31c-1.515,18.911,0.294,37.384,6.646,55.298
		c11.404,32.181,40.693,49.556,74.346,43.808c23.274-3.969,39.429-17.383,49.111-38.77c7.313-16.155,9.538-33.286,9.581-50.827
		C507.839,79.846,505.916,64.904,501.035,50.421z M456.61,127.256c-1.542,3.768-3.416,7.342-6.222,10.328
		c-7.68,8.203-18.617,7.722-25.772-1.048c-5.053-6.194-7.68-13.485-8.741-21.186c-2.153-15.717-1.988-31.449,2.009-46.916
		c1.343-5.196,3.682-10.033,7.321-14.124c8.619-9.696,21.415-8.598,28.141,2.569c4.901,8.131,6.638,17.26,7.449,26.562
		c0.345,3.912,0.058,7.88,0.058,11.821C460.881,106.092,460.823,116.979,456.61,127.256z"/>
	<path fill-rule="evenodd" clip-rule="evenodd" fill="#FDFDF4" d="M676.988,208.046c-0.575,3.157-1.169,6.312-1.72,9.474
		c-0.296,1.698-1.169,2.142-2.934,2.14c-71.264-0.087-142.526-0.1-213.79-0.138c-9.201-0.004-18.404-0.084-27.605-0.128
		c-2.85,0-5.699,0-8.549,0c-0.004-0.269-0.008-0.536-0.014-0.805c1.308,0,2.614,0,3.921,0c81.293,0.005,162.586-0.01,243.88,0.085
		c3.095,0.002,4.241-1.061,4.6-3.938c0.291-2.326,1.035-4.596,1.594-6.888c0.009-0.034,0.229-0.049,0.333-0.015
		C676.811,207.867,676.895,207.972,676.988,208.046z"/>
	<path fill-rule="evenodd" clip-rule="evenodd" fill="#FDFCF4" d="M329.408,107.356c-1.216-1.059-0.559-2.461-0.562-3.673
		c-0.056-30.588-0.057-61.178-0.068-91.767c1.469,0.836,0.69,2.229,0.692,3.318c0.052,29.034,0.1,58.068-0.033,87.102
		c-0.016,3.461,0.956,4.643,4.404,4.366c3.496-0.28,7.031-0.063,10.547,0.653C339.395,107.356,334.401,107.356,329.408,107.356z"/>
	<path fill-rule="evenodd" clip-rule="evenodd" fill="#FDFCF1" d="M603.257,147.43c0.892,5.399,0.209,10.834,0.358,16.251
		c0.141,5.099,0.076,10.203,0.102,15.306c-1.472-0.633-0.71-1.923-0.719-2.867c-0.072-7.999-0.206-16.003,0.036-23.995
		c0.1-3.287-1.038-3.967-4.089-3.949c-20.654,0.119-41.309,0.061-61.964,0.051c-0.929-0.001-1.857-0.091-2.773-0.587
		c1.173,0,2.346,0,3.519,0c20.535-0.001,41.071,0.001,61.606-0.013C600.641,147.627,601.948,147.5,603.257,147.43z"/>
	<path fill-rule="evenodd" clip-rule="evenodd" fill="#FDFDF3" d="M283.042,147.455c1.13,4.179,0.317,8.437,0.478,12.655
		c0.131,3.446-0.033,6.902-0.067,10.354c-1.277-5.531-0.375-11.138-0.545-16.708c-0.187-6.158,0.526-5.518-5.64-5.52
		c-19.83-0.005-39.66,0.001-59.491,0.002c-0.938,0-1.876,0-3.379,0c1.574-0.934,2.717-0.592,3.788-0.592
		c20.188-0.021,40.377-0.006,60.566-0.014C280.182,147.632,281.611,147.517,283.042,147.455z"/>
	<path fill-rule="evenodd" clip-rule="evenodd" fill="#FEDF74" d="M705.401,338.523c-31.056,0.002-62.111,0.01-93.167,0.007
		c-37.984-0.005-75.968-0.02-113.95-0.029c-0.436-0.111-0.87-0.222-1.306-0.333c0.005-0.152,0.01-0.305,0.016-0.457
		c5.396,0,10.792,0,16.188,0c63.144,0.003,126.286,0.006,189.429,0.01c1.077,0,2.152,0.018,3.229,0.04
		c0.081,0.002,0.16,0.106,0.239,0.163C705.853,338.123,705.627,338.323,705.401,338.523z"/>
	<path fill-rule="evenodd" clip-rule="evenodd" fill="#FEDF70" d="M498.324,492.638c28.925-0.017,57.85-0.037,86.773-0.043
		c0.992-0.001,2.34-0.383,2.127,1.447c-0.099,0.688-0.197,1.376-0.296,2.063c-0.06-3.101-2.247-2.684-4.23-2.684
		c-29.493,0.008-58.986,0.001-88.479-0.002c-0.707,0-1.414,0-2.122,0c-0.008-0.148-0.016-0.296-0.023-0.444
		C494.156,492.863,496.241,492.75,498.324,492.638z"/>
	<path fill-rule="evenodd" clip-rule="evenodd" fill="#F9F1DE" d="M880.664,294.768c0.582-1.081,1.164-2.162,1.746-3.242
		c0.059,3.501,1.451,6.959-0.227,10.293C881.463,299.515,881.803,296.981,880.664,294.768z"/>
	<path fill-rule="evenodd" clip-rule="evenodd" fill="#EF4822" d="M10.656,226.341c1.179-0.904,2.546-0.438,3.809-0.439
		c72.478-0.051,144.955-0.068,217.433-0.083c0.231,0,0.464,0.087,0.705,0.134c0.662,1.149-0.373,1.771-0.864,2.471
		c-9.166,13.058-11.313,27.568-8.831,42.99c0.698,4.34,1.795,8.615,2.689,12.924c0.171,0.824,1.08,1.729-0.368,2.392
		c-8.362,3.815-10.344,11.552-11.084,19.483c-0.96,10.298,2.188,19.506,9.354,27.228c4.098,4.416,9.292,6.545,14.977,7.771
		c1.16,0.25,2.348,0.299,3.534,1.176c-3.432,4.572-6.461,9.399-8.672,14.69c-0.666,1.59-2.271,1.602-3.541,2.104
		c-18.871,7.482-37.239,15.947-53.376,28.492c-15.604,12.131-24.329,28.74-29.765,47.311c-1.469,5.019-2.599,10.147-3.639,15.275
		c-0.32,1.579-0.749,2.111-2.379,2.363c-4.933,0.764-9.973,0.926-14.758,2.595c-8.404,2.933-12.902,8.792-13.05,17.629
		c-0.239,14.474,0.712,28.923,1.085,43.385c0.147,5.736,0.186,11.479,0.498,17.208c0.139,2.552-1.361,2.289-2.938,2.289
		c-12.317,0-24.634,0.012-36.951,0.004c-4.91-0.004-6.897,1.903-6.938,6.907c-0.05,6.219-0.043,12.438,0.005,18.657
		c0.029,3.821,1.144,4.926,4.923,4.947c3.347,0.02,6.696-0.025,10.042-0.125c1.42-0.042,1.965,0.684,1.996,1.918
		c0.033,1.333-0.925,1.444-1.961,1.442c-23.68-0.037-47.357-0.065-71.037-0.118c-0.298-0.001-0.596-0.313-0.895-0.479
		c0.152-0.533,1.156-0.62,1.053-0.626c-1.89-0.104-0.98-1.554-1.173-2.381c-0.158-0.682-0.032-1.428-0.032-2.145
		c0-110.716-0.004-221.432,0.007-332.146c0-5.305-0.599-4.733,4.829-4.746c10.346-0.024,20.691-0.005,31.039-0.013
		c-10.761-0.001-21.521,0.013-32.282-0.024C12.953,226.798,11.701,227.232,10.656,226.341z"/>
	<path fill-rule="evenodd" clip-rule="evenodd" fill="#F2DBB0" d="M306.586,432.481c0.062,1.131,0.141,2.322,1.778,1.871
		c6.626-1.828,13.522-2.749,19.841-5.6c6.908-3.117,12.937-7.237,14.893-15.206c0.328-1.338,1.318-1.273,2.123-1.505
		c9.405-2.705,17.293-7.894,24.071-14.813c1.535-1.567,2.328-1.104,3.716,0.098c9.877,8.549,15.155,19.651,18.242,32.064
		c3.641,14.643,4.961,29.606,6.479,44.553c1.277,12.576,2.657,25.144,4.044,37.708c0.799,7.227,1.634,14.449,2.603,21.653
		c0.271,2.013-0.357,2.474-2.232,2.462c-10.046-0.061-20.092-0.057-30.138,0.011c-2.086,0.015-3.097-0.581-3.001-2.851
		c0.299-7.045,0.524-14.094,0.675-21.144c0.033-1.54,0.935-2.404,1.866-3.287c8.056-7.625,12.567-17.194,15.218-27.766
		c0.259-1.028,1.061-2.642-0.498-3.103c-1.512-0.447-1.701,1.345-2.184,2.315c-2.962,5.966-5.554,12.122-9.39,17.626
		c-1.084,1.557-2.207,3.049-4.321,4.74c1.389-9.623,2.548-18.617,4.01-27.563c2.177-13.328,3.64-26.714,3.91-40.221
		c0.022-1.15,0.38-2.988-0.927-3.107c-1.419-0.129-1.71,1.679-1.917,2.983c-2.874,18.105-5.621,36.232-8.651,54.312
		c-2.436,14.532-3.482,29.154-3.49,43.857c-0.002,2.905-1.188,3.227-3.649,3.224c-46.521-0.067-93.041-0.055-139.561-0.057
		c-4.664,0-9.329-0.061-13.99,0.041c-1.725,0.037-2.258-0.519-2.221-2.241c0.259-11.953,1.58-23.827,2.385-35.736
		c0.486-7.197,3.493-12.488,7.849-18.007c7.112-9.013,10.99-19.646,11.335-31.33c0.015-0.472-0.091-0.948-0.171-1.418
		c-0.009-0.05-0.213-0.066-0.931-0.272c-4.288,10.756-7.376,22.259-15.563,31.782c0.957-10.557,1.639-20.628,1.617-30.747
		c-0.031-15.317-4.184-29.115-14.24-40.888c-2.358-2.761-5.176-4.944-8.675-6.101c-0.849-0.28-1.887-1.127-2.619-0.105
		c-0.913,1.274,0.417,2.033,1.17,2.568c10.439,7.411,14.484,18.602,17.572,30.196c2.327,8.735,2.258,17.775,1.499,26.721
		c-2.069,24.368-5.936,48.585-6.127,73.105c-0.018,2.2-0.877,2.473-2.721,2.467c-18.416-0.06-36.832-0.098-55.248,0
		c-2.391,0.013-2.648-0.732-2.52-2.862c0.769-12.756,2.278-25.436,3.568-38.141c1.613-15.889,3.816-31.686,7.34-47.264
		c4.066-17.981,10.659-34.791,23.547-48.527c8.785-9.362,19.623-15.818,30.799-21.781c8.282-4.419,16.777-8.396,25.385-12.146
		c2.74-1.193,3.309-0.869,3.464,2.348c0.937,19.261,8.085,35.305,24.979,45.946c3.204,2.019,3.257,1.934,6.777,1.855
		c-1.65-2.349-3.65-3.937-5.591-5.54c-11.463-9.478-18.559-21.568-21.42-36.102c-1.404-7.135,0.537-19.211,7.49-24.761
		c1.936,14.159,7.618,26.669,15.837,38.111c7.622,10.612,17.535,18.859,27.74,26.79c4.12,3.203,7.752,6.529,8.124,12.299
		c0.167,2.575,0.496,13.465,0.052,16.818c-1.27,9.575-2.615,19.147-3.529,28.76c-0.836,8.796-3.128,17.338-4.086,26.099
		c-0.298,2.728-0.681,5.452-0.816,8.188c-0.06,1.214-0.211,3.049,1.434,3.217c1.282,0.13,1.718-1.414,1.938-2.619
		c0.943-5.15,1.879-10.304,2.81-15.456c2.817-15.611,3.365-31.531,6.384-47.11c0.84-4.333,2.427-8.379,5.787-11.486L306.586,432.481
		z"/>
	<path fill-rule="evenodd" clip-rule="evenodd" fill="#4C544F" d="M608.406,344.818c30.727-0.005,61.453-0.013,92.18,0.002
		c4.987,0.002,4.953,0.042,4.366,4.891c-2.932,24.25-5.829,48.504-8.767,72.754c-2.366,19.524-4.767,39.045-7.167,58.565
		c-0.696,5.66-0.898,5.823-6.636,5.825c-14.825,0.007-29.651-0.068-44.477,0.064c-3.036,0.026-4.005-0.785-4.232-3.973
		c-1.242-17.365-2.743-34.713-4.271-52.056c-0.454-5.146-3.383-7.742-8.512-7.775c-10.282-0.065-20.564-0.041-30.847-0.002
		c-4.614,0.018-7.076,2.063-7.76,6.72c-1.089,7.424-2.031,14.87-2.939,22.319c-1.283,10.526-2.474,21.065-3.719,31.597
		c-0.27,2.279-1.398,3.104-3.869,3.039c-8.276-0.217-16.576,0.177-24.839-0.223c-11.793-0.57-23.56,0.839-35.36,0.002
		c-4.591-0.326-9.261,0.018-13.9-0.082c-2.229-0.048-2.605-0.793-2.361-2.683c0.839-6.502,1.643-13.01,2.414-19.521
		c1.361-11.477,2.682-22.958,4.033-34.435c1.533-13.021,3.095-26.038,4.623-39.06c1.347-11.483,2.66-22.972,4.001-34.457
		c0.152-1.3,0.391-2.591,0.583-3.887c1.122-7.576,1.122-7.611,8.861-7.615C549.344,344.814,578.875,344.824,608.406,344.818z"/>
	<path fill-rule="evenodd" clip-rule="evenodd" fill="#D87F3D" d="M372.692,370.237c-0.765-13.728-7.736-21.801-19.489-26.188
		c7.577-8.001,8.395-15.361,2.859-25.021c-0.77-1.345-1.517-2.721-2.439-3.958c-2.971-3.981-4.103-8.27-2.506-13.111
		c0.456-1.381,1.002-3.048-0.926-3.565c-1.724-0.465-2.522,1.139-3.049,2.452c-2.212,5.507-1.461,10.705,1.728,15.667
		c2.185,3.397,4.561,6.688,5.404,10.808c0.595,2.911,0.445,5.71-0.473,8.467c-1.188,3.563-4.244,5.701-8.014,5.268
		c-6.595-0.758-13.388-0.882-19.176-4.879c-0.588-0.405-1.279-0.866-1.95-0.284c-0.874,0.758-0.681,1.813-0.219,2.643
		c1.575,2.835-0.021,3.101-2.364,3.548c-15.976,3.049-26.913,11.967-31.767,28.014c-16.747-10.478-27.656-24.702-30.465-44.557
		c-1.421-10.041,0.167-20.031,0.098-30.026c-0.065-9.488,3.295-16.098,10.131-22.768c11.914-11.628,14.795-26.479,10.004-43.168
		c8.416,3.801,16.613,6.835,24.979,9.417c22.538,6.954,45.596,10.154,69.164,9.651c2.612-0.055,5.317-0.22,7.795-0.955
		c3.104-0.922,4.114,0.513,4.768,3.039c1.589,6.141,2.279,12.415,3.059,18.694c1.773,14.287-0.345,28.336-2.049,42.445
		c-1.401,11.601-2.404,23.255-5.188,34.637C380.625,354.615,377.608,362.331,372.692,370.237z"/>
	<path fill-rule="evenodd" clip-rule="evenodd" fill="#C3712C" d="M447.279,542.177c15.41-0.059,30.821-0.159,46.232-0.166
		c61.568-0.03,123.137-0.036,184.705-0.04c29.284-0.002,58.568,0.005,87.852,0.046c8.428,0.013,8.426,0.075,8.338,8.55
		c-0.023,2.271-0.143,4.55-0.02,6.814c0.148,2.763-0.857,3.635-3.74,3.621c-24.871-0.117-49.742-0.055-74.613-0.054
		c-96.019,0.002-192.036,0.001-288.054,0.001c-56.917,0-113.834-0.027-170.752,0.067c-3.076,0.005-4.253-0.599-3.987-3.887
		c0.315-3.921,0.243-7.897-0.002-11.829c-0.171-2.741,0.763-3.418,3.411-3.396c15.539,0.132,31.08,0.098,46.621,0.103
		c22.597,0.007,45.193-0.004,67.79,0.008c0.948,0.001,1.897,0.146,2.847,0.225c0.985,0.646,2.093,0.36,3.145,0.361
		c29.04,0.016,58.081,0.018,87.122-0.004C445.21,542.597,446.334,542.961,447.279,542.177z"/>
	<path fill-rule="evenodd" clip-rule="evenodd" fill="#4D554F" d="M613.093,524.313c-4.781,0-9.567-0.117-14.343,0.047
		c-2.564,0.089-3.533-0.683-3.73-3.375c-1.405-19.259-2.855-38.513-4.863-57.724c-1.029-9.84-1.647-19.727-2.26-29.604
		c-0.256-4.107,0.59-4.767,4.76-4.779c8.965-0.028,17.932,0.038,26.896-0.069c2.815-0.033,4.04,0.937,4.266,3.873
		c1.597,20.801,3.332,41.591,5.015,62.385c0.692,8.555,1.297,17.117,2.084,25.663c0.259,2.801-0.537,3.806-3.481,3.652
		C622.666,524.133,617.874,524.314,613.093,524.313z"/>
	<path fill-rule="evenodd" clip-rule="evenodd" fill="#C3712B" d="M152.161,541.979c24.626,0,49.253,0.051,73.878-0.066
		c2.949-0.015,3.97,0.707,3.765,3.741c-0.274,4.048-0.222,8.135-0.03,12.191c0.122,2.566-0.772,3.137-3.251,3.132
		c-36.002-0.075-72.004-0.038-108.005-0.029c-13.516,0.003-27.032-0.092-40.545,0.077c-3.231,0.04-4.207-1.032-4.017-4.121
		c0.22-3.574,0.279-7.194-0.027-10.756c-0.3-3.494,0.907-4.461,4.368-4.431c23.783,0.204,47.568,0.207,71.354,0.274
		c0.837,0.002,1.674,0,2.511,0C152.161,541.988,152.161,541.984,152.161,541.979z"/>
	<path fill-rule="evenodd" clip-rule="evenodd" fill="#C2702E" d="M498.83,569.462c-83.563,0-167.127,0.003-250.69-0.027
		c-1.25,0-3.233,0.779-3.243-1.587c-0.008-2.332,1.979-1.646,3.23-1.646c27.705,0.023,55.409,0.146,83.113,0.149
		c25.209,0.002,50.418-0.171,75.625-0.17c37.271,0.003,74.54,0.126,111.81,0.13c35.372,0.005,70.744-0.106,106.117-0.112
		c26.493-0.002,52.986,0.109,79.479,0.12c15.397,0.007,30.796-0.118,46.193-0.051c0.98,0.004,2.684-0.771,3.141,0.758
		c0.678,2.257-0.883,2.422-2.654,2.42c-14.824-0.018-29.647,0.039-44.471,0.041c-67.425,0.009-134.848,0.006-202.271,0.008
		c-1.793,0-3.586,0-5.379,0C498.83,569.484,498.83,569.474,498.83,569.462z"/>
	<path fill-rule="evenodd" clip-rule="evenodd" fill="#7A7E6F" d="M506.632,347.104c-1.237,10.6-2.498,21.509-3.784,32.414
		c-1.774,15.053-3.567,30.104-5.352,45.156c-2.078,17.54-4.156,35.081-6.232,52.621c-0.266,2.247-0.488,4.499-0.807,6.738
		c-0.096,0.67-0.404,1.848-0.693,1.871c-2.871,0.242-5.729-0.22-8.37-1.271c-2.028-0.809-1.724-2.729-1.489-4.639
		c2.797-22.863,5.473-45.74,8.253-68.605c2.578-21.206,5.261-42.399,7.844-63.606c0.235-1.926,1.206-2.756,2.995-2.859
		c1.91-0.111,3.837-0.064,5.729-0.297C506.577,344.399,507.147,345.081,506.632,347.104z"/>
	<path fill-rule="evenodd" clip-rule="evenodd" fill="#544B3C" d="M118.51,481.648c0-2.326-0.002-3.64,0-4.954
		c0.018-10.621,4.447-15.837,14.936-17.584c7.491-1.248,7.641-1.227,6.571,6.177c-2.625,18.144-4.506,36.37-6.308,54.604
		c-0.422,4.269-0.661,8.56-0.822,12.848c-0.078,2.089-0.854,2.917-2.993,3.038c-9.897,0.559-9.919,0.609-9.947-9.359
		C119.901,511.144,119.035,495.896,118.51,481.648z"/>
	<path fill-rule="evenodd" clip-rule="evenodd" fill="#D8803E" d="M244.101,308.427c-0.645,7.973-0.783,15.964-0.606,23.977
		c0.084,3.781-0.91,4.38-4.593,3.404c-15.106-4-24.074-24.375-16.84-38.258c2.436-4.674,7.271-7.211,12.152-6.375
		c5.382,0.924,9.163,4.963,9.848,10.808C244.31,304.104,244.101,306.277,244.101,308.427z"/>
	<path fill-rule="evenodd" clip-rule="evenodd" fill="#D87F3D" d="M343.579,376.756c1.193-0.521,2.307,1.339,3.02-0.112
		c0.55-1.117-0.517-1.966-1.23-2.753c-6.213-6.855-17.931-5.925-23.699,1.909c0.754,1.409,1.925-0.968,2.665,0.295
		c-2.178,3.927-6.043,5.973-10.268,5.419c-3.775-0.493-5.813-4.85-4.297-9.361c1.099-3.268,3.205-5.911,5.928-7.899
		c10.278-7.502,21.317-8.957,32.979-3.543c4.995,2.319,7.975,6.359,8.675,11.867c0.507,3.995-1.79,7.514-5.401,8.666
		C348.516,382.338,345.818,380.938,343.579,376.756z"/>
	<path fill-rule="evenodd" clip-rule="evenodd" fill="#4E554F" d="M615.542,535.701c-14.817,0-29.636-0.037-44.452,0.038
		c-2.291,0.012-3.488-0.313-3.479-3.065c0.01-2.774,1.485-2.698,3.42-2.696c29.519,0.032,59.036,0.029,88.554,0.048
		c2.054,0.001,4.213-0.254,3.897,3.069c-0.186,1.96-0.784,2.676-2.8,2.665c-11.829-0.069-23.659-0.027-35.49-0.023
		c-3.216,0.002-6.433,0-9.649,0C615.542,535.725,615.542,535.713,615.542,535.701z"/>
	<path fill-rule="evenodd" clip-rule="evenodd" fill="#C1702E" d="M164.323,566.243c23.061,0,46.12-0.012,69.181,0.031
		c1.305,0.003,3.513-1.07,3.404,1.663c-0.106,2.675-2.337,1.469-3.587,1.482c-9.326,0.105-18.654,0.06-27.982,0.058
		c-36.587-0.01-73.175-0.021-109.762-0.033c-0.599,0-1.205-0.079-1.793-0.007c-1.51,0.185-2.305-0.576-2.405-1.955
		c-0.139-1.899,1.459-1.251,2.318-1.258c8.964-0.064,17.928-0.043,26.893-0.044c14.578-0.001,29.156,0,43.734,0
		C164.324,566.201,164.324,566.222,164.323,566.243z"/>
	<path fill-rule="evenodd" clip-rule="evenodd" fill="#D77F3D" d="M321.446,414.299c-3.832,2.796-7.696,5.548-11.483,8.403
		c-1.992,1.503-4.092,2.976-5.705,4.84c-2.008,2.321-2.552,1-3.195-0.844c-0.078-0.224-0.189-0.462-0.18-0.688
		c0.41-8.997-5.176-14.006-11.93-18.458c-5.561-3.667-10.998-7.567-15.243-12.965c7.227,4.583,14.577,8.894,22.53,12.082
		c8.06,3.231,16.428,5.327,25.012,6.692C321.316,413.674,321.382,413.986,321.446,414.299z"/>
	<path fill-rule="evenodd" clip-rule="evenodd" fill="#FDE374" d="M10.656,226.341c12.072,0.064,24.146,0.13,36.218,0.194
		c1.301,0.007,2.602,0,4.508,0c-1.743,0.932-3.003,0.598-4.196,0.602c-10.402,0.032-20.807,0.015-31.209,0.016
		c-5.097,0.001-5.115,0.006-5.116,4.941c-0.008,42.449-0.009,84.898-0.01,127.347c-0.001,68.038,0.004,136.076-0.019,204.115
		c-0.001,2.816-0.386,5.745,4.051,5.017c-1.406,0.104-2.814,0.206-4.222,0.31c-1.175-1.06-0.685-2.455-0.685-3.711
		C9.951,453.564,9.942,341.956,9.966,230.349C9.966,229.008,9.309,227.478,10.656,226.341z"/>
	<path fill-rule="evenodd" clip-rule="evenodd" fill="#7D8172" d="M543.806,530.07c5.253,0,10.511,0.139,15.756-0.057
		c2.737-0.102,3.115,1.302,3.266,3.464c0.18,2.606-1.579,2.154-3.067,2.159c-10.716,0.031-21.431,0.039-32.145,0.07
		c-1.537,0.005-2.943-0.031-2.835-2.178c0.097-1.92,0.29-3.551,2.91-3.503c5.37,0.1,10.743,0.03,16.115,0.03
		C543.806,530.061,543.806,530.065,543.806,530.07z"/>
	<path fill-rule="evenodd" clip-rule="evenodd" fill="#F2DCB2" d="M306.51,432.41c1.815-3.55,5.301-5.293,8.28-7.556
		c3.872-2.939,8.185-5.371,10.682-9.799c0.694-1.23,1.834-1.304,3.082-1.305c3.423-0.003,6.86,0.247,10.64-0.721
		c-2.116,5.653-6.212,8.798-10.933,11.166c-5.399,2.708-11.109,4.665-16.982,6.12c-1.699,0.421-3.341,0.981-4.692,2.164
		C306.586,432.481,306.51,432.41,306.51,432.41z"/>
	<path fill-rule="evenodd" clip-rule="evenodd" fill="#F39136" d="M447.279,542.177c-1.156,1.269-2.69,0.769-4.057,0.771
		c-28.65,0.029-57.303,0.021-85.953,0.001c-1.151-0.001-2.419,0.36-3.362-0.708c27.905-0.053,55.812-0.107,83.718-0.151
		C440.843,542.084,444.061,542.146,447.279,542.177z"/>
	<path fill-rule="evenodd" clip-rule="evenodd" fill="#EF4822" d="M338.544,114.453c-4.048,0.165-8.117-0.33-12.172-0.33
		c-3.769,0-4.823-1.815-4.794-5.382c0.143-15.057,0.064-30.114,0.057-45.179c-0.007-15.293-0.064-30.595,0.051-45.896
		c0.021-2.763-0.66-3.753-3.603-3.703c-10.399,0.187-20.799,0.158-31.198,0.021c-2.469-0.029-3.84,0.847-5.182,2.871
		c-20.562,30.846-41.203,61.635-61.865,92.424c-1.112,1.658-1.593,3.345-1.578,5.333c0.064,6.933,0,13.866,0.007,20.799
		c0.007,4.916,0.028,4.93,5.117,4.938c20.798,0.007,41.597,0.057,62.396-0.029c3.18-0.015,4.442,0.868,4.356,4.285
		c-0.223,9.194-0.028,18.401-0.129,27.609c-0.028,2.39,0.567,3.423,3.2,3.373c8.361-0.158,16.729-0.172,25.098-0.05
		c3.065,0.05,3.934-1.249,3.912-4.083c-0.064-8.605,0.272-17.217-0.029-25.815c-0.137-3.926,1.5-5.117,4.902-5.167
		c4.063-0.065,8.124-0.223,12.186-0.166c2.491,0.043,3.273-0.933,3.216-3.401c-0.144-6.093-0.137-12.201,0.064-18.287
		C342.656,115.58,341.803,114.324,338.544,114.453z M281.832,108.001c-5.139-0.079-10.27-0.086-15.409,0
		c-1.858,0.036-2.274-0.976-1.485-2.189c5.893-9.1,11.907-18.129,17.878-27.186c0.259,0.122,0.517,0.237,0.774,0.359
		c0,9.028-0.014,18.064,0.022,27.1C283.619,107.391,283.324,108.022,281.832,108.001z"/>
	<path fill-rule="evenodd" clip-rule="evenodd" fill="#EF4822" d="M661.848,117.711c0.051-2.59-1.005-3.301-3.416-3.215
		c-3.817,0.129-7.636-0.072-11.447-0.531c-5.139-0.617-5.16-0.862-5.153-6.173c0.008-14.827,0-29.792,0-44.792h-0.021
		c0-15-0.093-30.049,0.072-45.228c0.036-3.401-1.112-4.033-4.328-3.969c-10.399,0.194-20.806,0.259-31.204,0.094
		c-2.972-0.05-4.773,0.944-6.424,3.427c-20.231,30.501-40.549,60.965-60.917,91.374c-1.399,2.096-2.075,4.209-2.06,6.678
		c0.035,6.688-0.008,13.209,0,19.905c0.007,4.787,0.114,4.719,4.793,4.719h63.487c4.88,0,4.88,0.181,4.888,5.204
		c0,8.964,0.078,18.025-0.043,26.99c-0.036,2.533,0.825,3.389,3.309,3.346c8.245-0.136,16.499-0.186,24.745-0.049
		c3.043,0.05,3.991-1.145,3.991-3.986c-0.008-8.842,0.215-17.686,0.143-26.534c-0.021-2.713,0.947-3.787,3.589-4.189
		c4.292-0.646,8.591-0.335,12.882-0.5c2.269-0.086,3.158-0.853,3.115-3.208C661.726,130.622,661.719,124.164,661.848,117.711z
		 M603.65,105.518c0.015,1.83-0.48,2.526-2.419,2.49c-6.172-0.115-12.352-0.043-19.19-0.043
		c6.187-9.911,12.409-18.889,18.725-27.811c0.531-0.746,1.091-1.737,2.26-1.22c1.013,0.445,0.567,1.479,0.575,2.239
		C603.629,89.291,603.572,97.408,603.65,105.518z"/>
	<path fill-rule="evenodd" clip-rule="evenodd" fill="#EF4822" d="M490.371,43.739c-11.936-26.426-38.109-37.04-63.258-32.519
		c-18.976,3.416-32.022,15.122-40.821,31.772c-6.948,13.141-10.17,27.358-11.017,42.157c-1.084,18.983,0.129,37.693,7.392,55.499
		c9.137,22.399,25.198,35.942,49.944,37.922c24.947,1.996,46.355-10.126,57.595-32.511c8.002-15.94,10.449-33.035,10.765-50.59
		C500.806,77.535,497.835,60.275,490.371,43.739z M456.61,127.256c-1.542,3.768-3.416,7.342-6.222,10.328
		c-7.68,8.203-18.617,7.722-25.772-1.048c-5.053-6.194-7.68-13.485-8.741-21.186c-2.153-15.717-1.988-31.449,2.009-46.916
		c1.343-5.196,3.682-10.033,7.321-14.124c8.619-9.696,21.415-8.598,28.141,2.569c4.901,8.131,6.638,17.26,7.449,26.562
		c0.345,3.912,0.058,7.88,0.058,11.821C460.881,106.092,460.823,116.979,456.61,127.256z"/>
	<path fill-rule="evenodd" clip-rule="evenodd" fill="#1A1810" d="M180.25,255.434c0.059-3.181,2.143-5.015,4.865-3.958
		c6.563,2.546,11.559,6.999,14.828,13.278c0.551,1.059,1.008,2.447,0.137,3.381c-0.867,0.93-1.95-0.112-2.858-0.505
		c-5.257-2.269-10.327-4.883-14.845-8.448C181.149,258.214,179.981,257.139,180.25,255.434z"/>
	<path fill-rule="evenodd" clip-rule="evenodd" fill="#1B1910" d="M177.412,288.906c-1.716,0.048-3.952-0.101-6.198-0.557
		c-1.979-0.401-3.936-0.644-3.852-3.249c0.084-2.571,1.735-3.823,4.12-4.107c4.436-0.527,8.795,0.25,13.135,1.015
		c1.981,0.348,3.949,0.855,5.864,1.47c1.032,0.331,2.715,0.34,2.547,1.954c-0.136,1.317-1.529,1.731-2.687,1.998
		C186.273,288.37,182.159,288.991,177.412,288.906z"/>
	<path fill-rule="evenodd" clip-rule="evenodd" fill="#1A1810" d="M176.387,319.568c-1.533-0.303-2.991-0.021-3.651-1.58
		c-0.608-1.438,0.034-2.538,0.925-3.575c0.952-1.108,2.156-1.882,3.464-2.487c5.103-2.362,10.417-4.01,15.995-4.811
		c1.264-0.181,2.449-0.27,3.176,0.957c0.796,1.344-0.099,2.393-1.057,3.037C189.373,315.054,183.078,318.062,176.387,319.568z"/>
	<path fill-rule="evenodd" clip-rule="evenodd" fill="#16150D" d="M308.031,502.238c-0.063,4.003-2.573,6.467-6.464,6.343
		c-3.292-0.104-5.169-2.447-5.074-6.338c0.089-3.649,2.565-6.164,5.989-6.08C305.775,496.245,308.087,498.774,308.031,502.238z"/>
	<path fill-rule="evenodd" clip-rule="evenodd" fill="#17150D" d="M307.424,453.93c3.729-0.018,6.32,2.532,6.3,6.2
		c-0.017,3.122-3.085,6.086-6.233,6.023c-3.297-0.066-5.882-2.897-5.842-6.396C301.691,456.153,303.878,453.946,307.424,453.93z"/>
	<path fill-rule="evenodd" clip-rule="evenodd" fill="#15130C" d="M187.836,527.181c-1.693,1.188-2.698,0.446-3.761-0.015
		c-7.335-3.174-11.794-8.975-14.794-16.123c-0.323-0.771-0.832-1.549,0.066-2.233c0.505-0.384,0.918,0.069,1.198,0.402
		C175.879,515.546,181.705,521.426,187.836,527.181z"/>
	<path fill-rule="evenodd" clip-rule="evenodd" fill="#1A1A10" d="M761.82,243.526c0-5.677,0.174-11.362-0.074-17.029
		c-0.125-2.871,1.213-3.473,3.557-3.604c2.43-0.135,3.953,0.576,3.916,3.327c-0.137,9.916-0.252,19.833-0.34,29.75
		c-0.014,1.484-0.359,2.64-2.043,2.794c-2.223,0.203-4.428,0.706-5.84-2.003c-3.162-6.063-6.537-12.016-10.383-17.926
		c0,5.513-0.17,11.032,0.068,16.534c0.131,3.079-1.361,3.651-3.866,3.646c-2.572-0.005-3.854-0.751-3.786-3.76
		c0.211-9.313,0.174-18.636,0.06-27.952c-0.026-2.147,0.063-3.832,2.548-4.278c2.408-0.433,4.451-0.12,5.746,2.371
		c3.168,6.095,6.438,12.137,9.666,18.2C761.307,243.574,761.563,243.549,761.82,243.526z"/>
	<path fill-rule="evenodd" clip-rule="evenodd" fill="#1A190F" d="M803.139,237.335c-0.652-8.002-5.604-14.031-12.33-15.079
		c-6.674-1.033-13.527,2.757-16.082,9.259c-2.742,6.976-2.477,13.987,0.932,20.712c2.943,5.799,9.424,8.483,15.74,6.775
		c7.943-2.146,11.848-8.246,11.756-18.444C803.154,239.481,803.232,238.405,803.139,237.335z M793.363,249.349
		c-2.748,3.704-8.496,3.416-10.814-0.617c-1.449-2.526-1.83-5.361-1.881-8.231c-0.051-2.67,0.439-5.203,1.859-7.507
		c2.598-4.228,8.59-4.364,11.303-0.251C796.602,236.941,796.365,245.309,793.363,249.349z"/>
	<path fill-rule="evenodd" clip-rule="evenodd" fill="#19180F" d="M808.398,193.018c7.678-0.175,8.088,0.331,6.568,7.975
		c-1.547,7.796-5.84,12.305-11.975,12.58c-8.533,0.382-13.957-3.374-16.318-11.354c-2.016-6.81-1.678-13.479,1.85-19.707
		c5.252-9.272,19.951-9.914,25.248-1.225c0.941,1.545,1.701,3.15-0.336,4.275c-1.639,0.905-3.357,2.564-5.33,0.219
		c-2.252-2.677-4.863-4.45-8.742-3.25c-4.096,1.268-5.42,4.487-6.006,8.095c-0.676,4.172-0.426,8.356,1.789,12.141
		c1.77,3.024,4.555,4.125,7.922,3.568c2.309-0.381,3.84-1.862,4.398-4.159c0.469-1.929,0.402-3.458-2.389-3.033
		c-1.367,0.208-2.912,0.369-4.09-0.763c-1.076-1.033-0.963-2.376-0.762-3.678c0.211-1.367,1.381-1.598,2.441-1.655
		C804.574,192.944,806.488,193.018,808.398,193.018z"/>
	<path fill-rule="evenodd" clip-rule="evenodd" fill="#1A1910" d="M817.596,288.874c0-6.591,0.061-12.156-0.029-17.721
		c-0.037-2.293,0.143-3.927,3.123-3.969c2.912-0.042,3.791,1.33,3.754,3.91c-0.143,9.683-0.262,19.366-0.379,29.05
		c-0.016,1.375-0.48,2.342-2.012,2.404c-1.836,0.075-3.844,0.831-5.041-1.458c-3.191-6.095-6.426-12.168-10.234-18.266
		c0,5.36-0.115,10.723,0.051,16.079c0.078,2.575-0.711,3.645-3.381,3.754c-2.775,0.114-3.832-0.738-3.814-3.627
		c0.061-9.564,0.561-19.13-0.004-28.696c-0.082-1.41,0.035-2.775,1.809-2.925c2.313-0.196,4.695-0.857,6.148,2.103
		C810.615,275.684,813.887,281.737,817.596,288.874z"/>
	<path fill-rule="evenodd" clip-rule="evenodd" fill="#19180F" d="M849.494,271.217c-4.742-4.995-11.109-5.411-17.59-3.739
		c-1.938,0.503-2.965,1.257-2.885,3.511c0.164,4.766,0.049,10.011,0.049,14.011H829v9.183c0,9.323,0.025,9.46,9.57,8.325
		c6.781-0.804,11.712-4.485,14.073-10.973C855.292,284.257,855.006,277.016,849.494,271.217z M839.26,294.943
		c-2.225,0.725-3.322,0.625-3.113-2.152c0.193-2.613,0.043-5.247,0.043-7.88c0-2.627,0.186-5.268-0.059-7.873
		c-0.236-2.482,0.861-2.748,2.885-2.519c4.041,0.452,6.668,2.856,7.379,6.969C847.506,287.94,844.637,293.2,839.26,294.943z"/>
	<path fill-rule="evenodd" clip-rule="evenodd" fill="#17160E" d="M783.389,209.044c-3.123-9.926-6.453-19.794-9.451-29.763
		c-0.861-2.871-2.621-3.309-5.053-3.273c-2.447,0.029-4.328,0.625-5.182,3.352c-3.107,9.933-6.381,19.808-9.531,29.734
		c-0.453,1.414-1.873,3.316,0.775,4.041c2.281,0.625,5.195,1.271,5.885-1.902c0.969-4.493,3.545-5.512,7.564-4.83
		c0.926,0.158,1.93,0.18,2.85,0c2.906-0.567,4.313,0.567,4.742,3.481c0.281,1.945,1.156,3.689,3.934,3.639
		C783.059,213.609,784.371,212.159,783.389,209.044z M764.385,199c1.436-5,2.82-9.036,4.479-14.339
		c1.549,5.376,2.828,10.339,4.125,14.339H764.385z"/>
	<path fill-rule="evenodd" clip-rule="evenodd" fill="#19180F" d="M766.063,282.981c-0.07-1.185,0.008-2.405-0.236-3.561
		c-1.133-5.447-3.236-10.256-9.078-12.157c-5.289-1.73-9.574,0.101-13.127,4.04c-5.642,6.259-6.215,20.052-1.17,26.784
		c4.701,6.259,12.797,6.861,18.344,1.335C765.383,294.857,766.25,289.074,766.063,282.981z M757.15,292.504
		c-0.891,1.794-2.297,2.898-4.5,2.914c-2.152,0.007-3.797-0.891-4.623-2.735c-2.411-5.368-2.454-10.886,0.374-16.054
		c2.124-3.875,6.675-3.538,8.798,0.345c0.92,1.687,1.508,4.78,1.5,8.203C758.873,287.595,758.32,290.135,757.15,292.504z"/>
	<path fill-rule="evenodd" clip-rule="evenodd" fill="#1A180F" d="M747.978,176.985c-4.163-1.995-8.526-1.722-12.954-1.119
		c-3.581,0.495-5.153,1.625-4.895,5.421c0.294,4.399,0.064,8.713,0.064,12.713h0.259c0,5,0.114,10.576-0.044,15.586
		c-0.093,2.842,1.328,3.712,3.732,3.676c2.354-0.036,4.04-0.419,3.746-3.29c-0.094-0.948-0.021-1.842-0.021-2.797
		c0.008-6.014,0.008-5.98,5.856-6.583c5.368-0.545,9.726-4.426,10.657-9.514C755.564,184.648,753.275,179.533,747.978,176.985z
		 M744.842,193.119c-1.78,1.17-3.783,1.012-5.779,1.185c-1.084,0.1-1.063-0.517-1.063-1.264V188h-0.149c0,0-0.107-0.376,0.022-0.678
		c0.638-1.478-1.558-3.941,1.664-4.286c2.899-0.316,5.965-0.069,7.285,3.11C747.898,188.73,747.439,191.411,744.842,193.119z"/>
	<path fill-rule="evenodd" clip-rule="evenodd" fill="#19180F" d="M820.391,194.37c0-5.015,0.098-10.031-0.043-15.042
		c-0.064-2.332,0.797-3.267,3.08-3.244c5.252,0.052,10.506,0.09,15.758-0.008c2.982-0.056,2.734,1.882,2.779,3.851
		c0.045,1.984-0.098,3.593-2.758,3.495c-2.98-0.111-5.982,0.146-8.949-0.082c-2.32-0.178-2.963,0.657-2.66,2.795
		c0.15,1.054,0.135,2.158,0.012,3.217c-0.197,1.693,0.605,2.029,2.08,1.928c1.666-0.113,3.357,0.088,5.01-0.091
		c3.232-0.351,3.805,1.351,3.703,4.087c-0.068,1.818-0.645,2.666-2.475,2.614c-0.953-0.027-1.91,0.042-2.865,0.046
		c-5.443,0.024-6.475,1.399-5.414,6.845c0.271,1.389,1.063,1.337,2.031,1.333c3.104-0.015,6.207-0.012,9.309-0.047
		c2.035-0.024,3.096,0.759,3.004,2.977c-0.086,2.049,0.324,4.369-2.699,4.43c-5.371,0.105-10.746,0.11-16.115,0.02
		c-2.02-0.034-2.801-1.372-2.779-3.363c0.057-5.253,0.02-10.506,0.02-15.76C820.408,194.37,820.4,194.37,820.391,194.37z"/>
	<path fill-rule="evenodd" clip-rule="evenodd" fill="#19180F" d="M770.941,281.119c0-3.583,0.037-7.165-0.01-10.747
		c-0.045-3.306,2.281-2.956,4.457-3.11c2.396-0.169,2.689,1.071,2.658,3.058c-0.096,5.85-0.039,11.701-0.027,17.552
		c0.002,1.542-0.064,3.079,0.645,4.549c0.912,1.891,2.223,3.012,4.43,2.953c2.219-0.06,3.531-1.279,4.201-3.237
		c0.5-1.459,0.701-2.978,0.678-4.559c-0.084-5.969,0.033-11.942-0.123-17.908c-0.064-2.494,1.375-2.89,3.143-2.597
		c1.568,0.261,4.088-0.797,3.998,2.535c-0.195,7.277,0.059,14.573-0.348,21.834c-0.414,7.41-5.611,12.135-12.168,11.727
		c-7.18-0.446-11.516-5.213-11.566-12.736c-0.021-3.104-0.004-6.209-0.004-9.313C770.916,281.119,770.93,281.119,770.941,281.119z"
		/>
	<path fill-rule="evenodd" clip-rule="evenodd" fill="#19180F" d="M716.555,284.841c0-4.415,0.112-8.835-0.039-13.246
		c-0.103-2.996,0.928-4.417,4.085-4.335c4.176,0.109,8.362,0.059,12.536-0.111c2.949-0.121,3.23,1.593,3.26,3.867
		c0.03,2.335-0.723,3.645-3.29,3.514c-1.906-0.096-3.85,0.207-5.726-0.045c-2.838-0.38-3.164,0.854-3.281,3.363
		c-0.149,3.236,0.754,4.293,4.029,4.041c1.856-0.143,4.538-1.188,5.467,1.779c1.146,3.663-0.133,5.206-4.116,5.226
		c-5.271,0.024-5.272,0.024-5.276,5.125c0,1.434-0.116,2.881,0.046,4.297c0.337,2.953-0.604,4.418-3.85,4.445
		c-3.244,0.026-3.701-1.658-3.631-4.307c0.119-4.535,0.032-9.075,0.032-13.613C716.719,284.842,716.637,284.842,716.555,284.841z"/>
	<path fill-rule="evenodd" clip-rule="evenodd" fill="#1A1910" d="M813.287,244.359c-0.002-3.347-0.217-6.712,0.061-10.036
		c0.264-3.188-0.607-4.36-3.996-4.042c-4.125,0.388-4.922-0.772-4.768-4.911c0.07-1.857,0.77-2.531,2.588-2.515
		c6.217,0.057,12.434,0.058,18.648,0.008c2.846-0.022,2.883,1.87,2.893,3.887c0.008,1.896-0.023,3.421-2.734,3.521
		c-5.348,0.194-5.35,0.355-5.357,5.87c-0.012,6.455-0.172,12.916,0.063,19.363c0.102,2.783-1.201,3.709-3.467,3.756
		c-2.4,0.05-4.107-0.804-3.969-3.784C813.42,251.777,813.289,248.065,813.287,244.359z"/>
	<path fill-rule="evenodd" clip-rule="evenodd" fill="#1A1910" d="M302.76,288.857c-3.544,0.138-6.871,0.032-10.1-1.073
		c-2.066-0.707-3.604-1.91-3.983-4.155c-0.401-2.382,1.097-3.875,2.837-4.985c2.655-1.694,5.657-2.465,8.812-2.613
		c10.99-0.521,21.224-3.163,29.639-10.752c2.357-2.126,4.021-1.28,5.503,1.008c2.093,3.233,1.611,7.109-1.375,10.493
		c-4.507,5.106-10.519,7.747-16.738,9.939C312.595,288.395,307.649,289.186,302.76,288.857z"/>
	<path fill-rule="evenodd" clip-rule="evenodd" fill="#1A1A11" d="M376.851,291.774c-9.044-0.088-19.974-7.846-22.991-16.305
		c-0.657-1.844-0.94-3.636-0.119-5.547c1.683-3.91,4.134-4.442,6.877-1.24c4.438,5.179,9.544,9.291,16.286,11.051
		c0.799,0.209,1.551,0.609,2.309,0.954c3.369,1.533,5.313,4.416,4.8,7.1C383.52,290.356,380.902,291.813,376.851,291.774z"/>
	<path fill-rule="evenodd" clip-rule="evenodd" fill="#191810" d="M309.702,315.442c-6.288-0.03-12.99-5.451-13.285-10.83
		c-0.082-1.491-0.505-3.395,1.345-4.073c1.934-0.709,3.072,0.674,3.914,2.264c0.39,0.737,0.83,1.448,1.271,2.158
		c3.814,6.127,9.563,6.324,13.813,0.46c0.488-0.673,0.824-1.454,1.308-2.132c0.747-1.049,0.637-3.259,2.688-2.651
		c2.068,0.612,1.796,2.592,1.648,4.248C321.933,310.174,315.522,315.471,309.702,315.442z"/>
	<path fill-rule="evenodd" clip-rule="evenodd" fill="#18160F" d="M279.308,323.084c1.773,4.016,2.13,8.185,0.582,12.276
		c-1.369,3.619-5.78,4.21-8.477,1.352c-1.997-2.116-2.611-4.819-2.724-7.563c-0.21-5.158,0.707-10.183,2.48-15.03
		c0.382-1.047,0.719-2.71,2.191-2.261c1.4,0.428,0.932,2.056,0.718,3.166c-0.696,3.622-1.53,7.227-1.39,10.945
		c0.058,1.534,0.163,3.105,0.563,4.575c0.348,1.273,0.562,3.228,2.435,2.962c1.592-0.227,1.9-1.996,2.131-3.391
		C278.201,327.783,277.925,325.348,279.308,323.084z"/>
	<path fill-rule="evenodd" clip-rule="evenodd" fill="#191710" d="M356.109,308.104c0.061-1.151-0.35-2.764,1.043-3.091
		c1.465-0.344,1.69,1.4,2.214,2.366c3.538,6.54,9.797,6.91,14.145,0.788c0.48-0.677,0.9-1.398,1.364-2.088
		c0.611-0.902,1.35-1.987,2.508-1.606c1.165,0.383,1.104,1.752,1.109,2.805c0.021,4.007-6.118,9.451-11.537,10.29
		c-4.395,0.681-8.979-2.147-10.427-6.311C356.16,310.199,356.128,309.17,356.109,308.104z"/>
	<path fill-rule="evenodd" clip-rule="evenodd" fill="#15130D" d="M343.08,281.12c0.373-2.548,0.78-4.916,1.86-7.045
		c0.637-1.255,1.812-2.672,3.363-1.863c1.497,0.781,1.8,2.515,0.977,4.082c-0.996,1.895-2.12,3.728-3.284,5.525
		c-0.548,0.846-1.09,2.207-2.353,1.711C342.599,283.119,343.423,281.806,343.08,281.12z"/>
	<path fill-rule="evenodd" clip-rule="evenodd" fill="#17150F" d="M241.956,307.613c-2.354-0.417-3.262,0.967-4.152,2.631
		c-2.865,5.353-2.5,9.183,1.405,13.748c0.447,0.523,0.818,1.112,1.267,1.729c-3.969,1.113-7.917-1.977-8.54-6.593
		c-0.355-2.638-0.116-5.229,1.153-7.669c0.769-1.478,1.426-3.017,2.071-4.555c0.476-1.132,0.809-2.384-0.317-3.29
		c-1.138-0.917-2.21-0.221-3.271,0.422c-1.203,0.728-2.575,3.129-3.691,1.546c-1.305-1.853,0.956-3.395,2.505-4.443
		c3.65-2.475,6.065-1.663,8.3,2.336C239.532,304.99,240.852,306.242,241.956,307.613z"/>
	<path fill-rule="evenodd" clip-rule="evenodd" fill="#191810" d="M290.114,86h-0.122c0-9,0.028-16.731-0.029-25.207
		c-0.007-1.105,0.13-2.545-1.241-2.896c-1.083-0.272-1.356,1.21-1.852,1.942c-11.06,16.521-22.104,33.078-33.093,49.649
		c-2.188,3.302-1.141,5.015,2.922,5.03c9.91,0.029,19.822-0.078,29.733,0.073c2.914,0.042,3.739-1.338,3.71-4.008
		C290.064,102.458,290.114,94,290.114,86z M281.832,108.001c-5.139-0.079-10.27-0.086-15.409,0
		c-1.858,0.036-2.274-0.976-1.485-2.189c5.893-9.1,11.907-18.129,17.878-27.186c0.259,0.122,0.517,0.237,0.774,0.359
		c0,9.028-0.014,18.064,0.022,27.1C283.619,107.391,283.324,108.022,281.832,108.001z"/>
	<path fill-rule="evenodd" clip-rule="evenodd" fill="#191810" d="M610.375,86.018c0.015-8.476,0.424-16.959-0.201-25.435
		c-0.093-1.263-0.236-2.547-1.449-3.042c-1.399-0.575-1.701,0.947-2.225,1.715c-11.146,16.349-22.263,32.712-33.337,49.104
		c-0.947,1.399-2.655,2.834-1.428,4.787c1.119,1.772,3.136,1.385,4.908,1.385c9.919,0.007,19.845-0.122,29.756,0.072
		c3.302,0.065,4.069-1.234,4.026-4.206C610.297,102.274,610.375,94.143,610.375,86.018z M603.65,105.518
		c0.015,1.83-0.48,2.526-2.419,2.49c-6.172-0.115-12.352-0.043-19.19-0.043c6.187-9.911,12.409-18.889,18.725-27.811
		c0.531-0.746,1.091-1.737,2.26-1.22c1.013,0.445,0.567,1.479,0.575,2.239C603.629,89.291,603.572,97.408,603.65,105.518z"/>
	<path fill-rule="evenodd" clip-rule="evenodd" fill="#19170F" d="M468.022,94.881c0-3.459,0.172-7.292-0.036-11.11
		c-0.61-11.06-2.749-21.739-8.899-31.219c-9.739-15.014-27.976-16.227-39.595-2.655c-3.453,4.033-5.713,8.749-7.371,13.758
		c-4.987,15.158-5.038,30.803-4.076,46.435c0.596,9.674,3.136,19.004,8.253,27.444c6.438,10.615,17.569,15.495,28.327,12.007
		c9.172-2.971,14.677-9.918,18.258-18.473C467.685,119.606,468.546,107.506,468.022,94.881z M456.61,127.256
		c-1.542,3.768-3.416,7.342-6.222,10.328c-7.68,8.203-18.617,7.722-25.772-1.048c-5.053-6.194-7.68-13.485-8.741-21.186
		c-2.153-15.717-1.988-31.449,2.009-46.916c1.343-5.196,3.682-10.033,7.321-14.124c8.619-9.696,21.415-8.598,28.141,2.569
		c4.901,8.131,6.638,17.26,7.449,26.562c0.345,3.912,0.058,7.88,0.058,11.821C460.881,106.092,460.823,116.979,456.61,127.256z"/>
	<path fill-rule="evenodd" clip-rule="evenodd" fill="#F1E7C7" d="M304.402,501.848c-0.313,1.445-1.336,2.008-2.466,2.292
		c-1.099,0.275-1.867-0.256-1.807-1.46c0.065-1.307,0.737-2.19,2.154-2.246C303.35,500.392,303.95,501.04,304.402,501.848z"/>
	<path fill-rule="evenodd" clip-rule="evenodd" fill="#EBDEBA" d="M307.971,461.88c-1.203-0.307-2.536-0.757-2.581-2.039
		c-0.043-1.226,1.056-2.284,2.329-2.153c1.142,0.117,2.253,0.986,2.354,2.299C310.176,461.338,309.027,461.643,307.971,461.88z"/>
</g>
</svg>
