<?xml version="1.0" encoding="utf-8"?>
<!-- Generator: Adobe Illustrator 16.0.0, SVG Export Plug-In . SVG Version: 6.00 Build 0)  -->
<!DOCTYPE svg PUBLIC "-//W3C//DTD SVG 1.1//EN" "http://www.w3.org/Graphics/SVG/1.1/DTD/svg11.dtd">
<svg version="1.1" id="Layer_1" xmlns="http://www.w3.org/2000/svg" xmlns:xlink="http://www.w3.org/1999/xlink" x="0px" y="0px"
	 width="355px" height="385px" viewBox="0 0 355 385" enable-background="new 0 0 355 385" xml:space="preserve">
<g>
	<path fill-rule="evenodd" clip-rule="evenodd" fill="#EF4822" d="M57.611,84.449c-3.374-1.983-6.714-4.149-5.989-8.752
		c0.682-4.329,3.687-6.57,7.914-7.006c3.458-0.357,2.523-2.873,2.624-4.862c1.133-22.622,17.02-44.321,38.438-51.861
		c0,6.582-0.002,12.972,0.001,19.362c0.001,1.5-0.168,3.031,0.075,4.492c0.55,3.312,2.308,5.621,5.986,5.363
		c3.466-0.242,4.793-2.574,4.798-5.81c0.014-8.666-0.005-17.331,0.011-25.997c0.011-5.824,1.581-7.442,7.247-7.474
		c4.833-0.028,9.666-0.031,14.498-0.012c5.594,0.022,7.25,1.738,7.263,7.528c0.018,8.166,0.03,16.331,0.002,24.497
		c-0.013,3.903,1.001,7.254,5.584,7.202c4.287-0.048,5.341-3.269,5.337-6.978c-0.006-7.324-0.002-14.647-0.002-22.225
		c4.042,0.527,7.087,2.639,10.051,4.591c17.432,11.479,27.834,27.272,29.098,48.485c0.104,1.724-0.109,3.312,2.346,3.539
		c4.473,0.413,7.658,2.789,8.225,7.313c0.6,4.788-3.113,6.914-6.684,8.877c-1.531,0.991-3.244,0.521-4.867,0.522
		c-42.426,0.029-84.853,0.032-127.28-0.013C60.73,85.228,58.95,85.977,57.611,84.449z"/>
	<path fill-rule="evenodd" clip-rule="evenodd" fill="#EF4822" d="M36.528,207.771c-0.241-17.651,9.436-29.906,22.205-40.342
		c7.709-6.301,16.895-9.724,26.349-12.453c1.723-0.498,3.081-0.014,4.489,1.243c19.825,17.701,54.132,17.008,73.986,0.004
		c1.045-0.896,2.017-1.669,3.533-1.277c22.049,5.692,38.811,17.714,46.846,39.779c1.5,4.123,3.258,8.685,0.545,13.189
		c-1.611,0.627-3.293,0.337-4.939,0.337c-56.042,0.017-112.083,0.018-168.124-0.006C39.787,208.245,38.085,208.66,36.528,207.771z"
		/>
	<path fill-rule="evenodd" clip-rule="evenodd" fill="#EF4822" d="M274.539,163.088c0.004-8.829-0.098-17.659,0.031-26.485
		c0.129-8.767-2.857-16.202-8.914-22.474c-7.063-7.311-12.162-15.603-13.619-25.921c-1.938-13.729,8.912-33.775,21.523-39.354
		c3.578-1.584,5.402-0.302,4.725,3.921c-1.209,7.53-2.719,15.02-4.379,22.465c-0.613,2.754-0.348,4.849,1.902,6.625
		c1.043,0.823,1.943,1.821,2.951,2.692c11.359,9.826,15.051,10.19,28.469,3.237c1.867-0.968,2.773-2.304,3.178-4.132
		c1.9-8.571,4.205-17.081,5.008-25.843c0.396-4.308,2.313-3.355,4.391-1.632c7.061,5.858,11.434,13.445,12.555,22.488
		c1.537,12.387-1.463,23.805-10.977,32.23c-10.131,8.974-13.344,19.946-13.01,32.939c0.406,15.814,0.105,31.647,0.094,47.472
		c-0.008,10.904-5.816,16.414-17.275,16.43c-10.588,0.015-16.631-6.023-16.652-16.675
		C274.521,181.745,274.535,172.416,274.539,163.088z"/>
	<path fill-rule="evenodd" clip-rule="evenodd" fill="#EF4822" d="M127.201,91.86c17.656,0,35.312-0.001,52.967,0
		c5.338,0,6.943,1.981,6.873,7.259c-0.346,25.865-21.904,52.547-52.425,57.463c-30.301,4.88-62.788-19.121-67.114-49.637
		c-0.373-2.629-1.019-5.201-0.953-7.901c0.131-5.354,1.83-7.121,7.184-7.123c17.823-0.006,35.646-0.002,53.468-0.002
		C127.201,91.899,127.201,91.88,127.201,91.86z"/>
	<path fill-rule="evenodd" clip-rule="evenodd" fill="#002C59" d="M67.077,224.817c-11.104,19.453-21.725,38.004-32.257,56.604
		c-1.08,1.907-2.462,2.331-4.453,2.311c-7.492-0.076-14.986-0.101-22.477-0.001c-3.993,0.053-6.08-2.104-6.118-5.702
		c-0.163-15.479-0.209-30.964,0.022-46.441c0.055-3.659,1.879-6.776,6.419-6.774C27.502,224.821,46.79,224.817,67.077,224.817z"/>
	<path fill-rule="evenodd" clip-rule="evenodd" fill="#002C59" d="M290.564,339.661c0.002-12.479,0.111-24.959-0.072-37.434
		c-0.049-3.285,0.506-4.715,4.23-4.576c7.809,0.289,15.639,0.199,23.455,0.017c3.008-0.07,4.086,0.848,4.076,3.925
		c-0.082,25.289-0.061,50.578-0.004,75.867c0.008,3.871-1.293,5.773-5.555,5.607c-6.811-0.264-13.645-0.205-20.459,0.002
		c-4.389,0.131-5.801-1.73-5.74-5.975C290.68,364.618,290.563,352.139,290.564,339.661z"/>
	<path fill-rule="evenodd" clip-rule="evenodd" fill="#002C59" d="M66.627,340.266c0,12.325-0.206,24.655,0.104,36.974
		c0.119,4.74-1.518,6.074-6.03,5.859c-6.479-0.307-12.987-0.041-19.482,0.008c-3.877,0.029-5.704-1.639-5.689-5.73
		c0.089-25.316,0.081-50.634-0.007-75.95c-0.009-2.684,0.532-3.802,3.507-3.733c7.99,0.18,15.99,0.137,23.981-0.045
		c2.823-0.064,3.683,0.781,3.65,3.645c-0.146,12.99-0.064,25.982-0.064,38.974C66.606,340.266,66.617,340.266,66.627,340.266z"/>
	<path fill-rule="evenodd" clip-rule="evenodd" fill="#002C59" d="M277.02,283.711c5.941-10.611,11.498-20.541,17.061-30.468
		c4.791-8.552,9.65-17.064,14.332-25.676c1.066-1.959,2.146-2.856,4.52-2.825c10.994,0.145,21.992,0.017,32.99,0.077
		c4.803,0.025,5.547,1.418,3.141,5.762c-9,16.26-18.094,32.468-27.023,48.767c-1.68,3.065-3.584,4.541-7.336,4.461
		C302.436,283.548,290.16,283.711,277.02,283.711z"/>
	<path fill-rule="evenodd" clip-rule="evenodd" fill="#002C59" d="M135.673,283.705c8.963-16.018,18.303-30.958,25.817-46.766
		c4.794-10.086,10.938-13.733,21.73-12.323c7.367,0.962,14.961,0.19,22.451,0.219c0.275,0.001,0.547,0.253,1.283,0.616
		c-4.568,8.062-9.107,16.097-13.67,24.119c-5.742,10.1-11.58,20.146-17.205,30.313c-1.541,2.784-3.305,3.98-6.633,3.91
		C158.469,283.561,147.483,283.705,135.673,283.705z"/>
	<path fill-rule="evenodd" clip-rule="evenodd" fill="#002C59" d="M206.434,283.711c3.596-6.295,6.799-11.841,9.943-17.419
		c7.168-12.71,14.303-25.438,21.465-38.151c1.047-1.856,1.928-3.484,4.768-3.431c11.477,0.218,22.959,0.09,35.273,0.09
		c-2.699,4.847-5.119,9.257-7.6,13.632c-7.77,13.705-15.658,27.345-23.279,41.133c-1.756,3.175-3.766,4.327-7.406,4.239
		C228.846,283.544,218.082,283.711,206.434,283.711z"/>
	<path fill-rule="evenodd" clip-rule="evenodd" fill="#002C59" d="M65.745,283.7c3.836-6.73,7.301-12.708,10.668-18.739
		c6.792-12.168,13.579-24.34,20.256-36.571c1.41-2.583,3.018-3.749,6.178-3.681c11.093,0.237,22.194,0.092,34.196,0.092
		c-4.694,8.26-9.007,15.84-13.311,23.425c-6.058,10.678-12.146,21.337-18.129,32.056c-1.225,2.194-2.483,3.532-5.328,3.489
		C89.13,283.6,77.982,283.7,65.745,283.7z"/>
	<path fill-rule="evenodd" clip-rule="evenodd" fill="#EF4822" d="M36.528,207.771c58.489-0.021,116.978-0.042,175.468-0.053
		c0.828,0,1.656,0.128,2.484,0.196c-1.814,1.184-3.863,0.837-5.834,0.838c-55.277,0.014-110.553,0.014-165.83-0.01
		C40.689,208.743,38.455,209.181,36.528,207.771z"/>
	<path fill-rule="evenodd" clip-rule="evenodd" fill="#EF4822" d="M57.611,84.449c29.961,0.517,59.922,0.18,89.884,0.016
		c15.646-0.086,31.292,0.16,46.938,0.256c-1.102,2.002-2.979,0.969-4.449,0.972c-41.916,0.07-83.833,0.074-125.75,0.045
		C61.98,85.736,59.518,86.405,57.611,84.449z"/>
	<path fill-rule="evenodd" clip-rule="evenodd" fill="#002C59" d="M353.328,264.214c0,4.246,0.104,8.496-0.039,12.738
		c-0.086,2.572-0.965,4.941-3.51,6.159c-2.186,1.046-5.061,1.421-6.658,0.164c-1.953-1.536,0.594-3.438,1.414-5.049
		c2.461-4.825,5.07-9.574,7.621-14.353C352.547,263.987,352.938,264.101,353.328,264.214z"/>
</g>
</svg>
