<svg width="100" height="99" viewBox="0 0 100 99" fill="none" xmlns="http://www.w3.org/2000/svg">
<path fill-rule="evenodd" clip-rule="evenodd" d="M2.47448 95.5388C1.40712 94.5064 0.951376 93.2195 0.95116 91.7637C0.948142 63.4162 0.944477 35.0688 0.957196 6.7215C0.95849 3.85681 2.22527 1.70873 4.84635 0.435266C5.46658 0.134094 6.11743 -0.000215326 6.82024 2.59099e-07C35.7422 0.00948599 64.6645 0.00689916 93.5867 0.0101329C96.2571 0.0105641 99.0373 2.89617 99.0382 5.66665C99.0427 18.5291 99.0407 31.3913 99.0403 44.2535C99.0403 60.0982 99.0354 75.9423 99.0522 91.7868C99.0535 92.7485 98.8163 93.611 98.4337 94.4936C98.0016 94.3798 98.3112 93.9609 98.0333 93.7583C97.9975 93.945 97.9671 94.1026 97.9374 94.2602C97.4523 94.1808 97.4827 93.7596 97.4118 93.4293C97.2458 92.6562 97.0186 91.8973 96.8623 91.1234C95.6664 85.1886 92.1565 81.3531 86.5235 79.1679C79.6588 76.505 72.7804 73.8757 65.9435 71.1419C65.3498 70.9046 64.6994 70.7467 64.3059 70.1632C63.7965 68.1666 63.8142 66.1263 63.7931 64.0895C63.7277 63.0204 63.6795 61.9524 64.0498 60.9193C64.7813 58.7479 65.9866 56.7676 66.5918 54.5378C66.8643 53.5342 67.0557 52.5132 67.3405 51.5146C67.477 51.0354 67.56 50.5171 68.1224 50.3132C69.8572 50.5781 71.0408 49.7837 71.7693 48.2916C73.1667 45.4302 74.1655 42.4696 73.6962 39.2048C73.6237 38.7031 73.5008 38.221 73.2141 37.7953C72.5568 36.8202 71.8344 36.7096 70.9093 37.4546C70.6532 37.6609 70.426 37.9712 70.18 37.4551C70.0487 36.798 70.26 36.171 70.3585 35.5372C71.0714 30.9565 71.7438 26.3703 71.53 21.715C71.3931 18.7421 70.717 15.9613 68.4702 13.7776C67.6212 12.9528 66.6328 12.4164 65.5387 12.0238C65.0678 11.8548 64.5362 11.7235 64.2986 11.23C63.1571 8.85601 60.9601 7.84966 58.7137 6.94722C55.0912 5.49181 51.3357 5.27622 47.4864 5.77617C42.6925 6.39877 38.3581 8.04929 34.7529 11.3238C32.7202 13.1701 31.0781 15.3499 29.8835 17.8431C29.1984 19.2731 29.0259 20.7992 29.038 22.3574C29.0712 26.6377 29.533 30.8821 30.0963 35.1192C30.1797 35.7474 30.4171 36.3845 30.1506 37.0276C29.9409 37.2595 29.6912 37.1384 29.4508 37.1058C28.1864 36.9351 27.6901 37.2373 27.2997 38.4605C27.0921 39.111 26.9449 39.806 26.9867 40.4679C27.1559 43.1637 27.6481 45.784 28.9949 48.1886C29.7695 49.572 30.7605 50.427 32.4546 50.0094C32.8694 50.0709 33.0811 50.3535 33.1539 50.7263C33.8537 54.3006 35.219 57.6336 36.8182 60.884C37.2151 61.9211 37.0972 62.996 37.0588 64.0653C37.0575 66.1074 37.0756 68.1507 36.5479 70.1476C36.2167 70.6245 35.6651 70.7351 35.1787 70.9462C29.6112 73.3642 23.8129 75.1908 18.2245 77.5564C16.3073 78.3679 14.3916 79.1789 12.5005 80.0529C8.68742 81.8147 6.27503 84.7925 4.82867 88.6513C4.10948 90.5693 3.49247 92.5161 3.07661 94.5255C2.99684 94.9112 3.04427 95.4228 2.47448 95.5388Z" fill="#ECF6FD"/>
<path fill-rule="evenodd" clip-rule="evenodd" d="M2.47461 95.5394C3.08342 93.1171 3.70926 90.7053 4.58626 88.3557C6.24174 83.9213 9.31231 80.9654 13.627 79.128C19.6199 76.5763 25.7047 74.2672 31.8103 72.0077C33.3164 71.4502 34.7222 70.6409 36.2921 70.25C36.6414 70.704 36.373 71.1026 36.0981 71.4086C34.9359 72.7012 35.3067 73.9768 36.0694 75.2675C36.9675 76.7872 38.249 77.9056 39.7126 78.8654C46.0963 83.0512 56.1567 82.7485 62.1923 78.1801C63.0652 77.5197 63.7688 76.7201 64.397 75.8384C65.3756 74.4653 65.702 73.0647 64.6704 71.5523C64.4169 71.1809 64.1465 70.7411 64.5635 70.2808C72.4015 73.4146 80.3529 76.2596 88.1297 79.5518C92.6367 81.4602 95.4635 84.7972 96.7389 89.4825C97.17 91.0667 97.5398 92.6674 97.9377 94.2605C98.1882 95.3305 97.43 95.9091 96.79 96.5052C96.1339 97.1162 95.3705 97.5883 94.4918 97.8375C67.8919 98.4427 41.2889 97.9319 14.6877 98.0979C13.4345 98.1059 13.4666 98.088 13.3504 96.9004C13.1189 94.5326 12.4413 92.2657 11.6553 90.0353C11.383 89.2633 11.0316 88.5156 10.7451 87.7425C11.8722 90.3766 12.6679 93.1089 13.2168 95.9149C13.2373 96.0197 13.2784 96.1213 13.2972 96.2273C13.582 97.8485 13.3713 98.0997 11.7174 98.0999C9.85645 98.1001 7.99552 98.1102 6.13481 98.0708C4.5785 97.7127 3.31496 96.9321 2.47461 95.5394Z" fill="#4E6178"/>
<path fill-rule="evenodd" clip-rule="evenodd" d="M6.13428 98.0713C6.43114 97.7701 6.81078 97.8913 7.15637 97.8887C8.70038 97.8777 10.2444 97.8857 11.7886 97.8859C13.2281 97.8861 13.2902 97.8723 12.9989 96.4952C12.3636 93.489 11.6203 90.509 10.3145 87.7047C10.2386 87.5419 10.1442 87.3858 10.0872 87.217C10.0211 87.0198 9.92253 86.7555 10.1582 86.6487C10.3582 86.5582 10.574 86.7227 10.7105 86.8967C10.8196 87.0359 10.9071 87.1978 10.977 87.3613C12.3181 90.4918 13.3176 93.7225 13.7832 97.1042C13.8143 97.3286 13.7013 97.5729 13.6403 97.885C14.0762 97.885 14.4686 97.885 14.8607 97.885C38.3817 97.8855 61.902 97.8859 85.4231 97.8861C87.8241 97.8861 90.2266 97.8417 92.6258 97.91C93.2579 97.9281 93.8592 97.4138 94.4911 97.8374C92.0675 98.5738 89.5734 98.2442 87.1166 98.2487C68.3029 98.2854 49.4895 98.2612 30.6756 98.2571C23.3155 98.2554 15.9557 98.2576 8.59539 98.256C7.77078 98.2563 6.94315 98.2841 6.13428 98.0713Z" fill="#284361"/>
<path fill-rule="evenodd" clip-rule="evenodd" d="M68.2214 50.438C67.4824 51.003 67.5738 51.9072 67.4104 52.6609C66.9111 54.9676 66.0688 57.1377 65.0778 59.2625C64.8395 59.7735 64.6095 60.2881 64.3754 60.8009C62.6203 64.1087 59.9078 66.4753 56.6598 68.1548C52.045 70.5408 47.4308 70.0976 43.0575 67.4438C40.3368 65.793 38.1424 63.5436 36.4921 60.7964C36.215 60.2277 35.9706 59.6402 35.6552 59.0937C34.1924 56.5574 33.5903 53.7304 32.8774 50.9414C32.7987 50.6337 32.8636 50.2767 32.4149 50.2254C31.3898 49.5724 31.1173 48.5227 30.9358 47.4241C30.941 47.3534 30.988 47.2609 30.9606 47.2165C29.9299 45.5436 30.5499 43.6339 30.1901 41.865C30.023 41.0419 29.6953 40.3159 29.0941 39.7234C28.7306 39.3395 28.454 38.9478 29.2758 38.832C29.6996 38.7725 29.9905 38.6397 30.1194 38.1995C30.1998 37.9242 30.3958 37.7961 30.673 38.024C31.4599 39.0577 31.7606 40.2712 31.8936 41.0228C31.7891 38.5461 31.9726 35.5881 32.8683 32.7538C33.5079 30.7312 33.7156 28.6915 33.8022 26.6111C33.8246 26.0732 33.8173 25.5358 33.8788 24.9981C34.3858 20.5551 37.0304 18.526 41.8103 18.0274C43.7844 17.8213 45.7493 18.2788 47.6602 18.7955C50.8862 19.6684 54.0004 19.4099 56.9916 17.9412C57.8764 17.507 58.7327 17.4022 59.6953 17.5432C63.7021 18.1307 66.2913 20.8365 66.6078 24.8815C66.8371 27.8134 67.0266 30.7234 68.0643 33.5454C69.0141 36.1285 68.4191 38.8883 68.5635 41.3776C68.8789 40.5498 69.007 39.4268 69.8053 38.5951C70.4644 38.5401 70.8244 38.9575 71.1413 39.4434C71.1333 40.2546 70.6138 40.9016 70.423 41.6598C70.2895 42.1912 70.1315 42.7242 70.3501 43.2243C70.8802 44.4406 70.5471 45.5199 69.9414 46.579C69.7827 46.8565 69.5813 47.1137 69.5872 47.4565C69.1885 48.4755 69.226 49.6957 68.2214 50.438Z" fill="#EDBBA0"/>
<path fill-rule="evenodd" clip-rule="evenodd" d="M69.9608 38.5993C69.3444 39.948 68.8404 41.3375 68.5308 42.8444C68.0567 42.5197 68.274 42.1274 68.2583 41.8061C68.1279 39.09 68.7 36.2695 67.7392 33.6816C66.5513 30.4819 66.633 27.1466 66.1113 23.8774C65.5795 20.546 63.072 18.3378 59.7074 17.8831C58.7527 17.7542 57.9419 17.8551 57.0412 18.2936C54.0019 19.7738 50.8343 20.02 47.5309 19.1365C44.9736 18.4525 42.3702 17.8945 39.6996 18.7209C35.9794 19.8717 34.5225 21.4881 34.2233 25.3656C33.9971 28.2946 33.7749 31.175 32.9108 34.0308C32.1664 36.4917 32.1269 39.1234 32.1871 41.7154C32.1959 42.0853 32.1884 42.4557 32.0422 42.847C31.7301 41.1268 31.1553 39.5194 30.4518 37.9547C30.0858 37.7766 29.9911 37.4763 30.0679 37.0995C29.3683 32.8147 29.0866 28.4882 28.6802 24.1706C28.2675 19.7859 29.867 16.2867 32.5963 13.0848C36.6853 8.28808 41.9971 6.03112 48.1486 5.3738C52.3029 4.9297 56.3093 5.33651 60.0879 7.16617C61.9447 8.06516 63.8832 8.96738 64.5352 11.2226C64.6054 11.4647 64.7861 11.4315 64.9456 11.4759C69.1465 12.6455 71.0325 15.6915 71.6788 19.7568C72.1744 22.875 71.8952 25.9863 71.5794 29.0901C71.2927 31.9028 70.8884 34.7028 70.3411 37.4796C70.2699 37.8721 70.4269 38.3417 69.9608 38.5993Z" fill="#42342D"/>
<path fill-rule="evenodd" clip-rule="evenodd" d="M64.5631 70.28C64.4659 70.7504 64.6815 71.132 64.9593 71.4614C66.0015 72.6967 65.823 74.0111 65.1202 75.2727C63.7143 77.7955 61.513 79.4322 58.8699 80.4612C52.2808 83.0267 45.8441 82.8171 39.657 79.2069C37.9921 78.2355 36.5907 76.9416 35.6702 75.2191C34.9241 73.8231 34.4981 72.408 35.9285 71.1165C36.1609 70.9065 36.3079 70.5961 36.2919 70.2494C36.6153 68.1919 36.6757 66.116 36.7274 64.0395C37.4065 63.6952 37.7161 64.2699 38.0483 64.6313C38.7746 65.422 39.3481 66.3426 40.0593 67.1484C42.3865 69.7857 45.221 71.6028 48.74 72.0929C52.983 72.6833 56.5317 71.1458 59.576 68.2498C60.6446 67.2329 61.5348 66.066 62.4952 64.957C62.9012 64.4883 63.2364 63.7433 64.1112 64.0272C64.227 66.1136 64.2182 68.2095 64.5631 70.28Z" fill="#EAB194"/>
<path fill-rule="evenodd" clip-rule="evenodd" d="M64.1108 64.0262C62.9091 64.4585 62.3738 65.5892 61.6417 66.4777C58.639 70.121 55.0049 72.6052 50.1277 72.5621C47.1205 72.5354 44.4542 71.3257 42.0603 69.4946C40.5314 68.3248 39.3674 66.847 38.2279 65.331C37.8258 64.7963 37.4666 64.1914 36.7274 64.0394C36.6636 62.957 36.8535 61.8566 36.4922 60.7957C37.2353 61.1836 37.5259 61.9724 38.0412 62.5618C40.6765 65.577 43.5953 68.1525 47.6711 69.0134C52.1986 69.9697 56.1374 68.7465 59.6385 65.8285C61.383 64.3749 62.9574 62.7802 64.1157 60.8084C64.1834 60.6931 64.2858 60.7136 64.3755 60.8002C64.0551 61.8564 64.2039 62.9511 64.1108 64.0262Z" fill="#C4876D"/>
<path fill-rule="evenodd" clip-rule="evenodd" d="M69.9608 38.6006C70.0695 38.2214 70.0854 37.8109 70.3411 37.4817C70.8999 36.988 71.3332 36.2621 72.2936 36.6112C73.3787 37.0057 73.8536 37.8853 73.9914 38.8953C74.5224 42.781 73.4718 46.3172 71.3186 49.5197C70.7315 50.3929 69.5527 51.1194 68.2217 50.4388C68.58 49.4337 68.9383 48.4285 69.2966 47.4234C70.3206 46.1898 70.8658 44.9185 70.4112 43.2016C70.0436 41.8139 70.5578 40.4729 71.6756 39.4989C71.5193 39.4918 71.2621 39.666 71.0243 39.4843C70.6332 39.2331 70.1242 39.1247 69.9608 38.6006Z" fill="#EAB092"/>
<path fill-rule="evenodd" clip-rule="evenodd" d="M30.0677 37.1011C30.1958 37.3861 30.3238 37.6713 30.4516 37.9563C30.4471 38.8452 30.1128 39.3333 29.1316 39.0562C29.0435 39.0314 29.0348 39.0621 29.1976 39.4227C29.1831 39.5767 28.8867 39.6881 29.0984 39.8681C30.2632 40.8596 30.4562 42.226 30.3022 43.5814C30.1654 44.7861 30.3352 45.8338 30.9535 46.8442C31.0652 47.0264 31.1144 47.2409 31.1335 47.4574C31.3914 48.4588 31.9025 49.3424 32.415 50.2255C30.7606 50.7252 30.1242 50.5154 29.1814 49.035C27.1963 45.9183 26.3622 42.5058 26.849 38.8411C27.0538 37.3016 28.1149 35.8494 30.0677 37.1011Z" fill="#EAB193"/>
<path fill-rule="evenodd" clip-rule="evenodd" d="M40.5296 31.8203C42.1985 31.8171 43.7996 32.1353 45.3206 32.8187C45.6748 32.9778 46.0098 33.1999 46.3157 33.4413C46.6908 33.7371 46.787 34.1681 46.6257 34.6038C46.4632 35.0442 46.0389 34.9629 45.6965 34.9241C44.1029 34.7426 42.5509 34.3196 40.9403 34.1944C39.2046 34.0592 37.5136 34.2041 35.8262 34.5531C35.5608 34.6081 35.2637 34.887 35.0641 34.557C34.8824 34.2567 35.0643 33.9236 35.2612 33.6629C36.1494 32.485 37.4588 32.1383 38.8155 31.9262C39.379 31.838 39.9579 31.8522 40.5296 31.8203Z" fill="#41322B"/>
<path fill-rule="evenodd" clip-rule="evenodd" d="M60.7565 31.748C62.1389 31.8356 63.5305 31.938 64.7347 32.7801C65.1225 33.0515 65.4914 33.3455 65.6072 33.8278C65.715 34.2773 65.6822 34.6142 65.0408 34.4655C61.6736 33.684 58.3459 34.1891 55.028 34.8227C54.5557 34.913 54.0781 35.0987 53.8511 34.4907C53.6368 33.9151 53.966 33.5324 54.4263 33.2483C55.7371 32.4399 57.2289 32.2064 58.7048 31.9447C59.3733 31.8263 60.0604 31.8116 60.7565 31.748Z" fill="#41322B"/>
<path fill-rule="evenodd" clip-rule="evenodd" d="M62.6867 38.5777C62.5839 38.5417 62.4795 38.5231 62.3948 38.4727C61.2373 37.7809 61.2382 37.7798 60.9978 39.0449C60.7699 40.2457 59.9695 41.005 59.02 40.9207C57.9201 40.8228 57.2154 39.916 57.2419 38.6266C57.2462 38.422 57.2688 38.2174 57.2839 38.0001C56.5837 37.8902 56.1596 38.4634 55.5752 38.5805C55.6776 37.3092 57.307 36.551 59.651 36.6585C61.5303 36.745 62.7182 37.486 62.6867 38.5777Z" fill="#41322C"/>
<path fill-rule="evenodd" clip-rule="evenodd" d="M37.7954 38.7059C38.0625 37.8507 38.6597 37.3913 39.3448 37.1076C40.7692 36.5173 42.2479 36.4343 43.7462 36.8553C44.3248 37.0179 44.7623 37.3734 45.1119 37.8324C45.2184 37.9719 45.3984 38.1954 45.1706 38.405C44.9714 38.5884 44.8597 38.3679 44.7159 38.2965C43.5815 37.7338 43.5813 37.7341 43.4465 39.0599C43.334 40.168 42.4676 41.014 41.5065 40.9549C40.5965 40.8989 39.9528 40.115 39.9045 39.0047C39.8525 37.7996 39.6568 37.7125 38.573 38.3884C38.3732 38.5132 38.2453 38.7803 37.7954 38.7059Z" fill="#41322B"/>
<path fill-rule="evenodd" clip-rule="evenodd" d="M49.0669 38.6081C48.3742 41.8224 48.7073 45.2321 47.391 48.3771C47.046 49.201 47.3224 49.8553 48.2121 50.1641C48.5161 50.2693 48.8263 50.362 49.1396 50.4344C49.5293 50.5247 50.222 50.3783 50.117 50.9501C50.0189 51.4828 49.3636 51.143 48.9843 51.1023C46.5752 50.8438 46.0002 49.8452 46.9729 47.6281C47.7102 45.9479 47.6311 44.1255 47.9297 42.37C48.1451 41.1032 48.2358 39.8149 48.3824 38.5367C48.4176 38.2301 48.2996 37.722 48.6769 37.7188C49.1993 37.7145 48.9225 38.267 49.0669 38.6081Z" fill="#AF775F"/>
<path fill-rule="evenodd" clip-rule="evenodd" d="M52.2818 57.3449C50.0285 57.3449 47.7747 57.3453 45.5212 57.3445C45.2438 57.3443 44.8788 57.4219 44.8572 57.0144C44.8383 56.6563 45.1638 56.5578 45.46 56.5436C45.9962 56.5179 46.5375 56.4802 47.0706 56.524C49.8228 56.7506 52.5788 56.7098 55.3355 56.7048C55.6421 56.7042 56.1713 56.5048 56.1664 57.0649C56.1621 57.5256 55.6783 57.3443 55.3894 57.3984C54.3611 57.5907 53.3194 57.532 52.2818 57.3449Z" fill="#9F6751"/>
<path fill-rule="evenodd" clip-rule="evenodd" d="M71.0238 39.4834C71.6298 39.1667 72.2033 38.9684 72.6088 40.0944C71.7124 39.4228 71.4177 39.9491 71.1562 40.5158C70.6513 41.6101 70.432 42.704 70.8009 43.926C71.192 45.2216 70.3777 46.942 69.2963 47.4227C69.2685 47.1311 69.317 46.8773 69.4996 46.6206C70.2408 45.5797 70.4672 44.5223 70.0425 43.2102C69.6068 41.8665 70.4599 40.6696 71.0238 39.4834Z" fill="#B57B63"/>
<path fill-rule="evenodd" clip-rule="evenodd" d="M31.1336 47.4561C30.199 46.4678 29.7991 45.327 30.0192 43.9539C30.2109 42.7602 29.9936 41.6105 29.3945 40.5496C29.2916 40.3679 29.0995 40.2351 29.0058 40.0505C28.8318 39.709 28.351 40.6749 28.3692 39.9108C28.3793 39.4747 28.8264 39.4316 29.1976 39.4219C30.5149 40.6481 30.8598 42.2465 30.6382 43.9093C30.5106 44.8663 30.6224 45.6514 31.0985 46.4428C31.2895 46.761 31.6156 47.1025 31.1336 47.4561Z" fill="#B57B63"/>
<path fill-rule="evenodd" clip-rule="evenodd" d="M47.73 59.7441C49.445 60.5202 51.0978 59.9793 52.7678 60.0065C51.6633 61.0038 50.2864 60.8083 48.9694 60.7863C48.4196 60.777 47.8309 60.6502 47.73 59.7441Z" fill="#AD745C"/>
<path fill-rule="evenodd" clip-rule="evenodd" d="M52.6432 50.8935C52.3 50.9161 51.9205 50.8853 51.9738 50.6149C52.1014 49.9639 52.796 50.0751 53.2492 49.8705C53.5081 49.7534 53.8151 49.9136 53.7474 50.2135C53.6103 50.8199 53.0086 50.7574 52.6432 50.8935Z" fill="#A97059"/>
<path fill-rule="evenodd" clip-rule="evenodd" d="M25.0563 21.9679C22.8224 25.4245 19.6201 27.3974 15.5454 27.5371C7.20785 27.8229 1.71453 19.884 4.70211 12.0417C4.95563 11.3766 5.29432 10.7441 5.59355 10.0965C7.54136 7.35638 10.0497 5.43638 13.4417 4.90884C17.8653 4.22134 21.5619 5.66598 24.2968 9.14918C27.0841 12.699 27.3898 16.6722 25.6104 20.8076C25.4409 21.201 25.2415 21.5815 25.0563 21.9679Z" fill="#427E4F"/>
<path fill-rule="evenodd" clip-rule="evenodd" d="M22.4679 12.6218C22.5162 13.1038 22.2719 13.4824 21.9293 13.8271C19.4734 16.2975 17.0336 18.7836 14.5617 21.2378C13.6207 22.1724 12.6836 22.1558 11.7324 21.2475C10.7198 20.2809 9.72293 19.2963 8.74224 18.2968C7.97497 17.5153 7.93617 16.4648 8.60663 15.807C9.29931 15.1277 10.1114 15.1952 10.9682 16.0041C11.0203 16.0535 11.0699 16.1058 11.1212 16.1559C13.096 18.0858 13.088 18.078 14.9828 16.1259C16.4832 14.5799 18.0012 13.0508 19.5232 11.5255C20.1109 10.9368 20.8247 10.7697 21.5879 11.1245C22.1876 11.4035 22.5052 11.9067 22.4679 12.6218Z" fill="#F2EDE9"/>
</svg>
