<svg width="72" height="72" viewBox="0 0 72 72" fill="none" xmlns="http://www.w3.org/2000/svg">
<g clip-path="url(#clip0_1303_1429)">
<path fill-rule="evenodd" clip-rule="evenodd" d="M35.6571 0C15.7714 0 0 16.4571 0 36.3429C0 56.2286 15.7714 72 35.6571 72C55.5429 72 72 56.2286 72 36.3429C72 16.4571 55.5429 0 35.6571 0ZM35.6571 12.3429C23.3143 12.3429 12.3429 23.3143 12.3429 36.3429C12.3429 48.6857 23.3143 59.6571 35.6571 59.6571C48.6857 59.6571 59.6571 48.6857 59.6571 36.3429C59.6571 23.3143 48.6857 12.3429 35.6571 12.3429ZM69.2571 36.3429C69.2571 34.9714 67.8857 33.6 67.2 33.6H64.4571C63.0857 33.6 61.7143 34.9714 61.7143 36.3429C61.7143 37.0286 63.0857 38.4 64.4571 38.4H67.2C67.8857 38.4 69.2571 37.0286 69.2571 36.3429ZM7.54285 38.4C8.91428 38.4 9.6 37.0286 9.6 36.3429C9.6 34.9714 8.91428 33.6 7.54285 33.6H4.8C3.42857 33.6 2.74286 34.9714 2.74286 36.3429C2.74286 37.0286 3.42857 38.4 4.8 38.4H7.54285ZM6.85714 19.2C6.85714 20.5714 6.85714 21.9429 8.22857 22.6286L10.2857 24C11.6571 24.6857 13.0286 24 13.7143 23.3143C13.7143 21.9429 13.7143 20.5714 12.3429 19.8857L10.2857 18.5143C8.91428 17.8286 7.54285 18.5143 6.85714 19.2ZM19.2 7.54286C18.5143 7.54286 17.8286 8.91429 18.5143 10.2857L19.8857 12.3429C20.5714 13.7143 21.9429 14.4 22.6286 13.7143C24 13.0286 24.6857 11.6571 24 10.2857L22.6286 8.22857C21.9429 6.85714 20.5714 6.85714 19.2 7.54286ZM35.6571 2.74286C34.9714 2.74286 33.6 4.11429 33.6 4.8V7.54286C33.6 8.91429 34.9714 9.6 35.6571 9.6C37.0286 9.6 38.4 8.91429 38.4 7.54286V4.8C38.4 4.11429 37.0286 2.74286 35.6571 2.74286ZM52.8 7.54286C51.4286 6.85714 50.0571 6.85714 49.3714 8.22857L48 10.2857C47.3143 11.6571 48 13.0286 48.6857 13.7143C50.0571 14.4 51.4286 13.7143 52.1143 12.3429L53.4857 10.2857C54.1714 8.91429 53.4857 7.54286 52.8 7.54286ZM64.4571 19.2C64.4571 18.5143 63.0857 17.8286 61.7143 18.5143L59.6571 19.8857C58.2857 20.5714 57.6 21.9429 58.2857 23.3143C58.9714 24 60.3429 24.6857 61.7143 24L63.7714 22.6286C65.1429 21.9429 65.1429 20.5714 64.4571 19.2Z" fill="#002C59"/>
<path d="M44.5711 34.9715C41.9201 34.9715 39.7711 32.8224 39.7711 30.1715C39.7711 27.5205 41.9201 25.3715 44.5711 25.3715C47.2221 25.3715 49.3711 27.5205 49.3711 30.1715C49.3711 32.8224 47.2221 34.9715 44.5711 34.9715Z" fill="#002C59"/>
<path d="M27.4285 34.9715C24.7775 34.9715 22.6285 32.8224 22.6285 30.1715C22.6285 27.5205 24.7775 25.3715 27.4285 25.3715C30.0795 25.3715 32.2285 27.5205 32.2285 30.1715C32.2285 32.8224 30.0795 34.9715 27.4285 34.9715Z" fill="#002C59"/>
<path fill-rule="evenodd" clip-rule="evenodd" d="M43.1995 46.6286C43.8852 46.6286 45.2567 46.6286 45.9424 45.9429C45.9424 45.9429 45.9424 44.5714 45.2567 43.8857C42.5138 41.1429 39.0852 39.7714 35.6567 40.4572C32.9138 40.4572 29.4852 41.8286 26.7424 43.8857C26.0567 44.5714 26.0567 45.2572 26.0567 45.9429C26.7424 46.6286 27.4281 46.6286 28.1138 46.6286C30.8567 44.5714 33.5995 43.2 36.3424 43.2C38.3995 43.2 41.1424 43.8857 43.1995 46.6286Z" fill="#EF4822"/>
</g>
<defs>
<clipPath id="clip0_1303_1429">
<rect width="72" height="72" fill="white" transform="matrix(-1 0 0 1 72 0)"/>
</clipPath>
</defs>
</svg>