<svg width="32" height="32" viewBox="0 0 32 32" fill="none" xmlns="http://www.w3.org/2000/svg">
<path fill-rule="evenodd" clip-rule="evenodd" d="M2.83867 30.3333H29.3333C29.8853 30.3333 30.3333 29.8853 30.3333 29.3333C30.3333 28.7813 29.8853 28.3333 29.3333 28.3333H2.83867C2.28667 28.3333 1.83867 28.7813 1.83867 29.3333C1.83867 29.8853 2.28667 30.3333 2.83867 30.3333Z" fill="white"/>
<path fill-rule="evenodd" clip-rule="evenodd" d="M13.3333 30.3333C12.7813 30.3333 12.3333 29.8853 12.3333 29.3333V20.6667C12.3333 20.224 12.5093 19.8013 12.8213 19.488C13.1347 19.176 13.5587 19 14 19H18C18.4413 19 18.8653 19.176 19.1787 19.488C19.4907 19.8013 19.6667 20.224 19.6667 20.6667V29.3333C19.6667 29.8853 19.2187 30.3333 18.6667 30.3333H22.6667C23.2187 30.3333 23.6667 29.8853 23.6667 29.3333V4C23.6667 2.712 22.6213 1.66667 21.3333 1.66667H10.6667C9.37867 1.66667 8.33334 2.712 8.33334 4V29.3333C8.33334 29.8853 8.78134 30.3333 9.33334 30.3333H13.3333ZM17.6667 21V28.3333H14.3333V21H17.6667ZM13.6667 16.6667H13C12.632 16.6667 12.3333 16.368 12.3333 16V15.3333C12.3333 14.9653 12.632 14.6667 13 14.6667H13.6667C14.0347 14.6667 14.3333 14.9653 14.3333 15.3333V16C14.3333 16.368 14.0347 16.6667 13.6667 16.6667ZM19 16.6667H18.3333C17.9653 16.6667 17.6667 16.368 17.6667 16V15.3333C17.6667 14.9653 17.9653 14.6667 18.3333 14.6667H19C19.368 14.6667 19.6667 14.9653 19.6667 15.3333V16C19.6667 16.368 19.368 16.6667 19 16.6667ZM13.6667 12.6667H13C12.632 12.6667 12.3333 12.368 12.3333 12V11.3333C12.3333 10.9653 12.632 10.6667 13 10.6667H13.6667C14.0347 10.6667 14.3333 10.9653 14.3333 11.3333V12C14.3333 12.368 14.0347 12.6667 13.6667 12.6667ZM19 12.6667H18.3333C17.9653 12.6667 17.6667 12.368 17.6667 12V11.3333C17.6667 10.9653 17.9653 10.6667 18.3333 10.6667H19C19.368 10.6667 19.6667 10.9653 19.6667 11.3333V12C19.6667 12.368 19.368 12.6667 19 12.6667ZM13.6667 8.66667H13C12.632 8.66667 12.3333 8.368 12.3333 8V7.33333C12.3333 6.96533 12.632 6.66667 13 6.66667H13.6667C14.0347 6.66667 14.3333 6.96533 14.3333 7.33333V8C14.3333 8.368 14.0347 8.66667 13.6667 8.66667ZM19 8.66667H18.3333C17.9653 8.66667 17.6667 8.368 17.6667 8V7.33333C17.6667 6.96533 17.9653 6.66667 18.3333 6.66667H19C19.368 6.66667 19.6667 6.96533 19.6667 7.33333V8C19.6667 8.368 19.368 8.66667 19 8.66667Z" fill="white"/>
<path fill-rule="evenodd" clip-rule="evenodd" d="M7 7H5.33333C4.04533 7 3 8.04533 3 9.33333V29.3333C3 29.8853 3.448 30.3333 4 30.3333H7.224C7.08 30.0307 7 29.6907 7 29.3333V7Z" fill="white"/>
<path fill-rule="evenodd" clip-rule="evenodd" d="M25 7V29.3333C25 29.6907 24.92 30.0307 24.776 30.3333H28C28.552 30.3333 29 29.8853 29 29.3333V9.33333C29 8.04533 27.9547 7 26.6667 7H25Z" fill="white"/>
</svg>
