<svg width="32" height="32" viewBox="0 0 32 32" fill="none" xmlns="http://www.w3.org/2000/svg">
<g clip-path="url(#clip0_625_476)">
<path d="M0.000183105 32H12.4994V24.8336H19.5006V32H31.9998V17.8534H0.000183105V32ZM27.2517 20.4266H29.127V23.5313H27.2517V20.4266ZM27.2517 25.4067H29.127V28.5113H27.2517V25.4067ZM23.3762 20.4266H25.2515V23.5313H23.3762V20.4266ZM23.3762 25.4067H25.2515V28.5113H23.3762V25.4067ZM12.4994 20.7288H19.5006V22.6041H12.4994V20.7288ZM6.74845 20.4266H8.62375V23.5313H6.74845V20.4266ZM6.74845 25.4067H8.62375V28.5113H6.74845V25.4067ZM2.87296 20.4266H4.74826V23.5313H2.87296V20.4266ZM4.74826 25.4067V28.5113H2.87296V25.4067H4.74826Z" fill="white"/>
<path d="M14.3748 26.7089H17.6253V32H14.3748V26.7089Z" fill="white"/>
<path d="M4.37311 12.8523H27.6268V15.9781H4.37311V12.8523Z" fill="white"/>
<path d="M17.1047 7.01837H16.9376V5.41756H21.2538V0H15.0623V7.01837H14.8953C12.2766 7.01837 10.0363 8.66508 9.15253 10.9769H22.8475C21.9637 8.66508 19.7234 7.01837 17.1047 7.01837Z" fill="white"/>
</g>
<defs>
<clipPath id="clip0_625_476">
<rect width="32" height="32" fill="white"/>
</clipPath>
</defs>
</svg>
