<svg width="28" height="28" viewBox="0 0 28 28" fill="none" xmlns="http://www.w3.org/2000/svg">
<path d="M14 0C11.2311 0 8.52431 0.821086 6.22202 2.35943C3.91973 3.89777 2.12532 6.08427 1.06569 8.64243C0.00606596 11.2006 -0.271181 14.0155 0.269012 16.7313C0.809205 19.447 2.14258 21.9416 4.10051 23.8995C6.05845 25.8574 8.55301 27.1908 11.2687 27.731C13.9845 28.2712 16.7994 27.9939 19.3576 26.9343C21.9157 25.8747 24.1022 24.0803 25.6406 21.778C27.1789 19.4757 28 16.7689 28 14C27.9958 10.2882 26.5195 6.72971 23.8949 4.1051C21.2703 1.4805 17.7118 0.00416341 14 0ZM20.3545 20.6875C20.2643 20.7849 20.1549 20.8627 20.0333 20.9158C19.9116 20.969 19.7802 20.9964 19.6475 20.9964C19.5147 20.9964 19.3833 20.969 19.2617 20.9158C19.14 20.8627 19.0306 20.7849 18.9404 20.6875L13.293 15.0405C13.1054 14.853 13 14.5987 13 14.3335V5C13 4.73478 13.1053 4.48043 13.2929 4.29289C13.4804 4.10536 13.7348 4 14 4C14.2652 4 14.5195 4.10536 14.7071 4.29289C14.8946 4.48043 15 4.73478 15 5V13.9194L20.3545 19.2734C20.4487 19.3655 20.5235 19.4755 20.5746 19.5969C20.6257 19.7183 20.652 19.8487 20.652 19.9805C20.652 20.1122 20.6257 20.2426 20.5746 20.364C20.5235 20.4854 20.4487 20.5954 20.3545 20.6875Z" fill="white"/>
</svg>
