<svg width="106" height="180" viewBox="0 0 106 180" fill="none" xmlns="http://www.w3.org/2000/svg">
<path fill-rule="evenodd" clip-rule="evenodd" d="M18.6118 147.426C15.7081 145.726 14.6827 142.966 14.3279 139.829C14.2628 139.255 14.0965 138.669 14.1589 138.108C14.2872 136.957 13.7472 136.749 12.7553 136.825C11.0581 136.956 9.43529 136.627 7.92805 135.802C4.93389 134.163 3.33598 131.584 3.07766 128.238C2.75508 124.061 2.73907 119.867 2.623 115.679C2.45104 109.482 2.21202 103.287 2.00628 97.0913C1.87065 93.0062 1.74009 88.9208 1.61284 84.8355C1.401 78.0257 1.19043 71.2155 0.985201 64.4055C0.846517 59.8086 0.713421 55.2117 0.585913 50.6145C0.44164 45.4037 0.356804 40.1908 0.141666 34.983C0.0586074 32.9731 -0.00387654 30.965 0.000187468 28.9559C0.0116175 23.1603 4.60344 18.586 10.3814 18.5705C12.4955 18.5647 14.6103 18.5286 16.7236 18.566C17.4429 18.5789 17.6433 18.3559 17.6385 17.6437C17.5994 12.0857 17.6273 6.52711 17.5608 0.969578C17.5483 -0.0532822 17.8585 -0.0713147 18.6403 0.225866C19.3609 0.499933 19.9242 0.986596 20.5293 1.42449C21.6027 2.20199 22.2565 2.20504 23.3035 1.43364C23.495 1.29241 23.6631 1.11969 23.8486 0.970088C25.4297 -0.303217 26.2123 -0.299155 27.8 0.987358C29.5275 2.38665 29.8874 2.37979 31.6636 0.914715C32.986 -0.175709 34.0035 -0.188917 35.3322 0.875853C35.5712 1.06737 35.7866 1.28886 36.0251 1.48164C36.9128 2.19945 37.6903 2.21291 38.6268 1.52127C38.9829 1.25812 39.3169 0.965768 39.6695 0.698051C40.7172 -0.0977323 41.6979 -0.102303 42.7538 0.689162C43.0805 0.934019 43.3764 1.22053 43.7073 1.45904C44.7335 2.19843 45.3743 2.19538 46.3982 1.45599C46.6184 1.29673 46.81 1.09836 47.022 0.92767C48.5466 -0.300677 49.3947 -0.30652 50.9296 0.894395C51.2773 1.16643 51.6103 1.46285 51.9817 1.69907C52.6931 2.15195 53.4048 2.09988 54.0734 1.58959C54.4795 1.27971 54.8663 0.944686 55.272 0.634551C56.1899 -0.0675063 57.2667 -0.0995103 58.209 0.549715C58.4892 0.742502 58.7546 0.957387 59.0167 1.17532C60.3169 2.25762 61.0205 2.2947 62.3764 1.28911C63.0434 0.794572 63.7614 0.429066 64.5598 0.209609C64.9974 0.0892129 65.1127 0.174049 65.1092 0.686622C65.0693 6.31248 65.0827 11.9386 65.0416 17.5647C65.0363 18.3165 65.2191 18.5672 66.0035 18.5518C68.3896 18.505 70.7835 18.6567 73.1628 18.5218C77.7462 18.2622 82.064 21.9018 83.0939 26.36C83.5539 28.3506 83.5262 30.3524 83.4071 32.3549C83.3677 33.0156 83.5534 33.1037 84.1005 33.0702C88.9382 32.7755 93.8539 38.8365 93.175 43.4174C92.8267 45.7654 92.8404 48.1667 92.6883 50.5436C92.3586 55.7044 92.0231 60.8649 91.699 66.0257C91.541 68.5393 91.4119 71.0542 91.2552 73.5678C90.9314 78.7634 90.5905 83.9579 90.2702 89.1535C90.1066 91.8032 89.9819 94.4553 89.8229 97.1052C89.5539 101.589 89.4572 106.094 88.9431 110.55C88.4389 114.919 86.2222 118.496 80.9329 119.483C80.191 119.622 79.9631 119.908 79.9428 120.664C79.908 121.955 79.7607 123.244 79.815 124.541C79.9974 124.757 80.1176 125.011 80.1036 125.288C79.972 127.877 79.8658 130.465 78.4376 132.776C76.6781 135.624 74.099 137.029 70.8074 137.156C69.0035 137.226 67.1953 137.171 65.3891 137.171C50.5305 137.172 35.6718 137.171 20.813 137.172C18.9669 137.172 18.9664 137.175 18.9651 139.031C18.9636 141.348 18.973 143.666 18.9588 145.983C18.9545 146.484 19.0342 147.019 18.6118 147.426Z" fill="#002C59"/>
<path fill-rule="evenodd" clip-rule="evenodd" d="M18.6125 147.426C18.6122 144.393 18.6046 141.36 18.6142 138.327C18.6196 136.669 18.4227 136.83 20.0674 136.83C36.8355 136.826 53.6031 136.803 70.3709 136.841C75.7654 136.853 79.3018 132.852 79.598 127.795C79.6615 126.71 79.7418 125.626 79.8147 124.541C86.4959 124.544 93.1779 124.615 99.8571 124.518C102.769 124.476 105.461 127.254 105.431 130.053C105.301 142.085 105.367 154.118 105.387 166.151C105.391 168.48 105.599 170.811 105.54 173.137C105.491 175.09 105.376 177.063 103.697 178.543C102.604 179.508 101.363 179.981 99.9874 179.982C74.7971 180.005 49.6071 180.004 24.4169 179.992C20.9599 179.99 18.6203 177.574 18.6193 174.116C18.6168 165.219 18.6148 156.322 18.6125 147.426Z" fill="#EFB41D"/>
<path fill-rule="evenodd" clip-rule="evenodd" d="M9.84973 45.0017C9.90688 43.7914 10.0641 42.5762 10.0006 41.3723C9.8665 38.8307 11.0054 37.228 13.357 36.4053C13.6486 36.1401 14.0032 36.2788 14.327 36.2697C16.6567 36.2044 18.9897 36.3766 21.3179 36.1698C21.5863 36.1462 21.8617 36.1546 22.0974 36.3258C27.7806 36.3337 33.4639 36.3461 39.1472 36.3479C48.7116 36.3512 58.276 36.3481 67.8401 36.3476C70.881 36.3474 71.9633 37.0774 73.0357 39.8546C73.2323 40.1693 73.138 40.5186 73.1383 40.8506C73.1439 51.734 73.1436 62.6171 73.1418 73.5003C73.1418 74.356 73.101 75.2039 72.4312 75.8602C71.3575 77.2907 69.9694 77.9224 68.1398 77.9186C50.5439 77.8828 32.948 77.8965 15.3519 77.8955C11.9112 77.8955 10.7177 76.9938 9.85456 73.7441C9.62824 73.5168 9.72273 73.2283 9.72248 72.9669C9.7174 63.9054 9.7174 54.8437 9.72222 45.7822C9.72273 45.5201 9.63282 45.2326 9.84973 45.0017Z" fill="#F7F6F2"/>
<path fill-rule="evenodd" clip-rule="evenodd" d="M21.6903 26.5346C21.5191 24.1229 21.6278 21.7084 21.6278 19.2954C21.6278 15.1762 21.6732 11.0574 21.6885 6.93849C21.6905 6.4376 21.6316 6.06854 22.3888 6.07032C35.2569 6.10131 48.1251 6.09902 60.9933 6.1041C61.0273 6.1041 61.0614 6.10969 61.0951 6.11299C61.4109 6.29536 61.2689 6.60169 61.2691 6.84858C61.2778 13.1666 61.278 19.4846 61.2681 25.8026C61.2679 26.0419 61.4218 26.3563 61.0756 26.5151L61.151 26.529L61.1586 26.4526C60.9082 26.8171 60.5341 26.6322 60.2247 26.6324C47.7129 26.6431 35.2011 26.6423 22.6892 26.6367C22.3565 26.6367 22.0065 26.7297 21.6903 26.5346Z" fill="#F7F6F2"/>
<path fill-rule="evenodd" clip-rule="evenodd" d="M70.7982 118.367C70.798 120.889 70.8018 123.411 70.7967 125.934C70.7934 127.466 69.9958 128.375 68.4373 128.397C64.8251 128.45 61.2115 128.447 57.5986 128.411C56.3077 128.399 55.4556 127.453 55.453 126.165C55.4434 121.053 55.4421 115.94 55.453 110.827C55.4561 109.322 56.3636 108.405 57.8681 108.397C61.481 108.377 65.0939 108.375 68.7068 108.384C70.0159 108.388 70.7881 109.173 70.7949 110.493C70.8079 113.118 70.7987 115.742 70.7982 118.367Z" fill="#0C4580"/>
<path fill-rule="evenodd" clip-rule="evenodd" d="M41.51 128.43C39.7394 128.43 37.9685 128.44 36.1981 128.426C34.6863 128.414 33.8044 127.536 33.7698 126.013C33.7488 125.095 33.7488 124.175 33.7688 123.256C33.8026 121.703 34.6464 120.877 36.1872 120.862C38.1582 120.844 40.1275 120.802 42.0983 120.715C43.8582 120.638 45.6291 120.785 47.3939 120.86C48.4976 120.907 49.2418 121.683 49.287 122.867C49.3297 123.989 49.3302 125.116 49.2839 126.238C49.2311 127.523 48.2728 128.4 46.9243 128.417C45.1199 128.44 43.3149 128.422 41.5103 128.422C41.51 128.425 41.51 128.427 41.51 128.43Z" fill="#0C4580"/>
<path fill-rule="evenodd" clip-rule="evenodd" d="M41.5563 115.977C39.7526 115.977 37.9487 115.986 36.1451 115.974C34.6668 115.964 33.8189 115.128 33.7793 113.635C33.7539 112.683 33.7582 111.729 33.7783 110.777C33.811 109.224 34.6602 108.39 36.1966 108.388C39.7699 108.384 43.3434 108.383 46.9167 108.388C48.3513 108.39 49.2352 109.203 49.2848 110.61C49.3229 111.698 49.3218 112.789 49.2893 113.877C49.2495 115.206 48.487 115.958 47.1717 115.971C45.3 115.99 43.428 115.976 41.5563 115.977Z" fill="#0C4580"/>
<path fill-rule="evenodd" clip-rule="evenodd" d="M41.5054 103.481C39.6997 103.481 37.8938 103.489 36.0881 103.478C34.7216 103.469 33.8447 102.654 33.783 101.291C33.7383 100.304 33.7409 99.3135 33.7795 98.327C33.8419 96.725 34.7015 95.9175 36.3141 95.9137C39.7894 95.9063 43.2646 95.9068 46.7398 95.9124C48.4856 95.9155 49.2852 96.7265 49.2959 98.4855C49.3012 99.3714 49.3141 100.258 49.2923 101.143C49.2555 102.624 48.3992 103.47 46.9227 103.481C45.117 103.494 43.3111 103.484 41.5054 103.484C41.5054 103.483 41.5054 103.482 41.5054 103.481Z" fill="#0C4580"/>
<path fill-rule="evenodd" clip-rule="evenodd" d="M63.1479 103.486C61.3102 103.486 59.4723 103.496 57.6346 103.483C56.3049 103.473 55.4916 102.673 55.4563 101.328C55.4286 100.274 55.4235 99.2174 55.4563 98.1635C55.4987 96.8079 56.3509 95.937 57.7215 95.926C61.3285 95.8966 64.9361 95.894 68.5432 95.9215C69.9465 95.9319 70.7863 96.8521 70.7984 98.2659C70.8076 99.3208 70.8114 100.376 70.7951 101.431C70.7756 102.707 70.0443 103.458 68.7629 103.473C66.8917 103.496 65.0194 103.479 63.1479 103.479C63.1479 103.482 63.1479 103.484 63.1479 103.486Z" fill="#0C4580"/>
<path fill-rule="evenodd" clip-rule="evenodd" d="M20.0069 120.862C21.7775 120.862 23.5479 120.856 25.3186 120.864C26.7206 120.871 27.6015 121.749 27.6206 123.155C27.6333 124.109 27.6409 125.063 27.6208 126.016C27.5908 127.463 26.6894 128.405 25.2657 128.414C21.7247 128.437 18.1834 128.439 14.6422 128.421C13.2639 128.414 12.3297 127.484 12.2921 126.126C12.2647 125.139 12.2683 124.15 12.2975 123.163C12.3407 121.683 13.201 120.868 14.6952 120.862C16.4656 120.856 18.2363 120.861 20.0069 120.862Z" fill="#0C4580"/>
<path fill-rule="evenodd" clip-rule="evenodd" d="M19.9373 115.966C18.1672 115.966 16.397 115.976 14.6269 115.963C13.2205 115.953 12.3452 115.111 12.2927 113.695C12.2573 112.743 12.2563 111.788 12.2914 110.836C12.3495 109.263 13.2535 108.393 14.8172 108.39C18.2551 108.382 21.6935 108.384 25.1314 108.392C26.6998 108.397 27.583 109.281 27.6069 110.859C27.6208 111.778 27.629 112.698 27.6043 113.616C27.5642 115.111 26.7184 115.952 25.2477 115.963C23.4776 115.977 21.7074 115.967 19.9373 115.966Z" fill="#0C4580"/>
<path fill-rule="evenodd" clip-rule="evenodd" d="M19.8778 103.479C18.1407 103.478 16.4036 103.488 14.6667 103.475C13.1905 103.465 12.336 102.626 12.2923 101.137C12.2664 100.253 12.2804 99.3662 12.288 98.4808C12.302 96.8879 13.132 95.9433 14.7 95.925C18.2756 95.8844 21.8526 95.8892 25.4285 95.9265C26.7074 95.94 27.5537 96.8651 27.5966 98.1686C27.6279 99.1214 27.6327 100.077 27.5966 101.029C27.5364 102.64 26.683 103.465 25.0886 103.476C23.3518 103.489 21.6146 103.479 19.8778 103.479Z" fill="#0C4580"/>
<path fill-rule="evenodd" clip-rule="evenodd" d="M41.6162 90.9833C39.9129 90.9825 38.2101 90.9896 36.507 90.9805C34.9276 90.9721 33.9256 90.0841 33.7938 88.5469C33.7414 87.9383 33.7407 87.3181 33.7912 86.7092C33.9152 85.219 34.7689 84.4443 36.251 84.4425C39.7935 84.4382 43.3358 84.4382 46.8781 84.444C48.4305 84.4466 49.255 85.266 49.2908 86.8306C49.3048 87.4433 49.3259 88.059 49.2832 88.6693C49.1814 90.1273 48.2845 90.9683 46.8275 90.9802C45.0907 90.9945 43.3531 90.9835 41.6162 90.9833Z" fill="#0C4580"/>
<path fill-rule="evenodd" clip-rule="evenodd" d="M63.2232 84.4403C64.9608 84.4403 66.6984 84.4327 68.4357 84.4426C69.9846 84.4515 70.7718 85.2254 70.7957 86.7469C70.8056 87.3943 70.8053 88.042 70.7941 88.689C70.77 90.0435 69.9389 90.9544 68.5757 90.9663C64.93 90.9986 61.2841 90.9991 57.6384 90.963C56.3598 90.9506 55.5038 90.0212 55.453 88.7311C55.4248 88.0169 55.4299 87.2998 55.4517 86.5851C55.4891 85.374 56.3804 84.4685 57.6008 84.4515C59.4744 84.4251 61.3486 84.4446 63.2229 84.4446C63.2232 84.4431 63.2232 84.4418 63.2232 84.4403Z" fill="#0C4580"/>
<path fill-rule="evenodd" clip-rule="evenodd" d="M19.944 84.4411C21.7489 84.4416 23.5541 84.465 25.3588 84.4317C26.2958 84.4147 27.0418 84.8335 27.3232 85.6227C27.8091 86.9852 27.8312 88.4317 27.2457 89.7985C26.8645 90.6885 26.0306 90.9694 25.1426 90.975C21.6349 90.9971 18.1269 90.9956 14.6194 90.9778C13.4395 90.972 12.7403 90.389 12.4141 89.2374C12.3501 89.0111 12.2955 88.7741 12.2882 88.5404C12.2041 85.8015 12.0758 84.1569 16.1642 84.4274C17.419 84.5107 18.6836 84.4403 19.944 84.4411Z" fill="#0C4580"/>
<path fill-rule="evenodd" clip-rule="evenodd" d="M66.9887 27.1415C67.2943 27.1413 67.6003 27.156 67.9046 27.1385C68.8645 27.0839 69.3921 27.6346 69.528 28.4791C69.6692 29.3579 69.1767 29.9587 68.3436 30.2546C67.4192 30.5827 66.4604 30.3755 65.5178 30.4159C65.2343 30.4281 65.0735 30.2713 65.0718 29.9846C65.0664 29.2043 65.072 28.424 65.0664 27.6437C65.0634 27.2266 65.3184 27.1375 65.6654 27.141C66.1066 27.1453 66.5478 27.142 66.9887 27.1415Z" fill="#0C4580"/>
<path fill-rule="evenodd" clip-rule="evenodd" d="M17.4114 28.8584C17.4106 30.4294 17.4106 30.4307 15.8623 30.4271C15.3885 30.4261 14.909 30.4601 14.4419 30.4002C13.5237 30.2823 13.0139 29.5777 13.0799 28.6003C13.1361 27.7738 13.7337 27.1916 14.5923 27.1477C14.9636 27.1284 15.3367 27.1406 15.7091 27.1398C17.4124 27.1365 17.4124 27.1365 17.4114 28.8584Z" fill="#0C4580"/>
<path fill-rule="evenodd" clip-rule="evenodd" d="M22.0998 36.3249C19.1864 36.3513 16.273 36.3777 13.3596 36.4044C13.2753 35.9279 13.6591 36.1639 13.7902 36.1682C17.6703 36.297 21.541 35.9459 25.4186 35.9492C39.5918 35.9619 53.765 35.9546 67.9378 35.9546C68.3381 35.9546 68.7379 35.9546 69.3589 35.9546C68.7894 36.2452 68.4117 36.1466 68.0508 36.1469C53.1623 36.1537 38.2735 36.1524 23.385 36.1616C22.9563 36.1621 22.4955 36.0214 22.0998 36.3249Z" fill="#001507"/>
<path fill-rule="evenodd" clip-rule="evenodd" d="M21.6914 26.5352C34.4072 26.5334 47.123 26.5321 59.8387 26.5265C60.2787 26.5263 60.7188 26.4788 61.1595 26.4531C60.9635 26.8677 60.5799 26.7401 60.2606 26.7404C47.6137 26.746 34.9665 26.7465 22.3193 26.7351C22.1148 26.7348 21.7821 26.9599 21.6914 26.5352Z" fill="#000100"/>
<path fill-rule="evenodd" clip-rule="evenodd" d="M72.4336 75.859C72.885 74.9675 73.0625 74.0348 73.0602 73.0244C73.0368 61.9672 73.0414 50.9103 73.0381 39.8534C73.0493 39.8214 73.0518 39.78 73.0734 39.7589C73.1097 39.7236 73.158 39.7013 73.2012 39.6738C73.2174 39.8689 73.2482 40.0637 73.2482 40.2588C73.2505 51.4854 73.2553 62.7119 73.2388 73.9385C73.2375 74.6561 73.286 75.4653 72.4336 75.859Z" fill="#030801"/>
<path fill-rule="evenodd" clip-rule="evenodd" d="M9.85076 44.9997C9.86397 52.0327 9.88099 59.0662 9.88785 66.0998C9.89039 68.6471 9.86727 71.1948 9.8561 73.7424C9.82867 73.8752 9.80072 74.0083 9.77329 74.1414C9.74713 74.1417 9.72122 74.1417 9.69531 74.1417C9.69531 63.2029 9.69531 52.2641 9.69531 41.3253C9.74713 41.3243 9.79895 41.3233 9.85102 41.3223C9.85076 42.5481 9.85076 43.7739 9.85076 44.9997Z" fill="#000400"/>
<path fill-rule="evenodd" clip-rule="evenodd" d="M61.0781 26.5161C61.0842 19.7153 61.0906 12.9144 61.0972 6.11328C61.5107 6.3147 61.375 6.6985 61.3756 7.01702C61.3814 13.221 61.3809 19.4249 61.3728 25.6287C61.3723 25.9441 61.514 26.334 61.0781 26.5161Z" fill="#010501"/>
<path fill-rule="evenodd" clip-rule="evenodd" d="M34.3365 154.43C32.4957 154.43 30.6512 154.353 28.816 154.452C27.1851 154.541 25.1996 152.852 25.3223 150.958C25.4406 149.126 25.449 147.272 25.3248 145.44C25.1285 142.547 27.319 141.407 29.2578 141.367C32.6649 141.298 36.0749 141.303 39.482 141.363C41.94 141.407 43.3555 142.95 43.3632 145.412C43.3687 147.218 43.3748 149.025 43.3647 150.831C43.3527 152.944 41.8663 154.422 39.7558 154.429C37.9494 154.436 36.1427 154.431 34.3365 154.43Z" fill="#002C59"/>
<path fill-rule="evenodd" clip-rule="evenodd" d="M39.6579 168.149C43.3374 168.149 47.0173 168.147 50.6968 168.15C52.2459 168.15 53.1611 168.784 53.1626 169.847C53.1639 170.895 52.2071 171.588 50.6897 171.59C43.2622 171.598 35.8347 171.601 28.4072 171.591C26.7275 171.589 25.8009 170.42 26.4349 169.137C26.8596 168.278 27.665 168.148 28.5167 168.148C32.2304 168.149 35.9442 168.149 39.6579 168.149Z" fill="#002C59"/>
<path fill-rule="evenodd" clip-rule="evenodd" d="M53.1339 160.135C55.0092 160.134 56.8847 160.128 58.7597 160.136C60.0196 160.142 60.5172 160.548 60.5639 161.575C60.6127 162.658 59.9949 163.352 58.8204 163.397C57.5268 163.448 56.2296 163.414 54.9337 163.414C52.5129 163.414 50.0917 163.416 47.6706 163.411C46.854 163.409 46.0899 163.278 45.7308 162.399C45.2487 161.218 45.9195 160.16 47.2007 160.143C49.1781 160.116 51.156 160.136 53.1339 160.135Z" fill="#002C59"/>
<path fill-rule="evenodd" clip-rule="evenodd" d="M33.8676 160.136C35.7744 160.135 37.6815 160.128 39.5882 160.139C40.543 160.144 41.2067 160.691 41.3137 161.516C41.414 162.288 40.8415 163.047 39.954 163.295C39.7277 163.358 39.4887 163.407 39.2555 163.408C35.5438 163.416 31.8318 163.434 28.1204 163.41C26.5999 163.4 25.8212 162.048 26.5588 160.823C26.909 160.241 27.4419 160.135 28.0447 160.136C29.9855 160.137 31.9266 160.136 33.8676 160.136Z" fill="#002C59"/>
<path fill-rule="evenodd" clip-rule="evenodd" d="M60.4252 48.1846C60.4344 48.8712 60.1235 49.3809 59.6744 49.8297C53.2622 56.2384 46.8558 62.6535 40.4341 69.0528C39.2228 70.2598 37.7526 70.2788 36.5433 69.0878C33.0226 65.6202 29.523 62.1307 26.033 58.6316C25.0663 57.6624 25.0762 56.4551 26.0082 55.4592C26.5898 54.8374 27.2042 54.2461 27.8116 53.6489C28.9251 52.5537 30.1893 52.5458 31.2964 53.6466C33.5441 55.8813 35.7971 58.1112 38.0084 60.3817C38.4821 60.8678 38.7095 60.8115 39.1557 60.3621C44.3414 55.1368 49.5502 49.9341 54.7516 44.7243C56.0783 43.3957 56.5428 43.3929 57.855 44.7071C58.457 45.3103 59.0673 45.9047 59.6795 46.4973C60.1664 46.9682 60.4674 47.5158 60.4252 48.1846Z" fill="#0F993E"/>
<path fill-rule="evenodd" clip-rule="evenodd" d="M56.2852 12.1981C56.8994 13.3416 56.6668 14.0026 55.4346 14.6142C55.064 14.5296 54.6876 14.5713 54.314 14.571C45.7242 14.5685 37.1344 14.5682 28.5443 14.5715C28.1717 14.5715 27.7945 14.52 27.426 14.6254C25.9832 13.9678 25.7567 12.937 26.8146 11.8448C27.3122 11.7237 27.8171 11.7044 28.3284 11.7049C36.8026 11.7102 45.2774 11.7153 53.7516 11.699C54.6421 11.6978 55.5199 11.6241 56.2852 12.1981Z" fill="#003725"/>
<path fill-rule="evenodd" clip-rule="evenodd" d="M48.4835 18.6133C49.2105 18.7964 49.6517 19.248 49.7213 20.0026C49.7853 20.6963 49.5575 21.2577 48.8841 21.5688C47.9852 21.7547 47.0749 21.7337 46.164 21.7329C40.4543 21.7293 34.7447 21.7286 29.035 21.7342C28.3545 21.7349 27.6784 21.7276 27.0108 21.5805C26.3121 21.282 26.1074 20.7037 26.1886 20.0153C26.275 19.2846 26.6705 18.7794 27.4205 18.6074C27.7868 18.7177 28.1627 18.6636 28.5336 18.6641C34.8122 18.6676 41.0909 18.6676 47.3692 18.6641C47.7408 18.6638 48.1163 18.7123 48.4835 18.6133Z" fill="#003625"/>
<path fill-rule="evenodd" clip-rule="evenodd" d="M56.2832 12.1972C54.9502 11.6262 53.543 11.8086 52.1582 11.8068C44.4729 11.799 36.7876 11.8015 29.1026 11.8045C28.3393 11.8045 27.5758 11.8305 26.8125 11.8442C27.1602 11.4916 27.6078 11.5109 28.0508 11.5109C36.9019 11.5086 45.7531 11.5086 54.6042 11.5C55.273 11.4992 55.8552 11.6471 56.2832 12.1972Z" fill="#000300"/>
<path fill-rule="evenodd" clip-rule="evenodd" d="M27.4219 14.6261C27.7175 14.3762 28.0731 14.474 28.4033 14.4737C37.0833 14.4689 45.7633 14.4694 54.4432 14.475C54.7747 14.475 55.1283 14.3823 55.4305 14.6147C55.1265 14.6401 54.8219 14.6873 54.5176 14.6873C45.7909 14.6909 37.064 14.6906 28.337 14.6871C28.0322 14.6868 27.7272 14.6472 27.4219 14.6261Z" fill="#010400"/>
<path fill-rule="evenodd" clip-rule="evenodd" d="M27.0117 21.5805C27.6129 21.3077 28.1916 21.6565 28.7907 21.6532C34.9289 21.6163 41.0671 21.6173 47.205 21.6537C47.773 21.657 48.3147 21.3143 48.8847 21.5686C48.538 21.8411 48.1334 21.8358 47.7196 21.8358C41.2076 21.831 34.6955 21.831 28.1837 21.8355C27.7697 21.836 27.366 21.8335 27.0117 21.5805Z" fill="#010501"/>
<path fill-rule="evenodd" clip-rule="evenodd" d="M48.4846 18.6133C48.2197 18.8337 47.9009 18.7621 47.6017 18.7624C41.1681 18.7667 34.7343 18.7669 28.3007 18.7634C28.0023 18.7631 27.6822 18.8406 27.4219 18.6074C34.443 18.6092 41.4638 18.6112 48.4846 18.6133Z" fill="#000200"/>
<path fill-rule="evenodd" clip-rule="evenodd" d="M41.121 147.958C41.121 148.842 41.1332 149.726 41.1177 150.609C41.1004 151.582 40.5802 152.134 39.6206 152.151C38.1931 152.176 36.7649 152.136 35.3379 152.171C34.7258 152.186 34.6021 151.918 34.6066 151.377C34.6264 149.1 34.6267 146.822 34.6056 144.545C34.6003 143.996 34.7418 143.747 35.3458 143.762C36.7727 143.798 38.2012 143.758 39.6285 143.781C40.6303 143.796 41.0915 144.282 41.1121 145.307C41.1299 146.19 41.1159 147.074 41.1159 147.958C41.1174 147.958 41.1192 147.958 41.121 147.958Z" fill="#EFB41D"/>
<path fill-rule="evenodd" clip-rule="evenodd" d="M30.04 148.516C32.4903 148.516 32.4499 148.517 32.5061 150.987C32.5269 151.904 32.3049 152.286 31.3341 152.176C30.5939 152.092 29.8365 152.177 29.0875 152.156C28.0704 152.128 27.629 151.664 27.5937 150.633C27.5213 148.515 27.5213 148.515 30.04 148.516Z" fill="#EFB41D"/>
<path fill-rule="evenodd" clip-rule="evenodd" d="M30.0272 146.841C29.7552 146.842 29.476 146.881 29.2121 146.835C28.5466 146.717 27.4857 147.35 27.5713 145.83C27.6648 144.166 27.9048 143.789 29.3638 143.775C29.5339 143.773 29.7041 143.77 29.8741 143.775C30.6846 143.798 31.7849 143.52 32.222 143.936C32.6391 144.333 32.3246 145.46 32.4087 146.259C32.4598 146.742 32.2949 146.858 31.8639 146.845C31.2525 146.826 30.6399 146.84 30.0272 146.841Z" fill="#EFB41D"/>
</svg>
