<svg width="496" height="496" viewBox="0 0 496 496" fill="none" xmlns="http://www.w3.org/2000/svg">
<path d="M496 248C496 385 385 496 248 496C222.4 496 197.8 492.1 174.6 484.9C184.7 468.4 199.8 441.4 205.4 419.9C208.4 408.3 220.8 360.9 220.8 360.9C228.9 376.3 252.5 389.4 277.6 389.4C352.4 389.4 406.3 320.6 406.3 235.1C406.3 153.2 339.4 91.9 253.4 91.9C146.4 91.9 89.5 163.7 89.5 242C89.5 278.4 108.9 323.7 139.8 338.1C144.5 340.3 147 339.3 148.1 334.8C148.9 331.4 153.1 314.5 155 306.7C155.6 304.2 155.3 302 153.3 299.6C143.2 287.1 135 264.3 135 243C135 188.3 176.4 135.4 247 135.4C307.9 135.4 350.6 176.9 350.6 236.3C350.6 303.4 316.7 349.9 272.6 349.9C248.3 349.9 230 329.8 235.9 305.1C242.9 275.6 256.4 243.8 256.4 222.5C256.4 203.5 246.2 187.6 225 187.6C200.1 187.6 180.1 213.3 180.1 247.8C180.1 269.8 187.5 284.6 187.5 284.6C187.5 284.6 163 388.4 158.5 407.8C153.5 429.2 155.5 459.4 157.6 479C65.4 442.9 0 353.1 0 248C0 111 111 0 248 0C385 0 496 111 496 248Z" fill="#002C59"/>
</svg>
