<svg width="32" height="32" viewBox="0 0 32 32" fill="none" xmlns="http://www.w3.org/2000/svg">
<path fill-rule="evenodd" clip-rule="evenodd" d="M28.496 27.344H3.50399C2.86399 27.344 2.35199 27.856 2.35199 28.496V29.648H29.648V28.496C29.648 27.856 29.136 27.344 28.496 27.344Z" fill="white"/>
<path fill-rule="evenodd" clip-rule="evenodd" d="M8.49599 26.896V14.272H5.45599V26.896H8.49599Z" fill="white"/>
<path fill-rule="evenodd" clip-rule="evenodd" d="M14.48 14.272V26.896H17.52V14.272H14.48Z" fill="white"/>
<path fill-rule="evenodd" clip-rule="evenodd" d="M23.488 14.272V26.896H26.544V14.272H23.488Z" fill="white"/>
<path fill-rule="evenodd" clip-rule="evenodd" d="M23.264 13.824H26.768H26.8H28.496C29.136 13.824 29.648 13.312 29.648 12.672C29.648 12.032 29.136 11.504 28.496 11.504H3.50399C2.86399 11.504 2.35199 12.032 2.35199 12.672C2.35199 13.312 2.86399 13.824 3.50399 13.824H5.19999H5.23199H8.73599H8.75199H8.76799H14.224H14.256H17.744H17.776H23.232H23.248H23.264Z" fill="white"/>
<path fill-rule="evenodd" clip-rule="evenodd" d="M4.97598 11.072H27.024V10.944C26.848 6.16 22.88 2.352 18.08 2.352H13.904C9.11998 2.352 5.15198 6.16 4.97598 10.944V11.072ZM24.832 9.408C23.984 6.4 21.216 4.288 18.096 4.288C17.968 4.288 17.872 4.192 17.872 4.064C17.872 3.952 17.968 3.84 18.096 3.84C21.408 3.84 24.352 6.096 25.264 9.28C25.296 9.408 25.216 9.52 25.104 9.568C25.088 9.568 25.056 9.568 25.04 9.568C24.944 9.568 24.848 9.504 24.832 9.408Z" fill="white"/>
</svg>
