<?xml version="1.0" encoding="UTF-8"?>
<!DOCTYPE svg PUBLIC "-//W3C//DTD SVG 1.1//EN" "http://www.w3.org/Graphics/SVG/1.1/DTD/svg11.dtd">
<!-- Creator: CorelDRAW X7 -->
<svg xmlns="http://www.w3.org/2000/svg" xml:space="preserve" width="0.5in" height="0.5in" version="1.1" style="shape-rendering:geometricPrecision; text-rendering:geometricPrecision; image-rendering:optimizeQuality; fill-rule:evenodd; clip-rule:evenodd"
viewBox="0 0 105 105"
 xmlns:xlink="http://www.w3.org/1999/xlink">
 <defs>
  <style type="text/css">
   <![CDATA[
    .fil1 {fill:none}
    .fil0 {fill:#002C59}
    .fil2 {fill:#EF4822}
   ]]>
  </style>
 </defs>
 <g id="Layer_x0020_1">
  <metadata id="CorelCorpID_0Corel-Layer"/>
  <path class="fil0" d="M53 0c29,0 52,24 52,53 0,29 -23,52 -52,52 -29,0 -53,-23 -53,-52 0,-29 24,-53 53,-53zm0 18c18,0 34,16 34,35 0,18 -16,34 -34,34 -19,0 -35,-16 -35,-34 0,-19 16,-35 35,-35zm-49 35c0,-2 2,-4 3,-4l4 0c2,0 4,2 4,4 0,1 -2,3 -4,3l-4 0c-1,0 -3,-2 -3,-3zm90 3l0 0c-2,0 -3,-2 -3,-3 0,-2 1,-4 3,-4l0 0 4 0 0 0c2,0 3,2 3,4 0,1 -1,3 -3,3l0 0 -4 0zm1 -28c0,2 0,4 -2,5l-3 2c-2,1 -4,0 -5,-1 0,-2 0,-4 2,-5l3 -2c2,-1 4,0 5,1zm-18 -17c1,0 2,2 1,4l-2 3c-1,2 -3,3 -4,2 -2,-1 -3,-3 -2,-5l2 -3c1,-2 3,-2 5,-1zm-24 -7c1,0 3,2 3,3l0 4c0,2 -2,3 -3,3 -2,0 -4,-1 -4,-3l0 -4c0,-1 2,-3 4,-3zm-25 7c2,-1 4,-1 5,1l2 3c1,2 0,4 -1,5 -2,1 -4,0 -5,-2l-2 -3c-1,-2 0,-4 1,-4zm-17 17c0,-1 2,-2 4,-1l3 2c2,1 3,3 2,5 -1,1 -3,2 -5,1l-3 -2c-2,-1 -2,-3 -1,-5z"/>
  <circle class="fil1" cx="53" cy="53" r="28"/>
  <g id="_2214746766192">
   <g>
    <circle class="fil0" cx="40" cy="44" r="7"/>
    <circle class="fil0" cx="65" cy="44" r="7"/>
   </g>
   <path class="fil2" d="M42 68c-1,0 -3,0 -4,-1 0,0 0,-2 1,-3 4,-4 9,-6 14,-5 4,0 9,2 13,5 1,1 1,2 1,3 -1,1 -2,1 -3,1 -4,-3 -8,-5 -12,-5 -3,0 -7,1 -10,5z"/>
  </g>
 </g>
</svg>
