<svg width="64" height="79" viewBox="0 0 64 79" fill="none" xmlns="http://www.w3.org/2000/svg">
<g clip-path="url(#clip0_6488_536)">
<path fill-rule="evenodd" clip-rule="evenodd" d="M45.4836 57.4824C45.416 57.6024 45.3485 57.7224 45.2811 57.8423C44.8391 58.208 44.3331 58.3112 43.765 58.3104C35.8992 58.2996 28.0334 58.3032 20.1674 58.3029C19.9153 58.3029 19.6626 58.3129 19.4149 58.2456C18.8361 58.0884 18.5039 57.6418 18.518 57.036C18.5317 56.4526 18.8587 56.0432 19.421 55.8922C19.689 55.8198 19.9606 55.8354 20.2319 55.8354C28.0394 55.8346 35.8469 55.8346 43.6546 55.8347C45.0878 55.8349 45.3301 56.0538 45.4836 57.4824Z" fill="#0C4580"/>
<path fill-rule="evenodd" clip-rule="evenodd" d="M43.7291 62.084C44.8592 62.4495 45.1126 63.5024 44.2639 64.3066C43.8033 64.537 43.3187 64.5992 42.8038 64.5983C36.0547 64.5882 29.3058 64.5929 22.5569 64.59C21.6885 64.5895 20.8176 64.6417 19.9536 64.5017C19.3684 64.2211 19.1708 63.7239 19.2486 63.1158C19.3187 62.5693 19.6363 62.2085 20.1864 62.0845C20.3543 62.1552 20.5312 62.1244 20.7037 62.1244C28.2063 62.1261 35.709 62.1261 43.2115 62.1244C43.3844 62.1244 43.5611 62.1554 43.7291 62.084Z" fill="#0C4580"/>
<path fill-rule="evenodd" clip-rule="evenodd" d="M45.4917 57.4811C45.0371 55.9526 45.0371 55.9524 43.3886 55.9524C35.546 55.9526 27.7033 55.9521 19.8606 55.9536C18.8724 55.9538 18.3583 56.6527 18.6966 57.5226C18.8543 57.9274 19.1521 58.1424 19.575 58.1792C19.7483 58.1942 19.9241 58.1831 20.0988 58.1831C27.4949 58.1831 34.8911 58.1901 42.2872 58.1746C43.2937 58.1726 44.3375 58.3944 45.289 57.8411C45.0096 58.289 44.5679 58.4017 44.0904 58.4019C36.0277 58.4054 27.9655 58.4073 19.9029 58.4008C18.9612 58.4002 18.4463 57.8864 18.4572 57.0306C18.4673 56.2243 18.9932 55.7473 19.9229 55.7466C27.9855 55.7403 36.048 55.7427 44.1106 55.7344C44.9704 55.7335 45.7542 56.3317 45.4917 57.4811Z" fill="#0F1B36"/>
<path fill-rule="evenodd" clip-rule="evenodd" d="M19.8438 64.5017C20.1873 64.2844 20.5127 64.5486 20.853 64.5478C28.2243 64.5296 35.5954 64.5303 42.9666 64.5429C43.3902 64.5435 43.7475 64.3255 44.1541 64.3066C43.8923 64.5724 43.5667 64.6537 43.2065 64.6537C35.6419 64.6521 28.0774 64.6513 20.5128 64.656C20.2719 64.6562 20.0574 64.5949 19.8438 64.5017Z" fill="#000117"/>
<path fill-rule="evenodd" clip-rule="evenodd" d="M43.7712 62.083C43.5882 62.2526 43.3633 62.1775 43.1581 62.1776C35.7192 62.1821 28.2802 62.1824 20.8413 62.1788C20.6361 62.1787 20.411 62.2533 20.2285 62.0835C20.6165 62.0752 21.0044 62.0599 21.3924 62.0597C28.6389 62.0582 35.8853 62.0583 43.1315 62.0595C43.3448 62.0595 43.5581 62.0748 43.7712 62.083Z" fill="#000008"/>
<path fill-rule="evenodd" clip-rule="evenodd" d="M31.9244 45.2365C22.6578 45.2081 15.3483 37.7946 15.2836 28.476C15.2156 18.6286 23.2669 11.3654 32.3492 11.5584C41.1416 11.7455 48.8743 19.1289 48.7132 28.631C48.5555 37.9386 41.2369 45.265 31.9244 45.2365Z" fill="#0F993E"/>
<path fill-rule="evenodd" clip-rule="evenodd" d="M42.2753 22.2997C42.3601 22.9375 41.95 23.4116 41.5411 23.8689C38.1099 27.7028 34.6754 31.534 31.2323 35.3574C30.2235 36.478 29.1026 36.5149 28.0857 35.4048C26.3156 33.4728 24.5784 31.5096 22.8556 29.5344C22.0866 28.6528 22.2007 27.5543 23.0647 26.7694C23.8674 26.0402 24.9498 26.0397 25.7479 26.8503C26.8603 27.9797 27.9548 29.1301 28.9937 30.3275C29.5169 30.9308 29.838 30.9736 30.389 30.3477C33.0821 27.286 35.824 24.2681 38.5323 21.2198C39.3035 20.3518 40.0801 20.0549 40.9884 20.3858C41.7409 20.66 42.2684 21.4224 42.2753 22.2997Z" fill="#FEFEFE"/>
<path fill-rule="evenodd" clip-rule="evenodd" d="M58.746 0H5.25354C2.35718 0 0 2.3774 0 5.30029V73.7011C0 76.624 2.35718 78.9998 5.25354 78.9998H58.746C61.6421 78.9998 63.9995 76.6241 63.9995 73.7011V5.30029C63.9995 2.3774 61.6423 0 58.746 0ZM61.1335 73.7011C61.1335 75.0317 60.0652 76.1109 58.746 76.1109H5.25354C3.93426 76.1109 2.86603 75.0317 2.86603 73.7011V5.30029C2.86603 3.9697 3.93426 2.8906 5.25354 2.8906H58.746C60.0652 2.8906 61.1335 3.9697 61.1335 5.30029V73.7011Z" fill="#0C4580"/>
</g>
<defs>
<clipPath id="clip0_6488_536">
<rect width="64" height="79" fill="white"/>
</clipPath>
</defs>
</svg>
