<svg width="32" height="32" viewBox="0 0 32 32" fill="none" xmlns="http://www.w3.org/2000/svg">
<path d="M26.4943 28.5851C27.0517 28.5851 27.6027 28.3572 28.0017 27.9581C28.407 27.5465 28.6224 27.0081 28.6224 26.4508C28.6224 25.2728 27.666 24.3228 26.4943 24.3228H5.51833C4.94836 24.3228 4.41 24.5445 4.0047 24.9435C3.60569 25.3488 3.384 25.8808 3.384 26.4508C3.384 27.6288 4.34034 28.5851 5.51833 28.5851H26.4943Z" fill="white"/>
<path d="M31.2 9.54605C31.2 10.9157 30.1184 12.026 28.7712 12.0933L26.4928 24.6372H5.51358L3.2128 12.0901C1.87518 12.0133 0.799988 10.9093 0.799988 9.54605C0.799988 8.13165 1.95198 6.98605 3.35999 6.98605C4.77116 6.98605 5.91678 8.13165 5.91678 9.54605C5.91678 10.0676 5.75999 10.5509 5.49116 10.9541C6.85757 11.7572 9.15518 12.8772 10.256 12.6501C11.5552 12.3749 13.5232 10.0644 14.672 8.14124C13.9392 7.69325 13.4464 6.89005 13.4464 5.97486C13.4464 4.56044 14.5952 3.41486 16 3.41486C17.4112 3.41486 18.56 4.56044 18.56 5.97486C18.56 6.89644 18.0608 7.69644 17.3248 8.14765C18.4736 10.0676 20.4448 12.3749 21.7504 12.6501C22.9728 12.9028 25.296 11.6901 26.4992 10.9252C26.2432 10.5252 26.0896 10.0549 26.0896 9.54605C26.0896 8.13165 27.2352 6.98605 28.6464 6.98605C30.0544 6.98605 31.2 8.13165 31.2 9.54605Z" fill="white"/>
</svg>
