<svg width="32" height="32" viewBox="0 0 32 32" fill="none" xmlns="http://www.w3.org/2000/svg">
<path d="M13.75 12.5H15.25L14.5 10.45L13.75 12.5Z" fill="white"/>
<path d="M30 5H2C1.45 5 1 5.45 1 6V21C1 21.55 1.45 22 2 22H7V19.5C7 18.65 7.65 18 8.5 18H23.5C24.35 18 25 18.65 25 19.5V22H30C30.55 22 31 21.55 31 21V6C31 5.45 30.55 5 30 5ZM8 16H6V9H3V7H11V9H8V16ZM16.55 16L16 14.5H13L12.45 16H10.3L13.55 7H15.3L18.55 16H16.55ZM25.4 16L23.75 13.25L22.1 16H19.75L22.6 11.35L19.95 7H22.3L23.75 9.4L25.2 7H27.55L24.9 11.35L27.75 16H25.4Z" fill="white"/>
<path d="M11.75 21C11.05 21 10.5 21.55 10.5 22.25V24.25C10.5 24.95 11.05 25.5 11.75 25.5C12.45 25.5 13 24.95 13 24.25V22.25C13 21.55 12.45 21 11.75 21Z" fill="white"/>
<path d="M17 22C17.2761 22 17.5 21.7761 17.5 21.5C17.5 21.2239 17.2761 21 17 21C16.7239 21 16.5 21.2239 16.5 21.5C16.5 21.7761 16.7239 22 17 22Z" fill="white"/>
<path d="M21 25.5C21.2761 25.5 21.5 25.2761 21.5 25C21.5 24.7239 21.2761 24.5 21 24.5C20.7239 24.5 20.5 24.7239 20.5 25C20.5 25.2761 20.7239 25.5 21 25.5Z" fill="white"/>
<path d="M8 19.5V27C8 27.3 8.2 27.5 8.5 27.5H23.5C23.8 27.5 24 27.3 24 27V19.5C24 19.2 23.8 19 23.5 19H8.5C8.2 19 8 19.2 8 19.5ZM14 24.25C14 25.5 13 26.5 11.75 26.5C10.5 26.5 9.5 25.5 9.5 24.25V22.25C9.5 21 10.5 20 11.75 20C13 20 14 21 14 22.25V24.25ZM17 20C17.85 20 18.5 20.65 18.5 21.5C18.5 22.35 17.85 23 17 23C16.15 23 15.5 22.35 15.5 21.5C15.5 20.65 16.15 20 17 20ZM15.7 25.1L21.2 21.1L21.8 21.9L16.3 25.9L15.7 25.1ZM21 26.5C20.15 26.5 19.5 25.85 19.5 25C19.5 24.15 20.15 23.5 21 23.5C21.85 23.5 22.5 24.15 22.5 25C22.5 25.85 21.85 26.5 21 26.5Z" fill="white"/>
</svg>
