<svg width="347" height="99" viewBox="0 0 347 99" fill="none" xmlns="http://www.w3.org/2000/svg">
<path fill-rule="evenodd" clip-rule="evenodd" d="M250.202 96.2043C248.756 94.8289 248.467 93.032 248.466 91.1781C248.452 70.6299 248.458 50.0812 248.458 29.5327C248.458 22.0246 248.451 14.5164 248.464 7.00844C248.467 5.28915 248.85 3.65157 249.976 2.30136C251.263 0.75691 252.938 0.0150825 254.974 0.0159448C280.418 0.0258617 305.861 0.0224122 331.305 0.0221966C334.359 0.0221966 337.417 0.0950645 340.468 0.00236301C343.679 -0.0950813 346.65 2.83601 346.639 6.05749C346.546 34.6527 346.58 63.2483 346.604 91.8439C346.606 93.4368 346.216 94.8036 345.131 95.9659C344.687 95.7011 344.749 95.2216 344.674 94.8185C344.268 92.6236 343.616 90.5036 342.758 88.4475C341.106 84.4898 337.869 82.3118 334.086 80.7356C328.758 78.5156 323.355 76.4938 317.943 74.4902C317.607 74.3658 317.27 74.2422 316.949 74.0821C316.436 73.9038 315.923 73.7268 315.416 73.5297C314.264 72.9315 312.901 72.8299 311.842 72.0094C311.324 70.9554 311.361 69.8089 311.287 68.6816C311.201 67.3722 311.402 66.0651 311.334 64.7556C311.19 63.8204 311.611 62.9363 311.579 62.0115C311.613 61.7599 311.694 61.5184 311.838 61.3134C313.559 58.8598 314.372 56.0492 315.055 53.1852C315.203 52.5615 315.321 51.8936 316.106 51.7132C317.683 51.8136 318.618 50.9097 319.369 49.6686C320.905 47.1264 321.323 44.3057 321.436 41.4164C321.468 40.6233 321.24 39.8487 320.792 39.1698C320.195 38.2663 319.631 38.0859 318.626 38.4929C318.334 38.6112 318.089 38.7281 317.921 38.345C317.827 36.569 318.367 34.8689 318.558 33.1259C318.878 30.2 319.281 27.2814 319.274 24.3331C319.271 22.6071 319.057 20.8958 318.57 19.228C317.76 16.4536 316.047 14.5095 313.298 13.5497C312.54 13.285 312.031 12.8538 311.631 12.1445C310.472 10.0861 308.484 9.03364 306.408 8.18316C303.144 6.84653 299.732 6.62125 296.241 6.93988C293.461 7.19363 290.77 7.73474 288.208 8.85363C283.247 11.0194 279.685 14.6115 277.402 19.4921C276.971 20.4137 276.847 21.4086 276.822 22.4299C276.712 26.8983 277.277 31.3145 277.793 35.736C277.888 36.5485 278.086 37.363 277.865 38.187C277.657 38.4204 277.371 38.453 277.086 38.4924C275.346 38.7307 274.822 39.2573 274.697 41.0275C274.552 43.0844 274.81 45.1051 275.395 47.0811C275.608 47.8029 275.884 48.5008 276.22 49.179C277.032 50.8204 278.218 51.7595 280.154 51.3736C280.704 51.5959 280.778 52.1122 280.893 52.5934C281.217 53.9451 281.463 55.3152 281.839 56.6546C282.264 58.1738 282.875 59.612 283.732 60.9424C283.983 61.3311 284.23 61.7269 284.319 62.1947C284.348 63.1241 284.728 64.0188 284.59 64.9641C284.728 66.6683 284.468 68.3557 284.379 70.0502C284.347 70.6519 284.263 71.2506 283.952 71.7876C283.057 72.6663 281.819 72.8793 280.746 73.4159C280.366 73.6063 279.972 73.774 279.58 73.9415C278.858 74.1657 278.18 74.5156 277.45 74.7208C271.965 76.6447 266.588 78.8465 261.241 81.1151C257.802 82.5744 254.821 84.6584 253.153 88.1656C252.119 90.3393 251.334 92.6077 250.839 94.9735C250.746 95.4174 250.857 96.0271 250.202 96.2043Z" fill="#ECF6FD"/>
<path fill-rule="evenodd" clip-rule="evenodd" d="M317.013 73.8024C322.794 75.9259 328.526 78.1738 334.26 80.4206C339.717 82.5592 343.018 86.4469 344.395 92.0685C344.709 93.3538 345.095 94.6264 345.131 95.9647C343.742 97.778 341.899 98.5574 339.623 98.5563C311.457 98.541 283.292 98.5487 255.126 98.5427C253.129 98.5423 251.402 97.9093 250.202 96.2032C250.718 94.1236 251.262 92.0586 251.982 90.031C253.424 85.9704 256.117 83.0809 259.997 81.3464C265.691 78.8016 271.474 76.4644 277.381 74.4513C277.562 74.5244 277.727 74.478 277.897 74.4015C278.626 74.0725 278.925 74.4502 278.941 75.1106C279.049 79.5738 282.011 82.0543 285.371 84.1509C289.143 86.5047 293.294 87.4634 297.779 87.4987C303.141 87.5414 307.897 86.1287 312.105 82.8141C313.509 81.7079 314.629 80.3633 315.569 78.8669C316.351 77.6211 316.346 76.2008 316.279 74.7908C316.253 74.2405 316.279 73.7696 317.013 73.8024Z" fill="#4C6078"/>
<path fill-rule="evenodd" clip-rule="evenodd" d="M277.735 38.1802C277.231 33.4441 276.6 28.7253 276.447 23.9501C276.348 20.8778 277.293 18.2912 279.065 15.8717C283.172 10.2657 288.721 7.34191 295.591 6.66303C300.153 6.21246 304.524 6.58629 308.596 8.87386C310.157 9.75042 311.538 10.8059 312.195 12.5524C312.323 12.8898 312.545 12.9184 312.823 13.0105C316.852 14.3441 319.021 17.3039 319.428 21.6059C319.901 26.593 319.085 31.4674 318.42 36.3633C318.328 37.0357 318.22 37.706 318.12 38.3771C318.081 39.5507 317.408 40.5286 317.121 41.6259C316.851 42.197 316.981 42.8339 316.824 43.4196C316.729 43.7745 316.545 44.1601 316.105 44.0618C315.699 43.9713 315.758 43.5856 315.796 43.4351C315.791 43.973 315.648 44.6614 315.38 45.328C315.095 46.0379 314.682 46.659 314.167 47.2191C313.65 47.7817 313.046 48.219 312.348 48.5337C311.652 48.8472 310.914 48.98 310.171 49.1173C308.409 49.443 306.665 49.3243 304.938 48.9099C302.77 48.3895 301.208 47.1652 300.421 45.0121C300.037 43.9627 299.739 42.8964 299.501 41.8094C299.178 40.3339 299.093 40.244 297.934 40.2423C296.724 40.2406 296.598 40.3594 296.252 41.8361C296.22 41.9758 296.189 42.1162 296.152 42.2548C295.879 43.2385 295.733 44.2569 295.349 45.2102C294.483 47.6319 292.72 48.7959 290.2 49.1093C288.059 49.3756 285.992 49.1798 283.929 48.6544C281.911 48.1409 280.829 46.6997 280.2 44.8427C280.098 44.5417 280.144 44.5355 279.78 44.5801C279.399 44.6271 279.313 44.0368 279.231 43.6529C278.991 42.5338 278.719 41.4231 278.354 40.3374C278.233 39.5947 277.635 38.9872 277.735 38.1802Z" fill="#3D302B"/>
<path fill-rule="evenodd" clip-rule="evenodd" d="M278.618 40.1232C279.172 41.5094 279.387 42.9875 279.856 44.4351C279.906 44.1609 279.957 43.8867 280.008 43.6127C280.053 43.5336 280.096 43.5465 280.129 43.6547C280.254 44.0639 280.359 44.48 280.503 44.8825C281.235 46.9363 282.618 48.1932 284.821 48.5739C286.819 48.9191 288.812 49.0142 290.808 48.7044C292.941 48.3734 294.349 47.1258 295.074 45.0996C295.515 45.1356 295.462 45.4693 295.41 45.7351C295.208 46.7857 295.136 47.8599 294.763 48.8798C293.929 51.1627 294.312 51.7967 296.733 52.2212C294.133 51.4388 294.099 51.2864 294.867 48.594C295.455 46.5347 295.566 44.3812 295.88 42.2685C295.884 42.2327 295.887 42.1969 295.891 42.1614C296.114 39.8841 296.804 39.395 299.016 39.9126C299.399 40.0023 299.522 40.2224 299.593 40.5738C299.785 41.5183 300.006 42.4565 300.224 43.3956C300.971 46.6123 302.866 48.511 306.264 48.8344C307.855 48.9857 309.424 48.9919 310.972 48.6595C313.482 48.1201 314.863 46.4131 315.499 44.0152C315.598 43.6426 315.687 43.268 315.801 42.8152C316.114 43.2214 315.795 43.7233 316.23 44.0721C316.829 43.2417 316.391 42.2159 316.856 41.4226C317.816 41.9048 317.013 42.5751 317.04 43.1567C317.163 42.7844 317.274 42.3694 317.674 42.9814C317.811 43.8224 317.934 44.663 318.145 45.4911C318.334 46.2325 317.999 46.8831 317.684 47.5307C317.497 47.9138 317.177 48.226 317.09 48.66C316.811 49.3153 316.721 50.0013 316.72 50.7093C316.72 51.2002 316.706 51.7057 316.173 51.9767C315.653 51.9938 315.599 52.3665 315.497 52.772C314.857 55.3211 314.263 57.8898 312.919 60.1942C312.58 60.7752 312.208 61.337 311.851 61.9074C311.65 63.0328 310.84 63.7804 310.133 64.5673C308.74 66.1163 307.2 67.5105 305.5 68.7249C301.252 71.7588 295.328 71.7924 290.596 68.7915C288.392 67.3941 286.604 65.5366 284.881 63.6082C284.493 63.1744 284.218 62.6827 284.051 62.1278C282.021 59.2227 281.158 55.8984 280.551 52.4764C280.492 52.1436 280.446 51.7626 280.138 51.5177C278.965 50.9122 278.94 49.7312 278.699 48.6567C277.694 47.1403 277.823 45.5415 278.35 43.9149C278.368 43.813 278.382 43.7002 278.444 43.6202C278.691 43.3063 278.68 43.244 278.333 43.1763C277.861 42.7152 277.64 42.1471 277.613 41.4965C278.122 41.1667 278.076 40.4291 278.618 40.1232Z" fill="#EDBDA3"/>
<path fill-rule="evenodd" clip-rule="evenodd" d="M311.664 64.7051C311.663 66.0929 311.635 67.4814 311.67 68.8683C311.696 69.8934 311.76 70.9224 312.068 71.9149C313.743 73.9643 314.077 75.2425 311.903 78.1699C309.985 80.7524 307.276 82.2087 304.242 83.0592C297.59 84.9233 291.321 84.2397 285.621 80.0858C284.625 79.3593 283.82 78.442 283.17 77.3977C281.77 75.1468 281.886 73.7586 283.613 71.8332C284.257 70.0365 284.094 68.1472 284.241 66.2942C284.277 65.8357 284.252 65.3726 284.255 64.9112C284.984 64.8619 285.18 65.503 285.498 65.9288C287.053 68.0122 288.837 69.8621 290.993 71.3229C296.737 75.2155 303.013 74.2364 307.627 68.9524C308.688 67.738 309.67 66.4585 310.736 65.2497C310.974 64.9791 311.149 64.5309 311.664 64.7051Z" fill="#EAB295"/>
<path fill-rule="evenodd" clip-rule="evenodd" d="M283.614 71.834C283.687 72.1552 283.526 72.4206 283.322 72.6064C281.975 73.8366 282.406 75.2232 283.048 76.5398C283.955 78.3983 285.501 79.7002 287.198 80.8152C293.669 85.0666 303.966 84.5921 309.961 79.7222C311.387 78.5639 312.588 77.1904 312.982 75.2771C313.154 74.4372 313.062 73.7264 312.48 73.0816C312.188 72.7586 311.952 72.3936 312.068 71.9157C313.226 72.3883 314.45 72.6927 315.55 73.3103C316.132 73.5936 316.243 74.0903 316.291 74.6944C316.532 77.6988 315.14 79.9639 313.038 81.8777C308.01 86.4567 302.01 87.8366 295.37 87.3225C290.762 86.9659 286.751 85.2408 283.128 82.5102C281.166 81.0315 279.724 79.1328 279.109 76.6849C278.921 75.9379 279.066 75.1771 278.921 74.4376C278.823 73.9394 279.356 73.945 279.492 73.6434C280.866 73.0404 282.24 72.4372 283.614 71.834Z" fill="#4C6078"/>
<path fill-rule="evenodd" clip-rule="evenodd" d="M265.242 13.3486C266.919 14.9885 268.398 16.3987 269.834 17.8502C270.862 18.8885 270.627 20.3803 269.372 21.1116C268.478 21.6326 267.735 21.3673 267.058 20.6823C265.77 19.38 264.453 18.1059 263.191 16.7803C262.764 16.3327 262.499 16.3364 262.082 16.7714C260.813 18.0925 259.542 19.4128 258.212 20.6711C257.052 21.7689 255.42 21.2894 254.883 19.7853C254.596 18.9788 254.923 18.3898 255.449 17.8536C256.706 16.5722 257.957 15.283 259.25 14.0382C259.707 13.5991 259.795 13.338 259.28 12.8573C257.994 11.6577 256.763 10.3985 255.526 9.14769C254.455 8.06567 254.434 7.07053 255.429 6.07151C256.309 5.18869 257.241 5.26781 258.312 6.33969C259.582 7.60949 260.861 8.87087 262.088 10.1801C262.501 10.6203 262.729 10.6911 263.166 10.2159C264.332 8.94762 265.545 7.7231 266.747 6.48802C268.073 5.1238 269.594 5.21801 270.39 6.67665C270.906 7.61962 270.526 8.35455 269.878 8.98341C268.384 10.4341 266.849 11.8414 265.242 13.3486Z" fill="#C33F36"/>
<path fill-rule="evenodd" clip-rule="evenodd" d="M311.665 64.7069C310.456 66.1108 309.223 67.4951 308.042 68.9216C303.22 74.7435 296.25 75.7045 290.134 71.1098C287.998 69.5056 286.229 67.549 284.695 65.3718C284.574 65.2006 284.403 65.065 284.255 64.913C284.187 63.9845 284.119 63.0566 284.051 62.1285C286.024 64.5547 288.143 66.8237 290.792 68.5433C295.793 71.7882 302.027 71.3754 306.574 67.5261C308.552 65.8517 310.369 64.0399 311.852 61.9082C311.79 62.8413 311.727 63.7741 311.665 64.7069Z" fill="#C38970"/>
<path fill-rule="evenodd" clip-rule="evenodd" d="M317.498 42.9642C316.985 42.8646 317.332 43.5034 316.895 43.5634C316.606 42.8649 317.416 42.1 316.856 41.4224C317.196 40.3736 317.594 39.3487 318.119 38.3764C319.327 37.486 320.467 37.7617 321.194 39.1464C321.951 40.5872 321.803 42.0935 321.593 43.6466C321.278 45.9757 320.743 48.2064 319.427 50.1902C318.658 51.3501 317.734 52.2478 316.174 51.9765C316.466 51.4923 316.409 50.9534 316.382 50.4323C316.346 49.744 316.449 49.1028 316.827 48.5177C317.92 47.6418 318.466 46.5624 318.06 45.1425C317.728 43.9846 317.816 42.8843 318.447 41.8397C318.727 41.3773 319.042 40.972 319.604 40.8623C318.886 40.9373 318.569 41.4769 318.268 42.0409C318.077 42.4009 318.051 42.9039 317.498 42.9642Z" fill="#E9B092"/>
<path fill-rule="evenodd" clip-rule="evenodd" d="M279.072 48.7322C279.067 49.7989 279.539 50.6832 280.139 51.518C278.391 52.0651 277.619 51.9021 276.629 50.4336C274.582 47.3942 274.035 43.9587 274.448 40.3981C274.65 38.6598 275.315 37.9137 277.735 38.1793C278.141 38.7769 278.46 39.4133 278.618 40.1232C278.564 40.2437 278.429 40.4013 278.466 40.4789C278.816 41.2268 278.461 41.4368 277.781 41.4238C277.252 41.6412 276.932 40.8588 276.311 41.1852C277.267 41.2369 277.629 41.8574 277.883 42.6001C278.127 43.3124 278.37 44.0085 278.102 44.7822C277.79 45.6795 277.77 46.58 278.12 47.4926C278.32 48.0149 278.605 48.4338 279.072 48.7322Z" fill="#EAB193"/>
<path fill-rule="evenodd" clip-rule="evenodd" d="M279.492 73.6436C278.994 74.9779 279.229 76.3005 279.712 77.5524C280.573 79.7878 282.116 81.4916 284.09 82.8418C286.897 84.762 289.91 86.2314 293.281 86.7557C296.795 87.3024 300.299 87.2524 303.814 86.4315C307.3 85.6174 310.26 83.9309 312.889 81.6086C315.133 79.627 316.24 77.1249 316.048 74.0748C316.019 73.6251 315.385 73.762 315.55 73.3105C316.038 73.4748 316.525 73.6391 317.014 73.8036C316.808 73.9955 316.496 74.0166 316.572 74.5025C317.177 78.3486 314.981 80.8808 312.301 83.063C309.546 85.3057 306.422 86.8756 302.858 87.4169C297.165 88.2823 291.669 87.9319 286.448 85.1326C283.699 83.6584 281.376 81.8205 279.688 79.1975C279.052 78.2106 278.641 77.1122 278.683 75.9631C278.721 74.9298 278.555 74.3255 277.381 74.4527C278.085 74.183 278.789 73.9133 279.492 73.6436Z" fill="#405065"/>
<path fill-rule="evenodd" clip-rule="evenodd" d="M301.994 36.9292C300.95 37.5082 299.862 37.6016 298.653 37.6481C296.7 37.7238 294.962 37.1016 293.132 36.708C290.432 36.1274 287.662 36.0759 284.907 35.9308C287.255 35.6732 289.594 35.6316 291.922 36.135C292.444 36.2477 292.977 36.3512 293.506 36.3678C293.851 36.3786 294.244 36.277 294.363 35.8521C294.468 35.48 294.219 35.2379 293.974 35.0271C292.9 34.1041 291.595 33.7243 290.232 33.5652C288.269 33.336 286.298 33.1946 284.423 34.0627C283.631 34.4292 282.904 34.8608 282.582 35.7519C282.475 36.0479 280.725 36.398 280.462 36.218C280.299 36.1067 280.368 35.9618 280.387 35.8362C280.426 35.5891 280.453 35.328 280.555 35.1047C282.012 31.9058 281.437 28.4015 282.072 25.0798C282.472 22.9845 283.614 21.5789 285.603 20.7073C288.64 19.3769 291.721 19.5839 294.761 20.3742C298.538 21.3557 302.074 21.0684 305.625 19.4295C306.887 18.847 308.376 19.4584 309.651 20.0107C312.271 21.1453 313.546 23.2607 313.801 26.0477C313.837 26.4405 313.898 26.8361 313.883 27.2278C313.778 29.8386 314.316 32.3262 315.279 34.7365C314.961 35.1793 315.621 35.8614 315.166 36.0763C314.589 36.349 313.864 36.1843 313.225 35.9571C312.159 33.9297 310.166 33.693 308.246 33.6016C306.309 33.5096 304.381 33.8385 302.643 34.8363C302.195 35.0937 301.767 35.3616 301.864 35.983C301.938 36.2932 302.819 36.4991 301.994 36.9292Z" fill="#EDBDA3"/>
<path fill-rule="evenodd" clip-rule="evenodd" d="M286.654 37.1023C288.825 36.9935 290.933 37.3311 293.022 37.9112C294.119 38.2158 294.672 38.8382 294.681 39.9621C294.693 41.472 294.631 42.9811 294.301 44.4564C293.835 46.5361 292.632 47.5375 290.017 47.8296C288.202 48.0323 286.371 47.9958 284.57 47.4944C283.218 47.118 282.331 46.31 281.78 45.046C280.983 43.2142 280.89 41.2914 281.042 39.3502C281.125 38.2982 281.938 37.6016 283.116 37.3097C284.287 37.0193 285.474 37.1401 286.654 37.1023Z" fill="#EDBDA3"/>
<path fill-rule="evenodd" clip-rule="evenodd" d="M309.054 37.1096C310.473 37.0305 311.929 37.1915 313.366 37.5447C314.323 37.7797 314.826 38.393 314.883 39.3702C314.983 41.0656 314.824 42.7418 314.382 44.3778C313.758 46.6906 311.978 47.5683 309.813 47.8194C308.096 48.0186 306.368 47.9637 304.703 47.4122C303.301 46.9478 302.28 46.0846 301.851 44.598C301.411 43.071 301.22 41.5078 301.188 39.9342C301.158 38.5247 301.551 38.0972 302.919 37.7863C304.917 37.3321 306.934 37.0275 309.054 37.1096Z" fill="#EDBDA3"/>
<path fill-rule="evenodd" clip-rule="evenodd" d="M295.881 42.2695C295.864 44.7071 295.661 47.1137 294.915 49.4601C294.396 51.0941 294.718 51.5151 296.501 51.7624C296.964 51.8268 297.715 51.8988 297.627 52.3052C297.497 52.9134 296.785 52.5883 296.334 52.4992C294.058 52.0506 293.573 51.11 294.411 48.8899C294.871 47.671 295.154 46.4165 295.074 45.1008C295.343 44.1568 295.611 43.2131 295.881 42.2695Z" fill="#AD775F"/>
<path fill-rule="evenodd" clip-rule="evenodd" d="M301.995 36.9286C302.294 36.5755 301.691 36.4927 301.777 36.2036C303.161 35.506 304.702 35.5243 306.176 35.3354C308.132 35.0849 310.119 35.1054 312.086 35.3947C312.473 35.4516 312.881 35.4745 313.164 35.8104C313.704 35.9688 314.261 36.1279 314.816 36.0091C315.584 35.8449 314.744 35.0276 315.279 34.7363C315.229 35.2932 315.832 35.9402 315.444 36.3172C315.063 36.6859 314.361 36.2872 313.807 36.2195C309.823 35.7323 305.898 36.1182 301.995 36.9286Z" fill="#F4DABB"/>
<path fill-rule="evenodd" clip-rule="evenodd" d="M303.559 58.7703C303.35 59.1234 303.017 59.0913 302.696 59.0913C299.549 59.0892 296.401 59.09 293.254 59.0807C292.958 59.0799 292.522 59.2028 292.486 58.7468C292.46 58.4053 292.841 58.2949 293.116 58.2945C296.401 58.2906 299.69 58.0263 302.97 58.4049C303.175 58.4286 303.405 58.4547 303.559 58.7703Z" fill="#95634D"/>
<path fill-rule="evenodd" clip-rule="evenodd" d="M279.072 48.7314C278.497 48.8461 278.229 48.4958 278.018 48.0456C277.529 47.0059 277.362 45.9303 277.777 44.8384C278.213 43.6891 277.666 42.756 277.172 41.82C276.985 41.4653 276.647 41.1883 276.241 41.6564C276.12 41.7956 275.957 41.9028 275.789 41.7294C275.627 41.5617 275.772 41.3931 275.846 41.245C276.192 40.5541 276.747 40.6071 277.781 41.4231C278.003 41.9927 278.225 42.562 278.447 43.1314C278.651 43.3237 278.46 43.6175 278.624 43.82C278.602 44.0683 278.645 44.346 278.548 44.5607C277.868 46.0655 278.351 47.4105 279.072 48.7314Z" fill="#B57F66"/>
<path fill-rule="evenodd" clip-rule="evenodd" d="M317.498 42.9639C317.969 42.3801 317.963 41.5378 318.581 41.0221C318.889 40.7647 319.153 40.4483 319.6 40.5862C320.054 40.7261 320.105 41.1194 320.147 41.6989C319.448 40.8801 319.106 41.2511 318.721 41.878C318.003 43.0469 318.097 44.2316 318.42 45.48C318.718 46.6302 318.154 47.5501 317.475 48.412C317.288 48.6502 317.075 48.6823 316.827 48.5174C316.776 48.147 317.07 47.9444 317.238 47.6824C317.778 46.8382 318.062 45.9625 317.701 44.9568C317.47 44.3163 317.399 43.6452 317.498 42.9639Z" fill="#B47E65"/>
<path fill-rule="evenodd" clip-rule="evenodd" d="M295.396 61.4707C296.987 61.7555 298.528 61.7775 300.067 61.5009C300.292 61.4604 300.501 61.5718 300.575 61.8003C300.624 61.9495 300.518 62.0681 300.36 62.1021C298.824 62.4331 297.288 62.6941 295.761 62.0629C295.669 62.0245 295.583 61.9383 295.526 61.8527C295.471 61.7704 295.457 61.6598 295.396 61.4707Z" fill="#AD7860"/>
<path fill-rule="evenodd" clip-rule="evenodd" d="M301.3 51.5552C301.175 52.1321 300.732 52.0739 300.431 52.156C299.993 52.2759 299.313 52.7648 299.126 52.1899C298.945 51.6339 299.81 51.7031 300.198 51.4819C300.563 51.2734 300.975 51.2249 301.3 51.5552Z" fill="#AA755D"/>
<path fill-rule="evenodd" clip-rule="evenodd" d="M278.624 43.8208C278.429 43.6264 278.442 43.3782 278.447 43.1325C279.669 42.5312 278.767 43.7148 279.117 43.8088C278.877 44.2235 278.883 43.0141 278.624 43.8208Z" fill="#EAB193"/>
<path fill-rule="evenodd" clip-rule="evenodd" d="M313.164 35.8098C312.205 35.7382 311.247 35.6485 310.287 35.5987C307.888 35.4743 305.516 35.6901 303.161 36.1648C302.715 36.2547 302.239 36.1941 301.777 36.203C300.918 35.5049 301.567 35.0809 302.105 34.7603C304.165 33.5338 306.425 33.1619 308.79 33.3286C310.198 33.4278 311.542 33.7259 312.679 34.6404C313.059 34.9466 313.385 35.2607 313.164 35.8098Z" fill="#3D2F2B"/>
<path fill-rule="evenodd" clip-rule="evenodd" d="M292.836 40.218C292.178 39.9079 291.679 39.5408 290.985 39.483C291.009 40.4917 291.195 41.525 290.253 42.238C289.894 42.5098 289.517 42.6683 289.064 42.6075C287.779 42.435 287.263 41.358 287.637 39.5244C286.899 39.5891 286.31 39.9422 285.719 40.3779C285.721 39.1937 286.99 38.3928 289.008 38.2197C290.979 38.0509 292.612 38.8462 292.836 40.218Z" fill="#3C2D29"/>
<path fill-rule="evenodd" clip-rule="evenodd" d="M310.398 40.1988C309.646 39.9541 309.165 39.4511 308.425 39.5061C308.408 40.0354 308.627 40.5446 308.476 41.0788C308.209 42.0304 307.464 42.6338 306.534 42.5476C305.583 42.4594 304.978 41.7629 304.957 40.7229C304.953 40.5088 304.934 40.2844 304.988 40.0819C305.186 39.3291 304.844 39.4466 304.334 39.5977C303.938 39.715 303.659 40.1294 303.184 40.0595C303.461 38.929 304.596 38.2991 306.495 38.1977C308.432 38.0945 309.869 38.7742 310.398 40.1988Z" fill="#3D2E29"/>
<path fill-rule="evenodd" clip-rule="evenodd" d="M2.18889 95.164C1.75563 95.3136 1.411 95.3035 1.14703 94.8223C0.633533 93.8853 0.408166 92.9038 0.408813 91.8362C0.417439 71.4995 0.415283 51.1629 0.415498 30.8261C0.415498 22.5979 0.512762 14.3682 0.361583 6.14275C0.311118 3.41733 2.83631 0.00871883 6.53428 0.0136773C22.2056 0.0348046 37.8772 0.0225163 53.5486 0.0225163C66.4165 0.0225163 79.2842 0.0223006 92.152 0.0227318C95.7048 0.0227318 98.3285 2.63907 98.3285 6.18285C98.3294 34.604 98.3242 63.025 98.3436 91.4462C98.3447 92.9519 98.1841 94.3588 97.2144 95.5727C96.6955 95.449 96.7518 94.9835 96.6796 94.622C96.2974 92.7149 95.7725 90.8493 95.0371 89.0498C93.4759 85.2294 90.563 82.822 86.851 81.2297C80.7747 78.623 74.6003 76.2635 68.4394 73.8694C67.2002 73.3878 65.9925 72.8307 64.7537 72.3478C64.386 72.2044 64.016 72.0535 63.7805 71.7019C63.1033 69.6402 63.2176 67.5163 63.2803 65.3969C63.2325 64.261 63.144 63.1218 63.5396 62.021C64.207 60.1054 65.3153 58.3792 65.9036 56.4204C66.2726 55.1917 66.5657 53.9457 66.9205 52.7153C67.0689 52.2003 67.2028 51.6605 67.8647 51.5579C69.381 51.8 70.3592 51.1153 71.1156 49.8362C72.4557 47.5693 73.1702 45.1272 73.4074 42.5268C73.4868 41.6578 73.3158 40.8112 73.0781 39.9844C72.7796 38.9461 72.1941 38.1873 71.0134 38.1008C70.6704 38.0758 70.3778 37.9836 70.2646 37.6095C70.158 36.2569 70.4401 34.9233 70.4548 33.5774C70.8596 31.5279 70.9314 29.4486 70.7856 27.3802C70.6398 25.3128 70.3994 23.2509 69.9217 21.2171C68.3751 14.6351 64.2642 10.6291 57.776 8.95657C56.0097 8.50125 54.2402 8.0675 52.4025 8.03236C52.2945 8.00541 52.1925 7.96057 52.0971 7.903C50.9181 6.49243 48.7667 6.37429 47.4531 7.81979C46.7845 8.19663 46.0327 8.22573 45.3012 8.35077C43.6589 8.63147 42.0432 9.029 40.4485 9.50933C33.6843 11.616 30.6775 16.6706 29.6564 23.274C29.5526 23.9451 29.4342 24.6169 29.4146 25.3011C28.8875 29.0844 29.6029 32.8848 29.2451 36.6672C29.2089 37.3148 29.0333 37.7921 28.2832 38.0081C27.2118 38.3164 26.8154 39.2857 26.713 40.2567C26.366 43.5454 26.9315 46.6733 28.6056 49.5665C29.3464 50.8466 30.3773 51.6055 31.9215 51.4938C32.5335 51.632 32.6398 52.1449 32.7345 52.6379C33.3821 56.0136 34.6237 59.1669 36.28 62.1679C36.6777 63.1442 36.6117 64.1493 36.473 65.1602C36.2407 66.5326 36.4226 67.9154 36.3706 69.2923C36.3384 70.1449 36.3423 70.9997 35.8482 71.751C35.0652 72.4868 34.0293 72.7406 33.0774 73.1314C27.0035 75.6249 20.7674 77.6984 14.6939 80.1944C13.1646 80.8231 11.7031 81.5873 10.2588 82.3869C6.42429 84.5098 4.67074 88.1113 3.40588 92.0516C3.17598 92.7673 2.98857 93.4988 2.78606 94.2243C2.6847 94.5877 2.66788 95.0301 2.18889 95.164Z" fill="#ECF6FD"/>
<path fill-rule="evenodd" clip-rule="evenodd" d="M64.0606 71.8257C67.6954 73.2332 71.3403 74.6156 74.9626 76.0548C78.9208 77.6279 82.8444 79.2877 86.8074 80.8481C92.293 83.0083 95.3621 87.1178 96.5985 92.7516C96.8049 93.6914 97.0091 94.6318 97.2144 95.5719C95.9774 97.5672 94.155 98.5392 91.8364 98.5407C76.1368 98.5522 60.437 98.5479 44.7374 98.5483C32.2713 98.5485 19.8051 98.5407 7.3387 98.5563C5.46567 98.5584 3.9474 97.8455 2.60878 96.5878C2.15373 96.16 2.028 95.7267 2.18889 95.163C2.83911 92.8596 3.47316 90.5566 4.47556 88.3656C5.77514 85.5248 7.78059 83.3858 10.4992 81.8646C13.9214 79.9494 17.6377 78.7404 21.261 77.3087C26.0127 75.4311 30.8733 73.8352 35.5584 71.7852C35.9037 72.2418 35.6052 72.6113 35.3598 72.9485C34.5372 74.0785 34.6582 75.2543 35.2265 76.4058C36.027 78.0272 37.3094 79.2636 38.8067 80.2063C42.9718 82.8287 47.5404 83.7592 52.4193 83.1848C54.7936 82.9057 57.0638 82.2492 59.2205 81.2181C61.3374 80.2059 63.119 78.799 64.3664 76.7751C65.0839 75.6114 65.2914 74.4681 64.3886 73.2755C64.0856 72.8756 63.6705 72.4192 64.0606 71.8257Z" fill="#4F6278"/>
<path fill-rule="evenodd" clip-rule="evenodd" d="M35.964 62.1122C34.121 59.1348 33.0646 55.8624 32.3553 52.4622C32.2895 52.1464 32.3342 51.8019 31.9044 51.7249C31.4532 50.5165 30.4767 49.5087 30.5177 48.1115C29.8441 47.0404 29.6048 45.9466 29.919 44.6533C30.1769 43.5913 29.6028 42.5834 29.1452 41.6234C28.978 41.2729 28.6904 40.9834 28.5918 40.5934C28.9093 39.8041 29.4117 40.204 29.8819 40.3942C29.9914 40.0137 29.2746 39.2979 30.3281 39.2984C31.2915 40.6003 31.4774 42.1117 31.4953 43.5637C31.5304 43.8073 31.7312 43.6195 31.5962 43.6687C31.5613 43.6816 31.5384 43.6624 31.5337 43.6109C31.4265 42.4407 31.268 41.271 31.5546 40.1016C31.6473 39.7233 31.6516 39.3055 32.0929 39.1207C34.3284 39.2783 36.484 38.8338 38.6221 38.256C38.8306 38.1995 39.0424 38.1795 39.2527 38.2418C39.5917 38.4125 39.4981 38.6212 39.2938 38.8286C39.0169 39.1097 38.6425 39.2682 38.3272 39.5911C38.7364 39.4245 39.0995 39.1694 39.5041 39.3564C39.9771 39.5747 39.7858 40.0333 39.816 40.405C39.8938 41.36 40.4325 42.0607 41.1416 42.1195C41.9094 42.1831 42.5488 41.5711 42.7641 40.566C43.0664 39.1541 43.0824 39.1423 44.3121 39.4034C43.4639 38.643 42.3636 38.3828 40.8919 38.5734C40.3771 38.64 39.8226 38.8661 39.4103 38.3131C39.6577 37.7595 40.2186 37.7886 40.6771 37.6496C42.3437 37.1445 44.1234 37.0328 45.6941 36.2017C46.1168 35.8928 45.9954 35.2288 46.495 34.9696C48.7763 34.6107 51.0513 34.7784 53.3246 35.0367C53.8569 36.397 55.1438 35.8085 56.0912 36.0997C57.4067 36.9733 58.9578 37.2121 60.4184 37.6882C61.9902 38.2004 63.6098 38.5423 65.2141 38.9368C66.0569 39.1442 66.9202 39.3896 67.5004 38.4069C67.5543 38.3155 67.6945 38.3733 67.7885 38.4319C68.0234 38.7275 68.0451 39.0765 68.0456 39.4303C67.9677 40.6576 68.0536 41.8884 68.0031 43.1006C68.3208 42.1115 68.4896 41.0922 68.9537 40.1678C69.1273 39.8222 69.2078 39.4174 69.5914 39.2121C70.2104 39.2856 70.0418 39.7121 69.951 40.0678C69.8561 40.4399 69.6361 40.7697 69.4912 41.2539C69.8718 41.1602 70.3258 40.8864 70.4407 41.4941C70.4664 41.9035 70.3135 42.2728 70.1466 42.6253C69.7965 43.3639 69.6654 44.1029 69.963 44.8941C70.3182 45.8379 70.111 46.7175 69.6229 47.5622C69.4088 47.933 69.2108 48.3148 69.0769 48.7242C68.5263 49.6676 68.5869 50.8462 67.9198 51.746C67.363 51.8417 67.3479 52.307 67.2597 52.719C66.5694 55.9413 65.4059 58.9877 63.8518 61.8891C62.001 65.1086 59.4447 67.6348 56.1798 69.3772C51.3311 71.9642 46.6238 71.3923 42.1195 68.4594C40.1166 67.1556 38.4605 65.4617 36.9326 63.631C36.5366 63.1574 36.4562 62.5076 35.964 62.1122Z" fill="#EDBBA0"/>
<path fill-rule="evenodd" clip-rule="evenodd" d="M40.3093 9.28025C42.3087 8.49509 44.4084 8.13678 46.5193 7.82958C46.8318 7.78409 47.1667 7.82828 47.4082 7.55751C49.0352 7.13151 50.6537 6.91894 52.2322 7.74463L52.1847 7.71812C52.5719 8.08741 53.0657 7.87528 53.5014 7.92896C56.0125 8.23811 58.4644 8.84369 60.7677 9.83408C63.2329 10.8941 64.7814 12.9831 66.0596 15.2925C67.8419 18.5129 68.6297 21.9683 68.7017 25.6181C68.7172 26.4067 68.9387 27.1792 68.9003 27.9762C68.8391 29.2527 68.4832 29.4739 67.3847 28.8536C64.6798 27.3266 61.7977 26.2716 58.7817 25.5558C54.5503 24.5518 50.2718 24.5059 45.9685 24.8821C42.6675 25.1706 39.4619 25.8792 36.3741 27.0811C35.0715 27.5881 33.8019 28.1754 32.5633 28.8318C31.6338 29.3247 31.1732 29.0908 31.1678 28.04C31.1464 23.7732 31.5624 19.5662 33.4314 15.6503C34.7864 12.8117 36.6836 10.4936 39.8739 9.5687C40.0388 9.52148 40.217 9.4553 40.3093 9.28025Z" fill="#5F708B"/>
<path fill-rule="evenodd" clip-rule="evenodd" d="M64.0603 71.8266C64.083 72.3545 64.3131 72.7971 64.6685 73.1658C65.5439 74.0736 65.5184 75.1157 65.0476 76.1568C63.9639 78.5537 62.079 80.2171 59.7605 81.3022C52.3033 84.7923 45.0068 84.623 38.0143 80.0293C36.685 79.156 35.597 77.9832 34.9252 76.514C34.3254 75.2026 33.9734 73.8694 35.215 72.6619C35.4365 72.4464 35.5795 72.1314 35.5581 71.786C36.1344 70.6454 35.9565 69.4105 36.0168 68.2032C36.0686 67.1712 35.8629 66.1271 36.1611 65.1074C37.0093 65.2706 37.5058 65.884 37.9772 66.5283C39.3001 68.3365 40.8548 69.8943 42.6864 71.208C47.7813 74.8631 54.5714 73.9263 58.7911 69.8287C60.0318 68.624 61.1446 67.318 62.188 65.9437C62.5212 65.505 62.8505 64.938 63.5779 65.3101C63.6476 67.4888 63.5317 69.6817 64.0603 71.8266Z" fill="#EBB295"/>
<path fill-rule="evenodd" clip-rule="evenodd" d="M8.63229 5.45354C9.32047 5.53503 9.84863 5.87587 10.3158 6.35059C11.5761 7.63116 12.863 8.88608 14.1021 10.1863C14.4953 10.5989 14.7209 10.6008 15.113 10.1871C16.3237 8.90958 17.5851 7.68032 18.8118 6.41763C19.8882 5.30974 20.8172 5.14008 21.7097 5.9233C22.7321 6.82078 22.7768 7.98558 21.7228 9.12322C20.478 10.4667 19.1767 11.7594 17.867 13.0404C17.5016 13.3976 17.4768 13.5837 17.8571 13.9521C19.1469 15.2021 20.4047 16.4861 21.6564 17.7746C22.909 19.0638 22.5156 20.623 20.8334 21.246C20.0592 21.5327 19.5073 21.2298 19.002 20.7219C17.735 19.4484 16.4442 18.1957 15.2368 16.8675C14.7239 16.3033 14.4563 16.399 13.9965 16.8875C12.8149 18.1429 11.6046 19.3732 10.3654 20.5719C9.07246 21.8225 7.40733 21.3853 6.80865 19.7106C6.51449 18.8877 6.88564 18.3084 7.39935 17.7824C8.65429 16.4971 9.91613 15.2169 11.2183 13.9797C11.6716 13.549 11.6505 13.2991 11.2185 12.8798C9.90363 11.604 8.61634 10.2988 7.345 8.97964C6.72799 8.33936 6.46488 7.57576 6.89923 6.71644C7.25874 6.0035 7.8173 5.53676 8.63229 5.45354Z" fill="#C44538"/>
<path fill-rule="evenodd" clip-rule="evenodd" d="M40.3092 9.27871C40.3441 9.28712 40.3797 9.29337 40.4136 9.3048C40.4477 9.31601 40.5037 9.32614 40.5093 9.34727C40.5723 9.59045 40.3515 9.51973 40.2531 9.55401C35.8258 11.1021 33.8266 14.6817 32.5917 18.8339C31.7103 21.7977 31.491 24.8676 31.4655 27.9518C31.4586 28.7844 31.544 29.0657 32.4701 28.555C36.5977 26.2787 41.0537 25.0804 45.7364 24.5671C48.2497 24.2916 50.7613 24.2979 53.2559 24.4244C57.1311 24.621 60.8914 25.5023 64.4675 27.0731C65.6164 27.5775 66.7775 28.0501 67.8291 28.7497C68.2917 29.0573 68.5917 29.089 68.5742 28.3547C68.4495 23.1076 67.8192 17.9702 64.6306 13.5766C63.0118 11.346 60.9458 9.63831 58.069 9.05709C56.2514 8.68973 54.4597 8.19496 52.608 7.99857C52.4159 7.9783 52.2705 7.89465 52.1849 7.7168C55.4755 7.8565 58.6464 8.60802 61.6081 9.99316C66.8349 12.4377 69.5093 16.8123 70.507 22.3516C70.9913 25.0399 71.2398 27.7489 71.1449 30.4776C71.1095 31.4934 70.898 32.5034 70.7666 33.516C70.4336 33.0786 70.7129 32.5724 70.6154 32.1622C70.5809 33.3102 70.6333 34.5291 69.7297 35.5076C69.4401 35.8213 69.1996 36.1943 68.6887 36.1279C68.1726 35.5234 69.1369 35.1556 68.93 34.5996C69.0484 34.03 69.3624 33.5393 69.5701 33.0055C70.1056 31.6293 70.0215 31.164 68.7814 30.3793C66.5612 28.9743 64.1617 27.9307 61.6872 27.047C58.3058 25.8395 54.7845 25.2046 51.2392 25.2203C44.4305 25.2507 37.7881 26.2301 31.877 30.0195C31.3318 30.3692 30.8511 30.8085 30.2934 31.1313C29.9555 31.3268 29.5625 31.6881 29.2114 31.1166C29.0531 29.4788 29.0348 27.8425 29.189 26.2038C29.2252 25.8177 29.2742 25.4206 29.1301 25.0388C29.7648 18.5478 31.9326 12.9868 38.3003 9.99229C38.9421 9.69112 39.5926 9.3837 40.3092 9.27871Z" fill="#2D3744"/>
<path fill-rule="evenodd" clip-rule="evenodd" d="M63.5784 65.3099C63.0494 65.3254 62.78 65.6771 62.485 66.0649C60.8145 68.2608 59.0767 70.3962 56.6623 71.8445C51.5214 74.9291 45.8074 74.3929 41.234 70.5102C39.8812 69.3618 38.7105 68.0709 37.7019 66.6498C37.2561 66.0218 36.5205 65.7669 36.1614 65.1077C36.1608 64.1057 36.2992 63.0939 35.9639 62.1134C36.4338 62.0043 36.4176 62.4683 36.5794 62.6774C38.5693 65.2532 40.8404 67.5143 43.7258 69.0837C48.6203 71.746 54.3131 71.0348 58.7419 67.3233C60.5453 65.812 62.0862 64.0979 63.421 62.1764C63.5079 62.0511 63.5152 61.6866 63.851 61.8912C63.5025 63.0098 63.6729 64.1705 63.5784 65.3099Z" fill="#C4876D"/>
<path fill-rule="evenodd" clip-rule="evenodd" d="M67.9194 51.7476C68.0003 50.6746 68.3016 49.6659 68.8004 48.7143C69.866 47.5443 70.4407 46.2967 69.9827 44.6197C69.5837 43.1595 70.3379 41.9419 71.2202 40.8784C70.8848 40.8767 70.8052 41.5743 70.29 41.412C69.9486 41.0768 69.8127 41.3933 69.6519 41.616C69.5317 41.7824 69.4267 42.0551 69.1856 41.9329C68.8755 41.7757 69.0834 41.5036 69.1642 41.2906C69.3133 40.8972 69.4828 40.5113 69.6473 40.1235C69.7679 39.8391 69.9915 39.5616 69.6879 39.2581C69.5388 38.5628 69.7295 38.0461 70.45 37.8072C72.4878 37.696 73.548 38.6812 73.6923 41.3564C73.8834 44.8961 72.7777 48.1311 70.6993 51.0019C70.0711 51.869 68.9177 52.1087 67.9194 51.7476Z" fill="#EAB092"/>
<path fill-rule="evenodd" clip-rule="evenodd" d="M30.1422 39.2568C29.6738 39.8876 30.5405 40.4115 30.2921 41.0427C29.7305 40.9164 29.4508 39.91 28.6733 40.5339C28.5241 40.8135 28.5959 40.9933 28.8001 41.2669C29.6988 42.471 30.2218 43.8016 29.8161 45.3415C29.5696 46.2773 29.9373 47.0838 30.3322 47.883C30.4411 48.1035 30.5912 48.3347 30.8929 48.0893C30.7087 49.1278 31.3208 49.8851 31.7862 50.7061C31.9527 50.9997 32.1153 51.3582 31.9044 51.7256C29.9285 51.8569 28.8424 51.1194 27.8393 48.948C26.6133 46.2941 26.1138 43.5045 26.2963 40.5896C26.3959 38.9981 27.0824 38.0886 28.63 37.6007C29.0589 37.4655 28.8206 37.1301 28.9429 36.9121C29.6142 37.555 30.2492 38.2162 30.1422 39.2568Z" fill="#EAB193"/>
<path fill-rule="evenodd" clip-rule="evenodd" d="M30.1422 39.258C30.0389 38.3243 28.9399 37.8991 28.9429 36.9122C29.1795 32.9586 28.7039 28.9925 29.1309 25.041C29.5357 26.0021 29.2528 27.0061 29.302 27.9885C29.3572 29.0916 29.3278 30.1991 29.3352 31.3046C29.8741 32.1978 29.9457 33.2369 30.2459 34.2049C30.2269 35.3971 30.6637 36.279 31.8821 36.6498C32.1608 36.7348 32.3902 36.9087 32.5052 37.1983C32.5539 37.9138 32.6303 38.6356 32.0637 39.2161C31.6242 40.8897 31.7148 42.6041 31.6106 44.3361C31.1991 42.6131 30.8996 40.8662 30.1422 39.258Z" fill="#3D312B"/>
<path fill-rule="evenodd" clip-rule="evenodd" d="M70.45 37.806C70.1959 38.2898 69.9419 38.7733 69.6878 39.2571C69.0272 40.5109 68.5806 41.834 68.3393 43.2336C68.2808 43.5712 68.3654 44.0174 67.9133 44.2C67.644 42.617 67.9576 41.0141 67.7505 39.4289C67.7225 39.095 67.6944 38.7608 67.6664 38.4269C67.253 37.9442 67.1782 37.3888 67.3123 36.7876C67.6004 36.3213 68.0313 36.0895 68.567 36.0319C69.9826 35.3151 70.3132 33.9863 70.5 32.5839C70.5362 32.3118 70.5052 32.0311 70.6801 31.75C70.7092 32.3385 70.7383 32.9273 70.7672 33.5161C70.786 34.9553 70.6434 36.3825 70.45 37.806Z" fill="#3D2F29"/>
<path fill-rule="evenodd" clip-rule="evenodd" d="M52.2324 7.74311C50.7435 7.61936 49.2552 7.38761 47.7639 7.7457C47.6662 7.76919 47.528 7.62303 47.4087 7.55577C48.6738 5.96755 51.0213 6.05853 52.2324 7.74311Z" fill="#272F3B"/>
<path fill-rule="evenodd" clip-rule="evenodd" d="M53.5518 35.1775C53.1873 35.3222 52.8153 35.4563 52.4172 35.3744C50.3798 34.9553 48.3207 35.2431 46.2725 35.1752C45.8457 35.2541 45.5164 35.0061 45.1679 34.836C43.7946 34.1654 42.333 33.8657 40.8186 33.7713C40.3304 33.7409 39.8018 33.8562 39.4082 33.4272C39.4563 32.8863 39.9139 32.7675 40.2965 32.6078C46.596 29.9791 52.9259 29.5825 59.2893 32.3853C59.7674 32.5959 60.3452 32.716 60.4263 33.3867C60.2591 33.6708 59.9706 33.7335 59.6842 33.7415C57.6776 33.7963 55.7865 34.3079 53.9743 35.1473C53.8421 35.2086 53.6956 35.2058 53.5518 35.1775Z" fill="#CF9176"/>
<path fill-rule="evenodd" clip-rule="evenodd" d="M32.0635 39.2162C32.1553 38.5126 32.2474 37.8091 32.3395 37.1057C33.0148 36.3326 33.8742 35.9296 34.8895 35.8367C38.2433 35.1755 41.5783 35.3146 44.8995 36.0592C45.2752 36.1435 45.7003 36.1209 45.9343 36.5225C44.2622 37.2544 42.4653 37.5316 40.7113 37.9684C40.2787 38.0762 39.7805 38.0529 39.4493 38.4451L39.4538 38.4403C38.11 38.7413 36.7712 39.0692 35.4205 39.3354C34.3003 39.5562 33.1679 39.6601 32.0635 39.2162Z" fill="#D19277"/>
<path fill-rule="evenodd" clip-rule="evenodd" d="M67.4788 36.6801C67.4497 37.2723 67.7907 37.8249 67.6665 38.4275C67.3216 39.5407 66.997 39.73 65.6103 39.3769C63.298 38.7879 61.001 38.139 58.6988 37.511C58.1495 37.3612 57.5903 37.2318 57.0625 37.0242C56.6579 36.8649 56.1119 36.8241 56.0459 36.2162C56.1749 35.6492 56.6778 35.7147 57.0692 35.646C59.8424 35.1594 62.5984 35.162 65.3177 35.9907C66.0548 36.1662 66.8385 36.1994 67.4788 36.6801Z" fill="#D09176"/>
<path fill-rule="evenodd" clip-rule="evenodd" d="M45.9345 36.5222C44.1098 36.4332 42.3668 35.7888 40.5268 35.7644C38.7361 35.7409 36.9478 35.6359 35.2154 36.2342C34.9989 36.309 34.7895 36.3142 34.6976 36.0371C34.5622 35.593 34.8747 35.3649 35.1656 35.177C36.2146 34.4987 37.3587 33.9884 38.4391 33.3632C38.7583 33.1787 39.1187 33.1321 39.4249 33.44C41.8677 33.387 44.2325 33.6418 46.2729 35.175C46.4135 35.6881 46.6632 36.2279 45.9345 36.5222Z" fill="#3A2C26"/>
<path fill-rule="evenodd" clip-rule="evenodd" d="M65.3238 36.2282C64.1704 36.1282 63.0707 35.7151 61.8999 35.6875C59.9257 35.6411 57.969 35.7246 56.0462 36.2165C55.5892 36.2732 55.1292 36.3125 54.6759 36.3899C53.4705 36.5955 53.3189 36.4373 53.5525 35.1774C55.5838 33.7041 57.9358 33.4562 60.3387 33.4034C60.6523 33.1044 61.0148 33.1684 61.3331 33.3409C62.7171 34.0907 64.0123 34.9789 65.2625 35.9326C65.3507 36.0003 65.3471 36.1204 65.3238 36.2282Z" fill="#3A2B26"/>
<path fill-rule="evenodd" clip-rule="evenodd" d="M56.898 39.5586C56.1582 39.5461 55.6931 40.0383 54.9512 40.1665C55.0972 39.5392 55.4582 39.205 55.8686 38.9808C57.7272 37.9661 59.6289 37.9503 61.5267 38.87C61.8054 39.005 62.0372 39.2673 62.2414 39.5118C62.3387 39.628 62.4051 39.8942 62.3385 39.9988C62.1767 40.2526 61.9794 40.0641 61.8023 39.9445C60.9746 39.3842 60.5358 39.3533 60.5711 40.6063C60.6033 41.7517 59.6772 42.5507 58.6683 42.4912C57.6534 42.4315 56.9178 41.5801 56.8984 40.4395C56.8939 40.1547 56.898 39.8701 56.898 39.5586Z" fill="#40312B"/>
<path fill-rule="evenodd" clip-rule="evenodd" d="M39.4498 38.4436C40.6905 38.3556 41.9211 38.0088 43.1778 38.3832C43.8826 38.5932 44.5226 38.862 44.9372 39.5056C45.0368 39.6606 45.1166 39.833 44.9749 39.9954C44.7972 40.1989 44.6667 39.9924 44.5231 39.9175C44.3335 39.8188 44.1422 39.7233 43.9524 39.625C43.3943 39.3363 43.0646 39.4088 43.1252 40.134C43.14 40.3114 43.1323 40.4942 43.1073 40.6706C42.9511 41.7722 42.0471 42.5856 41.083 42.5007C40.1783 42.4209 39.4774 41.5077 39.4865 40.4033C39.4886 40.1269 39.5279 39.8507 39.5542 39.5248C38.7565 39.5086 38.2736 40.1269 37.5205 40.4147C37.7198 39.2014 38.7742 39.0004 39.4544 38.4384C39.4541 38.4389 39.4498 38.4436 39.4498 38.4436Z" fill="#41322C"/>
<path fill-rule="evenodd" clip-rule="evenodd" d="M46.3286 50.3147C46.3534 50.1298 46.3157 49.8754 46.4203 49.712C47.5611 47.9274 47.3034 45.85 47.6515 43.903C47.8965 42.533 48.0492 41.1464 48.2648 39.7707C48.3017 39.5359 48.1863 39.097 48.6265 39.1653C48.9075 39.2089 48.8803 39.553 48.8488 39.8071C48.5062 42.5701 48.1747 45.3343 47.8055 48.0938C47.7503 48.5071 47.5488 48.9124 47.3606 49.2946C46.7144 50.6077 47.0586 51.3769 48.5057 51.712C48.8842 51.7995 49.289 51.773 49.6817 51.7999C49.8743 51.8135 50.0445 51.8883 50.0762 52.0892C50.107 52.2843 49.9854 52.4234 49.807 52.5064C48.9265 52.9158 46.6135 51.8232 46.378 50.8783C46.3357 50.7069 46.3457 50.5226 46.3286 50.3147Z" fill="#AF775F"/>
<path fill-rule="evenodd" clip-rule="evenodd" d="M50.9219 58.0015C52.3933 58.0015 53.8648 58.0002 55.3363 58.0028C55.6261 58.0032 55.9677 57.9927 55.9796 58.3904C55.9914 58.7932 55.669 58.8067 55.3652 58.7882C51.9911 58.584 48.6197 58.6114 45.2493 58.874C44.9674 58.896 44.5128 59.0833 44.4917 58.5996C44.4753 58.2231 44.906 58.1194 45.2208 58.0977C47.1191 57.967 49.0154 57.7788 50.9219 58.0015Z" fill="#9E654F"/>
<path fill-rule="evenodd" clip-rule="evenodd" d="M70.2901 41.4113C71.2157 40.2933 71.5166 40.2568 72.0624 41.3628C71.3893 40.8956 71.1187 41.2513 70.8847 41.7245C70.3252 42.8561 69.9168 43.9604 70.3774 45.2845C70.8126 46.5349 69.9213 48.2744 68.8003 48.7136C68.8339 48.2266 69.1167 47.8448 69.3464 47.4442C69.8133 46.6304 70.0121 45.7954 69.6466 44.8831C69.13 43.5936 69.9066 42.5375 70.2901 41.4113Z" fill="#B87E65"/>
<path fill-rule="evenodd" clip-rule="evenodd" d="M30.8928 48.0905C30.8195 48.3973 30.876 48.9969 30.3474 48.3704C29.4488 47.3054 29.3086 46.072 29.6116 44.758C29.9135 43.4486 29.1442 42.4457 28.6364 41.3738C28.4847 41.0541 28.1282 41.316 27.8589 41.2962C27.9238 40.7445 28.2637 40.6 28.6732 40.5352C29.9126 41.9412 30.5732 43.5251 30.1024 45.4218C29.8391 46.4825 30.3834 47.2743 30.8928 48.0905Z" fill="#B57B63"/>
<path fill-rule="evenodd" clip-rule="evenodd" d="M47.5912 60.8516C49.1336 61.701 50.6575 61.4145 52.1771 61.2153C52.3436 61.1933 52.5517 61.0758 52.6487 61.2901C52.7419 61.4959 52.5441 61.6117 52.4059 61.7137C51.6532 62.2677 48.6674 62.2522 47.9238 61.7008C47.7098 61.5421 47.5688 61.3534 47.5912 60.8516Z" fill="#AE755E"/>
<path fill-rule="evenodd" clip-rule="evenodd" d="M53.4588 51.6033C53.2237 52.0476 52.712 52.0273 52.3011 52.159C52.0591 52.2366 51.6766 52.1301 51.7656 51.8499C51.9384 51.3057 52.5588 51.3616 52.999 51.1949C53.239 51.104 53.3725 51.3195 53.4588 51.6033Z" fill="#AA725A"/>
<path fill-rule="evenodd" clip-rule="evenodd" d="M67.7504 39.4297C68.0588 41.0114 67.7862 42.6132 67.9135 44.201C67.4947 42.6229 67.7903 41.0205 67.7504 39.4297Z" fill="#D09176"/>
<path fill-rule="evenodd" clip-rule="evenodd" d="M29.965 34.3028C29.7441 33.3053 29.2416 32.3666 29.3352 31.3032C30.5802 30.7405 31.552 29.763 32.7466 29.1048C36.3018 27.1458 40.08 26.0183 44.0904 25.392C46.1903 25.0641 48.2905 25.0613 50.382 24.8787C52.2082 24.7192 54.0806 25.0383 55.9215 25.2991C60.2309 25.9099 64.2075 27.4649 68.0182 29.5024C68.302 29.6542 68.6005 29.7891 68.8584 29.9777C70.5602 31.2223 70.6428 31.605 69.7034 33.5377C69.5169 33.9217 69.3737 34.3265 69.2104 34.7217C68.2095 36.2823 66.8491 36.5966 65.2623 35.5711C62.5091 33.7914 59.6578 32.2569 56.5005 31.2667C51.9261 29.832 47.442 30.18 42.9399 31.5317C39.9223 32.4376 37.1388 33.8162 34.4885 35.4922C34.4279 35.5306 34.3675 35.5696 34.3067 35.608C31.951 37.0892 30.9945 36.8019 29.965 34.3028Z" fill="#5F708B"/>
<path fill-rule="evenodd" clip-rule="evenodd" d="M29.9648 34.3042C30.215 34.4098 30.3248 34.6321 30.4533 34.8528C31.3902 36.4611 32.112 36.6387 33.677 35.6376C35.9443 34.1871 38.256 32.8199 40.8032 31.9086C44.4714 30.5963 48.2315 29.6115 52.1501 30.0351C56.2175 30.4749 60.0047 31.881 63.4799 34.0731C63.9343 34.3598 64.415 34.6101 64.8448 34.9298C66.7062 36.3138 67.6521 36.0786 69.2103 34.7233C69.3336 35.3256 68.7794 35.5957 68.5672 36.0338C68.3297 36.4604 67.9191 36.5952 67.479 36.6812C66.7103 36.7702 66.0228 36.4734 65.3238 36.2289C64.1159 35.4489 62.9024 34.6778 61.7031 33.8846C61.2819 33.6061 60.8594 33.3769 60.3381 33.4045C59.1382 32.4555 57.6885 32.0718 56.2664 31.6484C50.472 29.9226 44.9327 30.9264 39.5282 33.2674C39.4782 33.2892 39.4587 33.3817 39.4249 33.441C37.667 33.9754 36.0746 34.8108 34.6976 36.0379C33.9115 36.3938 33.1256 36.7498 32.3395 37.1057C30.3435 36.4063 29.9953 35.9954 29.9648 34.3042Z" fill="#293342"/>
<path fill-rule="evenodd" clip-rule="evenodd" d="M126.141 96.0099C124.744 95.0445 124.398 93.5766 124.397 92.0384C124.379 63.4747 124.366 34.9108 124.406 6.34709C124.411 2.86475 127.179 0.0283025 130.703 0.0272246C159.349 0.0188168 187.995 0.0211884 216.641 0.0246378C219.767 0.0248533 222.509 2.75114 222.509 5.8409C222.512 34.5484 222.51 63.2559 222.52 91.9634C222.52 92.7645 222.43 93.5384 222.142 94.2781C222.016 94.6 221.936 95.1126 221.578 95.1299C221.044 95.1553 221.314 94.5847 221.179 94.2966C221.169 94.2747 221.137 94.2628 221.116 94.2462C221.065 94.3326 221.014 94.4193 220.963 94.5058C220.429 94.3628 220.437 93.8681 220.331 93.4761C220.07 92.5066 219.764 91.5501 219.496 90.5836C218.177 85.8106 215.003 82.8075 210.523 80.9776C204.579 78.5499 198.585 76.2539 192.575 73.995C191.3 73.5153 190.058 72.9518 188.787 72.4585C188.349 72.2882 187.93 72.0796 187.711 71.6186C187.146 69.8993 187.463 68.129 187.435 66.3832C187.42 65.4551 187.464 64.5203 187.467 63.5894C187.433 63.2214 187.48 62.8568 187.52 62.4918C187.575 62.1396 187.834 61.8873 187.973 61.5754C188.243 61.0819 188.681 60.7268 189.026 60.2933C190.153 59.183 190.619 57.8134 190.696 56.2574C190.756 55.0522 190.958 53.8557 190.927 52.6429C190.918 52.2861 190.964 51.926 191.306 51.6986C191.481 51.6384 191.662 51.6369 191.834 51.6878C193.293 52.1198 194.267 51.4254 194.99 50.2738C196.209 48.3309 196.847 46.1794 197.159 43.9194C197.311 42.8165 197.374 41.7261 197.171 40.6132C196.839 38.8004 196.298 38.3254 194.471 38.4328C194.197 38.449 193.972 38.4319 193.853 38.1456C193.684 36.942 194.111 35.8042 194.266 34.6389C194.738 31.0796 195.282 27.5257 195.199 23.9242C195.146 21.6484 194.771 19.4167 193.703 17.363C192.699 15.4333 191.201 14.0448 189.109 13.3706C188.345 13.1244 187.815 12.7258 187.478 11.956C186.968 10.7909 185.959 10.056 184.887 9.44677C181.965 7.78548 178.853 6.84531 175.451 6.81146C170.734 6.76425 166.224 7.52138 162.044 9.81499C157.846 12.1187 154.906 15.5254 153.144 19.9636C152.848 20.7096 152.772 21.4861 152.751 22.2851C152.618 27.2948 153.249 32.244 153.893 37.1932C153.953 37.6517 154.096 38.1155 153.819 38.5559C153.513 38.8295 153.207 38.6264 152.916 38.533C152.045 38.2539 151.461 38.6113 151.031 39.34C150.558 40.143 150.447 41.0483 150.482 41.9358C150.573 44.2728 150.931 46.5636 151.93 48.7175C152.359 49.6426 152.922 50.4536 153.673 51.1398C154.13 51.5576 154.655 51.7605 155.251 51.5485C155.877 51.3263 155.683 50.7341 155.771 50.2617C155.858 49.7946 155.504 49.0803 156.398 49.0092C156.712 49.4574 156.608 49.9741 156.617 50.4633C156.652 52.3895 156.871 54.3011 157.025 56.2183C157.144 57.7022 157.694 58.9763 158.701 60.0607C159.133 60.5809 159.696 60.994 159.998 61.623C160.079 61.844 160.201 62.0497 160.254 62.2825C160.636 63.363 160.546 64.4802 160.515 65.5932C160.54 67.1877 160.653 68.785 160.326 70.3661C160.225 70.8542 160.133 71.3416 159.839 71.7594C159.108 72.5004 158.116 72.7707 157.201 73.1581C151.682 75.4976 145.968 77.3387 140.453 79.6927C138.902 80.355 137.349 81.0061 135.827 81.7395C132.298 83.4413 129.836 86.1023 128.412 89.7454C127.744 91.4524 127.153 93.1803 126.733 94.9667C126.642 95.3562 126.693 95.8659 126.141 96.0099Z" fill="#ECF6FD"/>
<path fill-rule="evenodd" clip-rule="evenodd" d="M126.14 96.0104C126.625 94.1462 127.136 92.295 127.763 90.4668C129.284 86.0301 132.179 82.9298 136.458 81.0658C141.807 78.736 147.218 76.5676 152.725 74.6358C155.056 73.8178 157.298 72.7876 159.549 71.7754C159.876 72.1678 159.688 72.5312 159.442 72.8468C158.393 74.1945 158.676 75.527 159.476 76.8434C160.835 79.0775 162.87 80.5706 165.204 81.5601C171.409 84.1901 177.564 84.0062 183.584 80.8873C185.341 79.9769 186.776 78.6939 187.849 77.0383C188.675 75.7641 189.031 74.429 188.09 73.0167C187.86 72.6707 187.634 72.2551 188.019 71.8392C195.355 74.7043 202.659 77.6557 210.037 80.4068C215.68 82.5104 219.011 86.4638 220.36 92.2331C220.538 92.9961 220.761 93.7487 220.963 94.5062C220.927 95.1804 221.336 95.875 220.674 96.5112C219.471 97.6695 218.142 98.5277 216.423 98.542C213.44 98.5668 210.457 98.5491 207.474 98.5491C181.993 98.5499 156.511 98.5452 131.029 98.5635C129.318 98.5646 127.87 98.0403 126.632 96.8917C126.379 96.6578 126.031 96.4558 126.14 96.0104Z" fill="#4F6278"/>
<path fill-rule="evenodd" clip-rule="evenodd" d="M153.804 38.6183C153.055 34.2329 152.805 29.7951 152.352 25.3775C151.84 20.3764 153.893 16.5351 157.148 13.1192C160.818 9.26883 165.474 7.40057 170.655 6.72515C174.567 6.21507 178.451 6.23534 182.191 7.75737C183.652 8.35195 185.068 9.0263 186.319 10.0063C186.803 10.3856 187.388 10.784 187.541 11.3367C187.901 12.6352 188.949 12.892 189.973 13.3464C192.987 14.6841 194.424 17.2284 195.117 20.3154C195.812 23.4149 195.524 26.5199 195.235 29.6274C194.965 32.5164 194.512 35.3798 193.999 38.2342C194.187 39.0204 193.846 39.7159 193.586 40.4103C193.201 41.438 193.014 42.5536 192.297 43.4418C192.114 43.4992 191.947 43.4752 191.798 43.3491C191.385 42.1841 191.287 40.9641 191.34 39.7536C191.443 37.383 191.058 35.1123 190.234 32.8971C189.766 31.6418 189.54 30.3366 189.599 28.991C189.653 27.7643 189.477 26.5514 189.294 25.3497C188.808 22.1436 185.695 19.5548 182.453 19.5822C181.897 19.5869 181.404 19.7844 180.911 20.0086C177.866 21.3942 174.714 21.7518 171.46 20.9193C169.856 20.5088 168.24 20.1802 166.59 20.0655C164.079 19.8909 161.832 20.6405 159.906 22.235C158.899 23.0686 158.483 24.2763 158.263 25.544C157.913 27.5638 158.035 29.6237 157.736 31.648C157.689 31.9671 157.696 32.2998 157.577 32.6012C156.329 35.759 156.027 39.0683 155.991 42.421C155.988 42.7084 155.962 42.9949 155.849 43.2655C155.77 43.4362 155.644 43.558 155.467 43.6253C155.154 43.6369 155.024 43.4123 154.968 43.1715C154.659 41.8631 154.197 40.6049 153.755 39.3393C153.671 39.1 153.685 38.8514 153.804 38.6183Z" fill="#42342E"/>
<path fill-rule="evenodd" clip-rule="evenodd" d="M158.66 60.4C157.493 59.493 156.911 58.2575 156.743 56.8306C156.434 54.214 156.232 51.589 156.295 48.9503C156.289 48.6952 156.444 48.6556 156.65 48.6834C157.413 49.5949 157.304 50.7487 157.45 51.8074C157.731 53.854 157.679 53.8613 159.674 54.0872C161.432 54.5184 163.175 54.078 164.904 53.9159C170.689 53.3728 176.466 53.0781 182.26 53.7522C184.138 53.9706 186.041 53.9217 187.915 54.2131C188.223 54.2612 188.48 54.1733 188.674 53.9253C190.007 53.6496 190.43 52.8008 190.278 51.5095C190.204 50.8733 190.358 50.2242 190.425 49.5839C190.486 48.9973 190.785 48.6444 191.45 48.9167C191.995 49.8661 192.03 50.8127 191.441 51.7572C191.109 52.1246 191.246 52.5756 191.248 52.9891C191.253 54.5943 191.079 56.1808 190.824 57.7623C190.633 58.9493 190.019 59.8692 189.094 60.605C186.862 62.2723 184.588 63.8888 182.206 65.328C176.464 68.7977 170.727 68.6448 165.147 64.9523C162.946 63.4962 160.687 62.1094 158.66 60.4Z" fill="#B8D1DD"/>
<path fill-rule="evenodd" clip-rule="evenodd" d="M188.019 71.8384C187.946 72.2194 188.071 72.5828 188.292 72.8484C189.514 74.3129 189.031 75.7412 188.18 77.1108C186.831 79.2834 184.874 80.7835 182.543 81.7596C175.237 84.8196 168.225 84.4376 161.673 79.7491C160.266 78.7423 159.105 77.4363 158.616 75.7002C158.316 74.6369 158.206 73.5788 159.177 72.7277C159.448 72.4899 159.642 72.1767 159.549 71.7746C160.403 69.7673 160.118 67.6431 160.19 65.5554C160.941 65.375 161.291 65.9342 161.668 66.3897C162.926 67.9053 164.147 69.4497 165.666 70.7251C167.929 72.6242 170.522 73.8541 173.459 74.0186C176.653 74.1974 179.531 73.1365 181.969 71.0265C183.818 69.4258 185.28 67.4592 186.928 65.6682C187.249 65.3191 187.233 64.8884 187.273 64.4589C187.309 64.064 187.17 63.5673 187.746 63.4062C187.755 65.2616 187.768 67.1171 187.771 68.9724C187.773 69.9357 187.779 70.8967 188.019 71.8384Z" fill="#EBB194"/>
<path fill-rule="evenodd" clip-rule="evenodd" d="M138.685 10.541C140.026 9.21753 141.531 7.6886 143.085 6.21163C144.326 5.03325 145.986 5.49632 146.451 7.09467C146.688 7.90591 146.268 8.48735 145.768 9.01165C144.505 10.3358 143.236 11.6556 141.925 12.9312C141.46 13.3837 141.441 13.6308 141.928 14.091C143.232 15.3229 144.473 16.6209 145.738 17.8933C146.347 18.5062 146.595 19.1998 146.227 20.0384C145.588 21.497 144.159 21.8236 143.013 20.7196C141.747 19.5001 140.5 18.2574 139.307 16.9672C138.775 16.3922 138.456 16.3098 137.89 16.9361C136.785 18.1604 135.602 19.3147 134.431 20.4777C133.348 21.5531 132.389 21.607 131.431 20.6888C130.495 19.7911 130.524 18.7585 131.557 17.6993C132.785 16.4409 134.022 15.1907 135.288 13.9716C135.692 13.5831 135.701 13.3531 135.293 12.9609C133.972 11.6942 132.686 10.3918 131.397 9.09357C130.743 8.43539 130.41 7.70499 130.88 6.77323C131.584 5.38012 132.89 5.12659 134.041 6.19676C135.592 7.63837 137.134 9.08926 138.685 10.541Z" fill="#C34438"/>
<path fill-rule="evenodd" clip-rule="evenodd" d="M187.745 63.4063C187.995 65.5748 186.341 66.7513 185.191 68.1446C182.953 70.8554 180.421 73.1656 176.826 74.0139C172.599 75.0114 169.001 73.6774 165.715 71.1742C164.001 69.8684 162.659 68.1784 161.367 66.4628C161.054 66.048 160.652 65.7671 160.19 65.5554C160.168 64.4206 160.252 63.2804 160.01 62.1574C160.562 62.1294 160.676 62.6302 160.922 62.9438C162.633 65.1283 164.447 67.1969 166.798 68.7398C171.313 71.7022 177.312 71.5435 181.682 68.3554C183.652 66.9186 185.195 65.0889 186.697 63.2058C186.987 62.8427 187.157 62.2734 187.798 62.3296C187.78 62.6884 187.763 63.0473 187.745 63.4063Z" fill="#C4876D"/>
<path fill-rule="evenodd" clip-rule="evenodd" d="M187.798 62.3304C186.112 64.4168 184.506 66.5802 182.361 68.2398C176.709 72.6123 169.201 72.064 164.011 66.9115C162.535 65.4467 161.164 63.8934 160.01 62.1581C159.825 62.0454 159.761 61.8718 159.764 61.6651C160.287 61.5249 160.649 61.8628 161.031 62.1081C162.835 63.2686 164.533 64.5899 166.375 65.6933C169.179 67.3735 172.229 67.8948 175.461 67.6493C178.774 67.3979 181.535 65.875 184.158 64.0117C185.122 63.3275 186.11 62.6798 187.072 61.9928C187.395 61.7619 187.737 61.4057 188.221 61.6787C188.247 62.0044 187.931 62.1079 187.798 62.3304Z" fill="#A5C5D6"/>
<path fill-rule="evenodd" clip-rule="evenodd" d="M191.441 51.7579C191.412 50.8188 191.637 49.865 191.284 48.9439C190.574 47.917 190.812 46.8037 191.127 45.7592C191.38 44.9172 191.808 44.113 192.293 43.3593C192.862 41.6502 193.43 39.941 193.999 38.233C196.084 37.5532 197.256 38.3798 197.505 40.6313C197.908 44.2915 196.994 47.6359 195.076 50.716C194.139 52.2214 192.883 52.515 191.441 51.7579Z" fill="#EBB294"/>
<path fill-rule="evenodd" clip-rule="evenodd" d="M156.473 48.7172C156.414 48.795 156.355 48.8728 156.295 48.9506C155.885 49.4603 156.163 50.057 156.086 50.6089C156.025 51.0422 156.287 51.6176 155.694 51.8309C155.05 52.063 154.349 52.1911 153.757 51.6993C153.038 51.1013 152.407 50.4067 151.985 49.5623C151.001 47.5929 150.381 45.5209 150.252 43.3092C150.199 42.3874 150.136 41.4776 150.248 40.5478C150.514 38.3538 151.92 37.5665 153.804 38.6177C154.428 40.2516 155.052 41.8855 155.414 43.6037C156.436 44.8429 157.184 46.1702 156.84 47.8699C156.776 48.1842 156.779 48.513 156.473 48.7172Z" fill="#EAB294"/>
<path fill-rule="evenodd" clip-rule="evenodd" d="M188.221 61.6786C186.522 62.3933 185.192 63.6747 183.664 64.6535C181.33 66.1485 178.973 67.5475 176.135 67.826C172.564 68.1763 169.184 67.7456 166.051 65.7732C163.931 64.4385 162.005 62.8102 159.764 61.6652C159.396 61.2435 159.028 60.8219 158.66 60.4004C159.619 60.7438 160.351 61.46 161.211 61.9677C163.398 63.2569 165.309 64.9865 167.639 66.0487C172.37 68.2059 177.029 67.9599 181.518 65.4067C183.378 64.3484 185.083 63.0191 186.881 61.8465C187.587 61.3856 188.354 61.0163 189.094 60.6054C188.803 60.9633 188.512 61.3207 188.221 61.6786Z" fill="#87ADC0"/>
<path fill-rule="evenodd" clip-rule="evenodd" d="M155.666 43.3503C155.607 39.752 155.831 36.1948 157.16 32.7916C157.532 31.8396 157.532 30.8246 157.56 29.8258C157.607 28.2113 157.688 26.602 158.012 25.0163C158.385 23.1931 159.365 21.8431 161.042 20.9562C163.868 19.4616 166.799 19.4659 169.809 20.1719C171.895 20.6611 173.96 21.2581 176.155 20.9748C177.586 20.7902 179.035 20.5796 180.27 19.8686C182.05 18.8441 183.757 19.2119 185.402 19.9318C188.035 21.0841 189.649 23.1371 189.71 26.0749C189.782 29.5788 190.609 32.9156 191.472 36.275C191.972 38.2216 191.648 40.2759 191.823 42.2748C191.855 42.6305 191.878 42.9871 191.905 43.3434C191.838 45.2878 190.838 46.1665 188.995 45.9708C184.543 45.4978 180.138 44.6975 175.71 44.0613C174.458 43.8813 173.21 44.0335 171.967 43.9173C171.445 43.4424 171.703 42.8282 171.784 42.3134C171.894 41.6198 171.901 40.9123 172.096 40.2327C171.738 41.456 172.009 42.8165 171.247 43.9516C171.028 44.1575 170.762 44.265 170.473 44.3047C166.453 44.8562 162.49 45.7741 158.44 46.1495C157.47 46.2394 156.84 45.9968 156.462 45.1009C156.212 44.5102 155.722 44.0292 155.666 43.3503Z" fill="#EDBBA1"/>
<path fill-rule="evenodd" clip-rule="evenodd" d="M155.666 43.3511C156.278 43.7941 156.511 44.4915 156.821 45.126C157.123 45.7443 157.432 45.9094 158.22 45.8389C162.319 45.4718 166.316 44.4689 170.393 43.9888C170.671 43.9562 170.939 43.8383 171.211 43.76C171.413 43.6061 171.619 43.5742 171.832 43.7359C173.985 43.2834 176.087 43.7685 178.199 44.0716C182.003 44.6174 185.806 45.171 189.61 45.7217C190.287 45.8197 190.79 45.6139 191.088 44.954C191.335 44.4059 191.63 43.8797 191.904 43.3438C192.034 43.3487 192.163 43.3537 192.293 43.3586C192.364 43.7689 192.27 44.1569 192.049 44.4907C191.139 45.8665 191.134 47.3898 191.283 48.9431C190.948 48.9975 190.599 49.0824 190.682 49.5224C190.862 50.4859 190.515 51.4176 190.569 52.3821C190.648 53.7558 190.232 54.0721 188.855 53.9242C188.603 54.1622 188.295 54.2489 187.963 54.2094C184.591 53.8108 181.195 53.6825 177.82 53.2945C175.147 52.9871 172.47 53.0496 169.794 53.3822C166.386 53.8063 162.96 54.0674 159.538 54.3496C159.394 54.3494 159.251 54.3494 159.108 54.3494C157.188 54.3489 157.217 54.3338 157.148 52.4488C157.102 51.1826 156.959 49.9135 156.473 48.717C156.571 47.171 156.735 45.618 155.598 44.3068C155.456 44.1423 155.471 43.8409 155.414 43.6031C155.498 43.5197 155.582 43.4354 155.666 43.3511Z" fill="#C1D7E1"/>
<path fill-rule="evenodd" clip-rule="evenodd" d="M159.539 54.3504C160.244 53.5763 161.264 53.821 162.078 53.7772C165.506 53.5924 168.894 53.0332 172.317 52.8021C175.879 52.5615 179.36 53.1561 182.873 53.448C184.866 53.6136 186.862 53.7664 188.856 53.9251C188.918 54.7031 188.363 54.5705 187.913 54.541C184.818 54.3388 181.716 54.1915 178.629 53.8925C176.626 53.6989 174.623 53.6159 172.629 53.7274C169.322 53.9121 166.025 54.2778 162.72 54.5126C161.664 54.5876 160.579 54.7721 159.539 54.3504Z" fill="#8DB1C4"/>
<path fill-rule="evenodd" clip-rule="evenodd" d="M176.141 60.8885C180.327 60.4209 184.31 59.1947 188.289 57.9512C184.559 60.2392 180.448 60.9998 176.141 60.8885Z" fill="#89AEC2"/>
<path fill-rule="evenodd" clip-rule="evenodd" d="M170.639 61.0535C167.978 60.9978 165.506 60.4996 163.072 59.7856C161.938 59.453 160.793 59.1367 159.752 58.5516C159.521 58.4214 159.087 58.342 159.225 57.9939C159.378 57.6069 159.721 57.9068 159.96 57.9926C161.88 58.6827 163.813 59.3249 165.784 59.8652C167.138 60.2362 168.513 60.4112 169.891 60.6063C170.125 60.6393 170.405 60.5477 170.639 61.0535Z" fill="#89ADC2"/>
<path fill-rule="evenodd" clip-rule="evenodd" d="M195.922 41.2454C195.499 41.0512 195.135 41.0801 194.932 41.5099C194.398 42.6355 193.751 43.7451 194.21 45.0755C194.673 46.4152 194.135 47.5185 193.372 48.5641C193.254 48.7262 193.125 48.9933 192.883 48.804C192.703 48.6633 192.724 48.3602 192.865 48.2099C193.937 47.0647 193.705 45.802 193.467 44.4031C193.254 43.1534 193.919 41.9594 194.663 40.9393C195.103 40.3367 195.436 40.4385 195.922 41.2454Z" fill="#B57B63"/>
<path fill-rule="evenodd" clip-rule="evenodd" d="M151.811 41.7363C152.189 40.8043 152.837 40.681 153.241 41.4025C153.92 42.6176 154.511 43.8615 154.181 45.3605C153.954 46.3886 154.037 47.4299 154.728 48.3286C154.874 48.5192 155.091 48.7885 154.798 48.9763C154.503 49.1653 154.379 48.8133 154.233 48.6412C153.426 47.6843 153.281 46.5117 153.555 45.3945C153.87 44.1129 153.388 43.0888 152.927 42.0077C152.692 41.4569 152.37 41.2624 151.811 41.7363Z" fill="#B57C63"/>
<path fill-rule="evenodd" clip-rule="evenodd" d="M162.985 35.7631C161.697 35.7707 160.402 35.736 159.154 36.1507C158.954 36.2171 158.718 36.3456 158.559 36.1397C158.391 35.9237 158.484 35.6665 158.592 35.4337C158.914 34.7378 159.498 34.3247 160.178 34.066C163.27 32.8913 166.287 33.2391 169.229 34.597C169.796 34.8585 170.326 35.2949 170.103 36.0197C169.857 36.8184 169.131 36.5116 168.629 36.4213C166.76 36.0848 164.902 35.6933 162.985 35.7631Z" fill="#41322B"/>
<path fill-rule="evenodd" clip-rule="evenodd" d="M189.133 35.5924C189.214 36.1139 188.967 36.1257 188.571 36.0345C185.271 35.2744 182.016 35.7888 178.759 36.3782C178.284 36.4642 177.635 36.888 177.32 36.1975C176.998 35.4951 177.511 35.0038 178.08 34.7384C181.032 33.3606 184.1 32.9256 187.265 33.8748C188.118 34.1307 188.912 34.5964 189.133 35.5924Z" fill="#41322C"/>
<path fill-rule="evenodd" clip-rule="evenodd" d="M180.726 39.5375C180.177 39.6052 179.785 39.8423 179.39 40.0795C179.275 40.1482 179.088 40.2017 179.009 40.0456C178.959 39.9443 178.975 39.7666 179.032 39.6617C179.226 39.3059 179.54 39.0479 179.897 38.8856C181.559 38.1301 183.272 37.9894 184.986 38.656C185.585 38.889 186.235 39.2066 186.281 40.1364C185.624 40.0719 185.203 39.498 184.593 39.5504C184.414 41.7643 183.817 42.605 182.489 42.5147C181.214 42.4278 180.628 41.4715 180.726 39.5375Z" fill="#40312B"/>
<path fill-rule="evenodd" clip-rule="evenodd" d="M168.78 40.146C168.101 40.0539 167.628 39.3037 167.139 39.577C166.718 39.8129 166.989 40.5674 166.861 41.0792C166.638 41.9739 165.849 42.6107 165 42.5652C164.111 42.5176 163.479 41.8659 163.391 40.8628C163.354 40.4379 163.385 40.0071 163.385 39.5475C162.614 39.5727 162.051 40.0326 161.415 40.3978C161.582 39.1556 162.966 38.3361 164.992 38.2143C167.066 38.0897 168.403 38.7369 168.78 40.146Z" fill="#40312B"/>
<path fill-rule="evenodd" clip-rule="evenodd" d="M171.833 43.7359C171.625 43.7441 171.418 43.752 171.211 43.76C171.414 42.4669 171.618 41.1739 171.82 39.8806C171.856 39.6464 171.789 39.2914 172.127 39.303C172.525 39.3168 172.484 39.6967 172.444 39.9646C172.253 41.2239 172.039 42.4792 171.833 43.7359Z" fill="#B07861"/>
<path fill-rule="evenodd" clip-rule="evenodd" d="M165.381 47.1607C169.832 46.6118 174.265 45.5533 178.781 46.8907C176.546 47.24 174.349 46.2796 172.071 46.7472C169.889 47.1954 167.632 47.2794 165.407 47.5235C165.399 47.4025 165.39 47.2816 165.381 47.1607Z" fill="#8AB0C4"/>
</svg>
