<?xml version="1.0" encoding="UTF-8"?>
<!-- Generator: Adobe Illustrator 16.0.0, SVG Export Plug-In . SVG Version: 6.00 Build 0)  -->
<!DOCTYPE svg PUBLIC "-//W3C//DTD SVG 1.1//EN" "http://www.w3.org/Graphics/SVG/1.1/DTD/svg11.dtd">
<svg version="1.1" id="Layer_1" xmlns="http://www.w3.org/2000/svg" xmlns:xlink="http://www.w3.org/1999/xlink" x="0px" y="0px" width="368.504px" height="368.504px" viewBox="0 0 368.504 368.504" enable-background="new 0 0 368.504 368.504" xml:space="preserve">
<g>
	<path fill-rule="evenodd" clip-rule="evenodd" fill="#FFFFFF" d="M84.274,346.258l8.476-40.256   c-17.551-15.759-30.876-35.789-38.363-57.646c-17.881-5.601-30.834-22.46-30.834-41.86c0-19.591,12.605-36.198,30.516-41.857   c15.265-46.701,54.513-81.333,102.513-90.104v-0.537c-8-7.257-14.904-18.405-14.904-31.017c0-22.004,18.137-39.909,40.438-39.909   c21.664,0,38.631,17.531,38.631,39.909c0,14.033-5.306,24.948-15.183,31.741c49.104,8.81,87.878,41.975,102.91,88.309   c21.216,3.095,37.557,21.408,37.557,43.465c0,22.125-16.486,40.479-37.839,43.452c-18.241,53.847-68.755,90.624-126.217,90.624   c-3.966,0-7.506-0.145-11.148-0.459l-69.422,21.713l-22.875,4.081L84.274,346.258z"/>
	<path fill-rule="evenodd" clip-rule="evenodd" fill="#17477F" d="M332.617,206.496c0,16.768-13.684,30.457-30.517,30.457   c-1.343,0-2.685-0.065-3.962-0.275c-13.277,52.053-60.023,90.48-116.163,90.48c-4.428,0-8.318-0.196-12.543-0.668L97.4,349.021   l10.126-48.089c-20.187-16.028-35.681-38.429-42.656-64.117c-15.628-1.276-27.902-14.416-27.902-30.319   c0-15.959,12.015-28.97,27.505-30.378c12.612-48.695,55.109-85.45,105.109-89.877V67.327c-6-4.025-14.697-13.414-14.697-24.346   c0-14.623,12.574-26.495,27.128-26.495c14.689,0,25.515,11.872,25.515,26.495c0,10.932-3.945,20.321-16.945,24.346V86.24   c56,4.428,96.201,41.251,107.939,90.012c1.277-0.203,2.426-0.269,3.702-0.269C319.057,175.983,332.617,189.598,332.617,206.496z"/>
	<path fill-rule="evenodd" clip-rule="evenodd" fill="#FFFFFF" d="M86.157,150.73c2.112-3.622,6.789-4.88,10.411-2.816l7.647,4.428   c3.619,2.063,4.88,6.786,2.764,10.414c-2.112,3.616-6.789,4.873-10.411,2.764l-7.647-4.428   C85.349,159.029,84.094,154.353,86.157,150.73L86.157,150.73z"/>
	<path fill-rule="evenodd" clip-rule="evenodd" fill="#FFFFFF" d="M126.95,109.938c3.622-2.116,8.302-0.812,10.414,2.764   l4.425,7.644c2.063,3.622,0.858,8.299-2.817,10.415c-3.619,2.116-8.298,0.858-10.411-2.771l-4.428-7.644   C122.074,116.723,123.328,112.047,126.95,109.938L126.95,109.938z"/>
	<path fill-rule="evenodd" clip-rule="evenodd" fill="#FFFFFF" d="M182.687,94.991c4.173,0,7.653,3.426,7.653,7.598v8.855   c0,4.179-3.429,7.598-7.653,7.598c-4.176,0-7.595-3.419-7.595-7.598v-8.803C175.092,98.462,178.511,94.991,182.687,94.991   L182.687,94.991z"/>
	<path fill-rule="evenodd" clip-rule="evenodd" fill="#FFFFFF" d="M238.43,109.938c3.615,2.109,4.873,6.786,2.764,10.408   l-4.428,7.696c-2.07,3.622-6.799,4.88-10.414,2.771c-3.629-2.116-4.887-6.792-2.764-10.414l4.428-7.644   C230.124,109.08,234.801,107.875,238.43,109.938L238.43,109.938z"/>
	<path fill-rule="evenodd" clip-rule="evenodd" fill="#FFFFFF" d="M279.223,150.73c2.108,3.622,0.799,8.298-2.777,10.414   l-7.638,4.428c-3.628,2.057-8.306,0.852-10.414-2.816c-2.109-3.628-0.852-8.305,2.764-10.414l7.65-4.428   C272.424,145.851,277.1,147.108,279.223,150.73L279.223,150.73z"/>
	<path fill-rule="evenodd" clip-rule="evenodd" fill="#FFFFFF" d="M278.463,214.061h-0.8c-4.179,0-7.598-3.418-7.598-7.598   c0-4.172,3.419-7.591,7.598-7.591h0.8h8.096h0.812c4.179,0,7.598,3.419,7.598,7.591c0,4.18-3.419,7.598-7.598,7.598h-0.812H278.463   L278.463,214.061z"/>
	<path fill-rule="evenodd" clip-rule="evenodd" fill="#FFFFFF" d="M71.266,206.463c0-4.172,3.468-7.591,7.595-7.591h8.855   c4.175,0,7.595,3.419,7.595,7.591c0,4.18-3.419,7.598-7.595,7.598h-8.855C74.685,214.061,71.266,210.643,71.266,206.463   L71.266,206.463z"/>
	<path fill-rule="evenodd" clip-rule="evenodd" fill="#FFFFFF" d="M182.687,127.989c43.363,0,78.471,35.114,78.471,78.474   c0,43.367-35.107,78.475-78.471,78.475c-43.36,0-78.471-35.107-78.471-78.475C104.215,163.103,139.375,127.989,182.687,127.989   L182.687,127.989z"/>
	<path fill-rule="evenodd" clip-rule="evenodd" fill="#F04A23" d="M147.599,183.296c12.36,0,22.381,10.375,22.381,23.167   c0,12.799-10.021,23.174-22.381,23.174c-12.356,0-22.378-10.375-22.378-23.174C125.221,193.672,135.242,183.296,147.599,183.296   L147.599,183.296z"/>
	<path fill-rule="evenodd" clip-rule="evenodd" fill="#F04A23" d="M217.771,183.296c12.365,0,22.387,10.375,22.387,23.167   c0,12.799-10.021,23.174-22.387,23.174c-12.354,0-22.375-10.375-22.375-23.174C195.396,193.672,205.418,183.296,217.771,183.296   L217.771,183.296z"/>
</g>
</svg>